<?xml version="1.0" encoding="UTF-8"?>
<svg id="Layer_2" data-name="Layer 2" xmlns="http://www.w3.org/2000/svg" viewBox="0 0 386.39 263.239">
  <g id="Girls_for_girls" data-name="Girls for girls">
    <path d="M67.535,263v-33.914h14.378c1.56,0,2.993.318,4.299.955,1.306.637,2.436,1.497,3.391,2.58.987,1.082,1.752,2.292,2.293,3.63.541,1.337.812,2.707.812,4.108,0,1.91-.446,3.725-1.338,5.445s-2.118,3.121-3.678,4.204c-1.56,1.082-3.407,1.624-5.541,1.624h-8.025v11.368h-6.592ZM74.127,245.852h7.643c.796,0,1.513-.223,2.15-.669.637-.446,1.146-1.083,1.529-1.911.382-.859.573-1.831.573-2.913,0-1.179-.223-2.182-.669-3.01-.414-.828-.971-1.449-1.672-1.863-.669-.413-1.401-.62-2.197-.62h-7.356v10.986ZM111.769,263.239c-2.484,0-4.745-.478-6.783-1.433-2.006-.955-3.742-2.245-5.207-3.869-1.433-1.656-2.548-3.503-3.344-5.541-.796-2.07-1.194-4.188-1.194-6.353,0-2.261.414-4.411,1.242-6.449.86-2.069,2.022-3.901,3.487-5.493,1.497-1.624,3.249-2.898,5.255-3.821,2.038-.955,4.267-1.433,6.687-1.433,2.452,0,4.681.494,6.687,1.481,2.038.987,3.774,2.308,5.207,3.964,1.433,1.656,2.547,3.503,3.344,5.541.796,2.038,1.194,4.14,1.194,6.305,0,2.23-.414,4.379-1.242,6.449-.828,2.038-1.99,3.869-3.487,5.493-1.465,1.592-3.216,2.85-5.254,3.774-2.007.923-4.204,1.385-6.592,1.385ZM101.929,246.043c0,1.465.223,2.882.669,4.251.445,1.369,1.082,2.595,1.91,3.678.86,1.051,1.895,1.895,3.105,2.532,1.242.605,2.643.907,4.203.907,1.593,0,3.01-.318,4.252-.955,1.242-.669,2.277-1.544,3.105-2.627.827-1.115,1.448-2.341,1.862-3.678.446-1.369.669-2.739.669-4.108,0-1.465-.239-2.866-.716-4.204-.446-1.369-1.099-2.579-1.959-3.63-.828-1.083-1.863-1.926-3.105-2.531-1.21-.637-2.579-.956-4.108-.956-1.624,0-3.057.335-4.298,1.003-1.211.637-2.23,1.497-3.058,2.58-.827,1.082-1.464,2.293-1.91,3.63-.414,1.337-.621,2.707-.621,4.108ZM133.4,263v-33.914h14.999c1.56,0,2.993.318,4.299.955,1.337.637,2.484,1.497,3.439,2.58.987,1.082,1.736,2.292,2.245,3.63.541,1.337.812,2.707.812,4.108,0,1.433-.255,2.818-.764,4.155-.478,1.306-1.178,2.452-2.102,3.44-.923.987-2.006,1.751-3.248,2.292l7.738,12.754h-7.26l-6.974-11.368h-6.592v11.368h-6.592ZM139.992,245.852h8.264c.828,0,1.56-.239,2.197-.717.637-.509,1.146-1.178,1.528-2.006.383-.828.574-1.751.574-2.77,0-1.083-.223-2.022-.669-2.819-.446-.827-1.019-1.48-1.72-1.958-.668-.478-1.401-.716-2.197-.716h-7.977v10.986ZM190.158,234.866h-10.843v28.134h-6.544v-28.134h-10.843v-5.78h28.23v5.78ZM208.746,263.239c-2.707,0-5.016-.446-6.927-1.338-1.878-.923-3.407-2.181-4.585-3.773-1.147-1.592-1.99-3.392-2.532-5.398-.541-2.038-.812-4.155-.812-6.353v-17.291h6.592v17.291c0,1.401.127,2.771.382,4.108.287,1.306.748,2.484,1.385,3.535.637,1.051,1.481,1.879,2.532,2.484,1.051.605,2.356.907,3.917.907,1.592,0,2.914-.302,3.964-.907,1.083-.637,1.927-1.481,2.532-2.532.637-1.051,1.099-2.229,1.385-3.535.287-1.337.43-2.69.43-4.06v-17.291h6.544v17.291c0,2.325-.286,4.506-.86,6.544-.541,2.038-1.417,3.838-2.627,5.398-1.178,1.528-2.707,2.738-4.585,3.63-1.879.86-4.124,1.29-6.735,1.29ZM244.284,263.239c-2.197,0-4.283-.446-6.258-1.338-1.942-.891-3.662-2.117-5.158-3.678-1.465-1.592-2.612-3.439-3.44-5.541-.828-2.101-1.242-4.378-1.242-6.83,0-2.325.414-4.506,1.242-6.544.828-2.07,1.991-3.885,3.487-5.446,1.497-1.56,3.248-2.786,5.255-3.678,2.006-.891,4.187-1.337,6.544-1.337,3.184,0,5.907.685,8.168,2.054,2.293,1.337,4.012,3.121,5.159,5.35l-4.92,3.63c-.86-1.688-2.07-2.977-3.631-3.869-1.528-.892-3.2-1.338-5.015-1.338-1.433,0-2.739.303-3.917.908s-2.197,1.433-3.057,2.484c-.86,1.051-1.529,2.261-2.006,3.63-.446,1.369-.669,2.818-.669,4.347,0,1.624.239,3.121.717,4.49.509,1.369,1.21,2.563,2.101,3.582.924,1.019,1.991,1.831,3.201,2.437,1.21.573,2.547.859,4.012.859,1.72,0,3.36-.446,4.92-1.337,1.592-.892,3.073-2.197,4.442-3.917v6.496c-2.834,3.057-6.146,4.586-9.935,4.586ZM253.742,250.39h-6.831v-4.825h12.276v17.435h-5.445v-12.61ZM274.024,229.086h6.687l12.467,33.914h-6.783l-3.152-8.455h-11.846l-3.105,8.455h-6.783l12.515-33.914ZM282.048,249.912l-4.681-13.996-4.872,13.996h9.553ZM296.898,263v-33.914h6.592v28.134h17.291v5.78h-23.883Z" style="fill: #fff; stroke-width: 0px;"/>
    <path d="M180.71,92l18.41-18.41-18.96-18.96-5.98,5.98,13.05,12.98-6.52,6.52-18.96-18.96,18.96-18.96,2.72,2.72,5.91-5.91-8.63-8.7-30.85,30.85,30.85,30.85ZM205.04,91.45l30.85-30.85-30.85-30.85-18.41,18.41,18.96,18.96,5.98-5.98-13.05-12.98,6.52-6.52,18.96,18.96-18.96,18.96-2.72-2.72-5.91,5.98,8.63,8.63ZM253.76,60.88c0,8.24-1.61,16.13-4.82,23.65-3.22,7.52-7.54,14-12.98,19.43-5.44,5.44-11.91,9.76-19.43,12.98s-15.4,4.82-23.65,4.82-16.13-1.61-23.65-4.82c-7.52-3.22-14-7.54-19.43-12.98-5.44-5.44-9.76-11.91-12.98-19.43-3.22-7.52-4.82-15.4-4.82-23.65s1.61-16.13,4.82-23.65c3.22-7.52,7.54-14,12.98-19.43,5.44-5.43,11.91-9.76,19.43-12.98,7.52-3.22,15.4-4.82,23.65-4.82s16.13,1.61,23.65,4.82c7.52,3.22,14,7.54,19.43,12.98,5.44,5.44,9.76,11.91,12.98,19.43s4.82,15.4,4.82,23.65Z" style="fill: #d53964; stroke-width: 0px;"/>
    <path d="M16.2,194.62c-2.24,0-4.34-.44-6.3-1.32-1.96-.88-3.68-2.12-5.17-3.73-1.49-1.6-2.65-3.45-3.48-5.55-.83-2.1-1.25-4.4-1.25-6.9,0-2.34.42-4.54,1.27-6.61.85-2.07,2.02-3.89,3.51-5.48,1.49-1.59,3.24-2.82,5.26-3.7,2.02-.88,4.2-1.32,6.54-1.32,3.24,0,6,.67,8.29,2.02,2.29,1.35,4.01,3.16,5.17,5.43l-4.95,3.65c-.83-1.7-2.04-3-3.6-3.89-1.57-.9-3.27-1.35-5.09-1.35-1.44,0-2.76.31-3.97.91-1.2.61-2.23,1.44-3.1,2.5s-1.52,2.28-1.97,3.65c-.45,1.38-.67,2.84-.67,4.37,0,1.63.25,3.14.75,4.52.5,1.38,1.2,2.59,2.11,3.63.91,1.04,1.98,1.85,3.2,2.43s2.56.87,4.04.87c1.76,0,3.43-.45,5-1.35,1.57-.9,3.04-2.21,4.42-3.94v6.58c-2.85,3.04-6.18,4.57-10,4.57l-.01.01ZM25.71,181.69h-6.87v-4.85h12.35v17.54h-5.48v-12.69Z" style="fill: #fff; stroke-width: 0px;"/>
    <path d="M36.14,194.38v-34.13h6.63v34.13h-6.63Z" style="fill: #fff; stroke-width: 0px;"/>
    <path d="M49.17,194.38v-34.13h15.14c1.54,0,2.97.32,4.3.96s2.48,1.51,3.46,2.6c.98,1.09,1.73,2.31,2.26,3.65.53,1.35.79,2.72.79,4.13s-.25,2.82-.75,4.13-1.21,2.48-2.14,3.49c-.93,1.01-2.02,1.79-3.27,2.33l7.79,12.83h-7.31l-7.02-11.44h-6.63v11.44h-6.63l.01.01ZM55.8,177.13h8.31c.83,0,1.57-.25,2.21-.75s1.15-1.16,1.54-2c.38-.83.58-1.76.58-2.79s-.22-2-.67-2.84c-.45-.83-1.01-1.49-1.68-1.97-.67-.48-1.41-.72-2.21-.72h-8.07v11.06l-.01.01Z" style="fill: #fff; stroke-width: 0px;"/>
    <path d="M80.41,194.38v-34.13h6.63v28.31h17.4v5.82h-24.03Z" style="fill: #fff; stroke-width: 0px;"/>
    <path d="M128.09,169.2c-.22-.22-.63-.52-1.23-.89-.59-.37-1.31-.75-2.16-1.13-.85-.38-1.77-.7-2.76-.96-.99-.26-2-.38-3.03-.38-1.79,0-3.15.33-4.06.98-.91.65-1.37,1.6-1.37,2.85,0,.92.29,1.66.87,2.2.58.54,1.44,1,2.6,1.39,1.15.38,2.6.8,4.33,1.24,2.24.54,4.19,1.2,5.84,1.99,1.65.78,2.92,1.8,3.8,3.06.88,1.26,1.32,2.94,1.32,5.05,0,1.79-.34,3.32-1.01,4.59s-1.59,2.32-2.76,3.13c-1.17.81-2.52,1.4-4.04,1.77-1.52.37-3.13.55-4.83.55s-3.4-.18-5.09-.53c-1.7-.35-3.33-.86-4.88-1.51-1.55-.66-3-1.45-4.35-2.38l2.93-5.72c.29.29.8.67,1.54,1.13.74.46,1.63.93,2.69,1.39,1.06.46,2.21.86,3.46,1.18,1.25.32,2.52.48,3.8.48,1.83,0,3.19-.29,4.09-.88.9-.58,1.35-1.45,1.35-2.59,0-1.02-.36-1.83-1.08-2.42-.72-.59-1.74-1.1-3.05-1.53-1.31-.43-2.87-.88-4.66-1.36-2.18-.61-3.98-1.29-5.41-2.06-1.43-.77-2.5-1.72-3.22-2.85-.72-1.13-1.08-2.56-1.08-4.28,0-2.33.56-4.28,1.68-5.86,1.12-1.58,2.63-2.78,4.52-3.59,1.89-.81,3.99-1.22,6.3-1.22,1.6,0,3.12.18,4.54.53,1.43.35,2.76.82,4.01,1.39,1.25.58,2.37,1.2,3.36,1.87l-2.93,5.38-.03-.01Z" style="fill: #fff; stroke-width: 0px;"/>
    <path d="M151.63,194.38v-34.13h22.93v5.82h-16.29v8.8h13.55v5.43h-13.55v14.08h-6.64Z" style="fill: #d53964; stroke-width: 0px;"/>
    <path d="M193.06,194.62c-2.5,0-4.76-.48-6.78-1.44-2.02-.96-3.77-2.27-5.24-3.92-1.47-1.65-2.61-3.51-3.41-5.58-.8-2.07-1.2-4.19-1.2-6.37s.42-4.45,1.27-6.51c.85-2.07,2.02-3.91,3.51-5.53,1.49-1.62,3.26-2.9,5.31-3.85,2.05-.94,4.28-1.42,6.68-1.42s4.72.5,6.75,1.49c2.04.99,3.77,2.32,5.22,3.99,1.44,1.67,2.55,3.52,3.34,5.58.79,2.06,1.18,4.17,1.18,6.34s-.41,4.4-1.23,6.46c-.82,2.07-1.97,3.91-3.46,5.53s-3.25,2.89-5.29,3.82c-2.04.93-4.25,1.39-6.66,1.39l.01.02ZM183.16,177.32c0,1.47.22,2.9.67,4.28.45,1.38,1.1,2.6,1.95,3.68.85,1.07,1.89,1.92,3.12,2.55,1.23.62,2.64.94,4.21.94s3.06-.33,4.28-.99,2.25-1.53,3.1-2.62c.85-1.09,1.48-2.32,1.9-3.7.42-1.38.62-2.75.62-4.13,0-1.47-.22-2.89-.67-4.25s-1.11-2.58-1.97-3.65c-.87-1.07-1.91-1.92-3.12-2.55-1.21-.63-2.61-.94-4.18-.94s-2.97.33-4.21.99c-1.23.66-2.28,1.52-3.12,2.59-.85,1.07-1.49,2.29-1.92,3.65-.43,1.36-.65,2.75-.65,4.16l-.01-.01Z" style="fill: #d53964; stroke-width: 0px;"/>
    <path d="M214.11,194.38v-34.13h15.14c1.54,0,2.97.32,4.3.96s2.48,1.51,3.46,2.6c.98,1.09,1.73,2.31,2.26,3.65.53,1.35.79,2.72.79,4.13s-.25,2.82-.75,4.13-1.21,2.48-2.14,3.49c-.93,1.01-2.02,1.79-3.27,2.33l7.79,12.83h-7.31l-7.02-11.44h-6.63v11.44h-6.63l.01.01ZM220.75,177.13h8.32c.83,0,1.57-.25,2.21-.75s1.15-1.16,1.54-2c.38-.83.58-1.76.58-2.79s-.22-2-.67-2.84c-.45-.83-1.01-1.49-1.68-1.97s-1.41-.72-2.21-.72h-8.08v11.06l-.01.01Z" style="fill: #d53964; stroke-width: 0px;"/>
    <path d="M270.35,194.62c-2.24,0-4.34-.44-6.3-1.32-1.96-.88-3.68-2.12-5.17-3.73-1.49-1.6-2.65-3.45-3.48-5.55-.83-2.1-1.25-4.4-1.25-6.9,0-2.34.42-4.54,1.27-6.61.85-2.07,2.02-3.89,3.51-5.48,1.49-1.59,3.25-2.82,5.26-3.7,2.02-.88,4.2-1.32,6.54-1.32,3.24,0,6,.67,8.29,2.02,2.29,1.35,4.01,3.16,5.17,5.43l-4.95,3.65c-.83-1.7-2.04-3-3.6-3.89-1.57-.9-3.27-1.35-5.09-1.35-1.44,0-2.76.31-3.97.91-1.2.61-2.24,1.44-3.1,2.5-.86,1.06-1.52,2.28-1.97,3.65-.45,1.38-.67,2.84-.67,4.37,0,1.63.25,3.14.75,4.52.5,1.38,1.2,2.59,2.12,3.63.91,1.04,1.98,1.85,3.2,2.43s2.56.87,4.04.87c1.76,0,3.43-.45,5-1.35,1.57-.9,3.04-2.21,4.42-3.94v6.58c-2.85,3.04-6.18,4.57-10,4.57l-.02.01ZM279.87,181.69h-6.87v-4.85h12.35v17.54h-5.48v-12.69Z" style="fill: #d53964; stroke-width: 0px;"/>
    <path d="M290.29,194.38v-34.13h6.63v34.13h-6.63Z" style="fill: #d53964; stroke-width: 0px;"/>
    <path d="M303.32,194.38v-34.13h15.14c1.54,0,2.97.32,4.3.96,1.33.64,2.48,1.51,3.46,2.6s1.73,2.31,2.26,3.65c.53,1.35.79,2.72.79,4.13s-.25,2.82-.75,4.13-1.21,2.48-2.14,3.49c-.93,1.01-2.02,1.79-3.27,2.33l7.79,12.83h-7.31l-7.02-11.44h-6.63v11.44h-6.63l.01.01ZM309.95,177.13h8.32c.83,0,1.57-.25,2.21-.75.64-.5,1.15-1.16,1.54-2,.38-.83.58-1.76.58-2.79s-.22-2-.67-2.84c-.45-.83-1.01-1.49-1.68-1.97s-1.41-.72-2.21-.72h-8.08v11.06l-.01.01Z" style="fill: #d53964; stroke-width: 0px;"/>
    <path d="M334.56,194.38v-34.13h6.63v28.31h17.4v5.82h-24.03Z" style="fill: #d53964; stroke-width: 0px;"/>
    <path d="M382.24,169.2c-.22-.22-.63-.52-1.23-.89-.59-.37-1.31-.75-2.16-1.13-.85-.38-1.77-.7-2.76-.96s-2-.38-3.03-.38c-1.79,0-3.15.33-4.06.98-.91.65-1.37,1.6-1.37,2.85,0,.92.29,1.66.87,2.2.58.54,1.44,1,2.6,1.39,1.15.38,2.6.8,4.33,1.24,2.24.54,4.19,1.2,5.84,1.99,1.65.78,2.92,1.8,3.8,3.06.88,1.26,1.32,2.94,1.32,5.05,0,1.79-.34,3.32-1.01,4.59-.67,1.27-1.59,2.32-2.76,3.13-1.17.81-2.52,1.4-4.04,1.77-1.52.37-3.13.55-4.83.55s-3.4-.18-5.09-.53c-1.7-.35-3.33-.86-4.88-1.51-1.55-.66-3-1.45-4.35-2.38l2.93-5.72c.29.29.8.67,1.54,1.13.74.46,1.63.93,2.69,1.39,1.06.46,2.21.86,3.46,1.18,1.25.32,2.52.48,3.8.48,1.83,0,3.19-.29,4.09-.88.9-.58,1.35-1.45,1.35-2.59,0-1.02-.36-1.83-1.08-2.42-.72-.59-1.74-1.1-3.05-1.53-1.31-.43-2.87-.88-4.66-1.36-2.18-.61-3.98-1.29-5.41-2.06-1.43-.77-2.5-1.72-3.22-2.85-.72-1.13-1.08-2.56-1.08-4.28,0-2.33.56-4.28,1.68-5.86,1.12-1.58,2.63-2.78,4.52-3.59,1.89-.81,3.99-1.22,6.3-1.22,1.6,0,3.12.18,4.54.53,1.43.35,2.76.82,4.01,1.39,1.25.58,2.37,1.2,3.36,1.87l-2.93,5.38-.03-.01Z" style="fill: #d53964; stroke-width: 0px;"/>
  </g>
</svg>