<?xml version="1.0" encoding="UTF-8"?>
<svg id="Layer_2" data-name="Layer 2" xmlns="http://www.w3.org/2000/svg" xmlns:xlink="http://www.w3.org/1999/xlink" viewBox="0 0 555.841 803.363">
  <defs>
    <clipPath id="clippath">
      <rect width="555.841" height="803.363" style="fill: none; stroke-width: 0px;"/>
    </clipPath>
    <clipPath id="clippath-1">
      <rect width="555.841" height="803.363" style="fill: none; stroke-width: 0px;"/>
    </clipPath>
    <clipPath id="clippath-2">
      <rect width="555.841" height="803.363" style="fill: none; stroke-width: 0px;"/>
    </clipPath>
    <clipPath id="clippath-3">
      <rect width="555.841" height="803.363" style="fill: none; stroke-width: 0px;"/>
    </clipPath>
    <clipPath id="clippath-4">
      <rect width="555.841" height="803.363" style="fill: none; stroke-width: 0px;"/>
    </clipPath>
    <clipPath id="clippath-5">
      <rect width="555.841" height="803.363" style="fill: none; stroke-width: 0px;"/>
    </clipPath>
    <clipPath id="clippath-6">
      <rect width="555.841" height="803.363" style="fill: none; stroke-width: 0px;"/>
    </clipPath>
  </defs>
  <g id="Camada_1" data-name="Camada 1">
    <g>
      <polygon points="502.422 617.951 417.482 598.271 415.947 639.957 502.422 617.951" style="fill: #010101; stroke-width: 0px;"/>
      <polygon points="126.611 766.015 338.052 768.152 269.023 728.604 126.611 766.015" style="fill: #010101; stroke-width: 0px;"/>
      <polygon points="48.178 702.843 267.566 708.639 223.046 649.315 48.178 702.843" style="fill: #010101; stroke-width: 0px;"/>
      <polygon points="492.638 387.275 555.841 367.072 492.638 335.471 492.638 387.275" style="fill: #010101; stroke-width: 0px;"/>
      <g style="clip-path: url(#clippath);">
        <path d="M43.903,278.807c1.646,14.027,36.62,309.854,75.219,375.131,18.429,31.222,113.993,81.726,153.89,100.851,39.867-19.125,135.398-69.663,153.875-100.851,38.63-65.166,82.12-359.662,84.385-375.257-.285-36.478-26.725-79.479-70.849-115.086-46.453-37.491-102.261-58.99-153.146-58.99-125.076,0-242.884,98.002-243.375,174.203M258.432,795.146c-1.442-.648-35.766-16.877-73.811-38.647-22.72-12.982-42.066-25.252-57.455-36.509-22.086-16.148-36.73-30.618-44.837-44.298-19.331-32.694-38.234-107.01-57.787-227.241C10.655,363.003,1.504,283.984,1.409,283.208l-.22-1.963v-1.963c0-26.835,9.34-55.413,27.025-82.644,15.769-24.271,38.252-47.703,65.056-67.795,56.79-42.573,127.514-66.986,194.009-66.986,31.458,0,63.93,6.586,96.498,19.537,29.495,11.748,58.341,28.673,83.466,48.938,25.159,20.297,46.262,43.713,61.161,67.778,16.989,27.469,25.601,54.796,25.601,81.172v2.455l-.348,2.438c-.112.791-11.479,79.177-27.723,165.146-22.704,119.913-43.049,193.961-62.301,226.402-8.074,13.679-22.736,28.119-44.79,44.252-15.435,11.24-34.768,23.542-57.471,36.524-37.886,21.674-72.336,37.999-73.795,38.647l-14.564,6.888-14.581-6.888Z" style="fill: #fff; stroke-width: 0px;"/>
        <path d="M43.903,278.807c1.646,14.027,36.62,309.854,75.219,375.131,18.429,31.222,113.993,81.726,153.89,100.851,39.867-19.125,135.398-69.663,153.875-100.851,38.63-65.166,82.12-359.662,84.385-375.257-.285-36.478-26.725-79.479-70.849-115.086-46.453-37.491-102.261-58.99-153.146-58.99-125.076,0-242.884,98.002-243.375,174.203ZM258.432,795.146c-1.442-.648-35.766-16.877-73.811-38.647-22.72-12.982-42.066-25.252-57.455-36.509-22.086-16.148-36.73-30.618-44.837-44.298-19.331-32.694-38.234-107.01-57.787-227.241C10.655,363.003,1.504,283.984,1.409,283.208l-.22-1.963v-1.963c0-26.835,9.34-55.413,27.025-82.644,15.769-24.271,38.252-47.703,65.056-67.795,56.79-42.573,127.514-66.986,194.009-66.986,31.458,0,63.93,6.586,96.498,19.537,29.495,11.748,58.341,28.673,83.466,48.938,25.159,20.297,46.262,43.713,61.161,67.778,16.989,27.469,25.601,54.796,25.601,81.172v2.455l-.348,2.438c-.112.791-11.479,79.177-27.723,165.146-22.704,119.913-43.049,193.961-62.301,226.402-8.074,13.679-22.736,28.119-44.79,44.252-15.435,11.24-34.768,23.542-57.471,36.524-37.886,21.674-72.336,37.999-73.795,38.647l-14.564,6.888-14.581-6.888Z" style="fill: none; stroke: #1c1a1c; stroke-miterlimit: 10; stroke-width: 1.37px;"/>
        <path d="M152.165,124.631l-100.52,72.068-25.078,87.87,7.378,93.933,55.428,254.804,50.712,69.665,127.702,66.857,156.312-88.17,63.425-133.702,40.831-270.559s-39.943-114.325-85.257-136.11c-45.31-21.786-179.917-94.124-290.933-16.657" style="fill: #fff; stroke-width: 0px;"/>
        <path d="M372.851,103.56c6.634,2.707,13.142,5.651,19.474,8.897" style="fill: #1c1a1c; stroke-width: 0px;"/>
        <path d="M289.637,218.408c143.249,58.69,72.623,176.054,72.623,176.054,0,0,89.294-119.217-70.2-211.726,0,0-88.171-54.161-151.374-55.127-30.904,20.756-56.552,48.114-75.33,79.683,60.78-13.441,145.753-21.041,224.281,11.116" style="fill: #010101; stroke-width: 0px;"/>
        <path d="M399.656,245.274c21.801,150.517-74.333,182.451-82.265,184.826,73.763-19.156,96.909-106.551,96.909-106.551,30.748-103.876-49.141-209.191-64.437-228.096-6.807-1.994-13.742-3.688-20.756-5.13l-40.594-4.812c-3.42-.111-6.823-.191-10.26-.159,104.667,32.504,121.403,159.922,121.403,159.922" style="fill: #010101; stroke-width: 0px;"/>
        <path d="M298.866,435.39c-.189,0-.347.015-.536.046,0,0,.206-.031.536-.046" style="fill: #1c1a1c; stroke-width: 0px;"/>
        <path d="M280.866,237.738s-156.551-10.386-139.246,188.088c0,0,13.315,95.881,24.872,130.742,30.082,15.343,63.425,24.682,98.192,26.725-34.514-39.422-72.021-94.439-90.814-161.837-40.151-143.789,75.869-182.008,106.996-183.718" style="fill: #1c1a1c; stroke-width: 0px;"/>
        <path d="M178.051,253.824c83.151-43.666,131.55-19.901,151.12-4.56-20.803-16.767-73.953-45.787-164.941-7.393,0,0-93.237,34.957-125.06,158.307,4.133,15.136,7.631,54.337,14.297,68.063,4.892,10.07,12.381-4.956,18.523,4.242-1.71-34.244-.554-162.691,106.061-218.659" style="fill: #010101; stroke-width: 0px;"/>
        <path d="M343.687,259.793c5.749,6.729,8.265,11.494,8.265,11.494,0,0-2.485-4.908-8.265-11.494" style="fill: #1c1a1c; stroke-width: 0px;"/>
        <path d="M368.989,417.181c-114.69,71.879-173.839-27.833-173.839-27.833,43.949,80.238,113.58,68.048,113.58,68.048,110.319-5.337,196.145-104.146,219.706-134.101-.507-11.43-1.822-22.989-3.974-34.578-4.845-25.776-13.474-49.84-25.206-71.8-20.565,67.304-60.637,156.613-130.267,200.263" style="fill: #010101; stroke-width: 0px;"/>
        <path d="M276.289,478.358c-85.51-46.579-97.891-99.649-93.331-154.065,0,0-24.365,108.277,79.431,168.218,89.959,51.946,165.828,32.709,184.51,26.662,16.559-15.042,30.951-32.204,42.89-50.996-39.075,16.877-137.727,51.439-213.5,10.181" style="fill: #1c1a1c; stroke-width: 0px;"/>
        <path d="M449.179,337.339c0,91.321-74.048,165.368-165.368,165.368s-165.353-74.046-165.353-165.368,74.016-165.353,165.353-165.353,165.368,74.032,165.368,165.353" style="fill: #fff; stroke-width: 0px;"/>
        <path d="M398.768,451.427c-22.275,22.275-49.92,37.222-80.001,43.65l16.956-29.353-.094-.033c18.063-7.204,34.277-18.095,47.655-31.743l33.436-3.814c-5.319,7.518-11.304,14.66-17.953,21.293M152.561,430.052l33.422,3.816c13.506,13.775,29.828,24.731,48.067,31.951l16.371,29.242c-30.018-6.476-57.598-21.406-79.843-43.634-6.665-6.667-12.666-13.823-18.017-21.375M135.461,398.926l1.266,2.992c-.412-.981-.871-1.995-1.266-2.992M163.897,230.344l4.29,32.931c-13.664,21.389-21.548,46.801-21.548,74.064,0,1.378.016,2.74.064,4.069l-20.44,26.852c-1.947-10.085-2.929-20.423-2.929-30.921,0-39.834,14.344-77.451,40.563-106.995M351.002,190.162l-30.889,13.347.237.459c-11.383-3.04-23.336-4.686-35.669-4.686-12.049.016-23.733,1.568-34.878,4.464l.126-.237-31.221-13.488c20.471-9.183,42.858-14.028,65.974-14.028,23.258,0,45.74,4.876,66.321,14.17M385.074,376.587l-49.983-24.809-17.623-54.146,32.694-45.929,45.329,11.668c14.55,21.705,22.387,47.227,22.387,73.968-.017,2.486-.096,4.956-.223,7.458l-32.582,31.79ZM346.222,247.933l-32.458,45.582h-57.296l-32.916-45.123,22.719-38.63c12.286-3.705,25.206-5.589,38.41-5.589,13.488,0,26.692,1.979,39.247,5.826l22.294,37.934ZM151.516,337.339c0-26.645,7.774-52.088,22.228-73.763l45.597-11.747,32.711,44.79-17.527,53.877-50.442,25.221-32.424-31.633c-.095-2.248-.142-4.496-.142-6.745M190.494,431.51c-.933-.966-1.883-1.949-2.817-2.898l-.459-48.416,49.174-24.603,45.582,33.12v56.617l-42.495,17.336c-18.222-6.555-34.895-17.083-48.985-31.157M378.852,431.51c-14.282,14.28-31.204,24.886-49.697,31.426l-41.782-17.652v-56.711l44.521-32.33,50.901,25.237-.426,46.372c-1.157,1.251-2.329,2.453-3.516,3.658M443.21,367.548l-20.52-26.979c.017-1.076.031-2.153.031-3.23,0-26.883-7.694-51.977-20.976-73.208l4.291-33.106c25.854,29.432,39.991,66.781,39.991,106.314,0,10.244-.965,20.345-2.817,30.209M284.681,170.087c-92.365,0-167.253,74.886-167.253,167.252s74.888,167.252,167.253,167.252,167.253-74.87,167.253-167.252-74.904-167.252-167.253-167.252" style="fill: #010101; stroke-width: 0px;"/>
        <path d="M287.135,75.615c-63.772,0-131.598,23.463-186.155,64.327-25.618,19.221-47.086,41.575-62.095,64.659-16.559,25.489-25.3,52.073-25.3,76.881v1.457l.175,1.441c.095.776,9.025,77.974,22.75,162.487,19.11,117.397,37.381,189.702,55.889,221.035,7.393,12.46,21.089,25.917,41.892,41.116,14.929,10.91,33.738,22.846,55.856,35.513,37.143,21.214,70.739,37.126,72.131,37.775l10.783,5.082,10.798-5.082c1.409-.648,34.988-16.561,72.131-37.791,22.102-12.651,40.895-24.604,55.825-35.512,20.804-15.183,34.515-28.626,41.893-41.085,18.429-31.109,38.173-103.228,60.369-220.402,15.975-84.464,27.151-161.631,27.263-162.407l.253-1.789v-1.837c0-24.429-8.059-49.856-23.97-75.568-14.187-22.925-34.356-45.264-58.375-64.674-24.128-19.458-51.834-35.703-80.128-46.974-31.078-12.366-62.046-18.651-91.985-18.651M287.135,100.884c110.984,0,229.205,99.854,229.205,180.599,0,0-44.142,305.675-84.356,373.563-24.255,40.88-158.923,104.414-158.923,104.414,0,0-134.717-63.502-158.893-104.414-40.167-67.919-75.315-373.563-75.315-373.563,0-82.724,123.302-180.599,248.282-180.599" style="fill: #010101; stroke-width: 0px;"/>
      </g>
      <polygon points="16.006 475.761 47.988 702.972 550.759 588.534 555.841 367.184 16.006 475.761" style="fill: #010101; stroke-width: 0px;"/>
      <polygon points="133.198 542.288 114.246 546.437 114.167 483.883 154.682 475.238 151.753 491.531 133.15 495.536 133.15 505.621 151.768 501.599 148.286 517.954 133.181 521.231 133.198 542.288" style="fill: #fff; stroke-width: 0px;"/>
      <g style="clip-path: url(#clippath-1);">
        <path d="M204.459,464.614l.079,62.017-37.855,8.311c-4.481.982-7.599-1.553-7.599-6.079l-.079-54.543,18.951-4.051.065,46.641,7.551-1.647-.095-46.611,18.983-4.037Z" style="fill: #fff; stroke-width: 0px;"/>
      </g>
      <polygon points="208.796 479.275 208.781 463.681 251.18 454.642 248.203 470.823 239.116 472.784 239.147 519.062 220.196 523.211 220.133 476.837 208.796 479.275" style="fill: #fff; stroke-width: 0px;"/>
      <polygon points="255.612 515.436 255.518 453.723 296.017 445.094 293.025 461.195 274.406 465.2 274.422 472.057 293.039 468.051 291.22 483.804 274.438 487.46 274.438 495.9 296.096 491.198 296.127 506.57 255.612 515.436" style="fill: #fff; stroke-width: 0px;"/>
      <g style="clip-path: url(#clippath-2);">
        <path d="M320.241,485.925l7.536-1.648v-8.39l-7.536,1.631v8.407ZM327.745,453.738l-7.536,1.616v6.84l7.536-1.632v-6.825ZM301.305,505.414l-.079-61.444,37.824-8.059c4.513-.966,7.632,1.536,7.632,5.983l.014,14.076-7.773,9.942s7.789-1.06,7.806,6.476l.031,15.468c0,4.449-3.12,8.28-7.617,9.263l-37.838,8.294Z" style="fill: #fff; stroke-width: 0px;"/>
        <path d="M371.711,444.286l.033,30.43,7.534-1.631-.046-30.413-7.522,1.614ZM360.423,492.464c-4.496.982-7.615-1.471-7.615-5.937l-.064-45.928c0-4.467,3.104-8.251,7.6-9.231l30.224-6.443c4.496-.966,7.615,1.487,7.631,5.921l.048,45.755c.015,4.433-3.104,8.248-7.617,9.231l-30.207,6.632Z" style="fill: #fff; stroke-width: 0px;"/>
      </g>
      <polygon points="405.087 421.82 423.975 417.798 424.038 463.333 443.083 459.186 443.098 474.336 405.181 482.663 405.087 421.82" style="fill: #fff; stroke-width: 0px;"/>
      <g style="clip-path: url(#clippath-3);">
        <path d="M167.363,569.076l3.325-.713-.016-13.567-3.324.744.015,13.536ZM159.131,577.721l-.032-27.199,16.513-3.625c1.931-.444,3.309.648,3.309,2.643l.017,20.392c0,1.98-1.363,3.658-3.278,4.116l-16.528,3.673Z" style="fill: #fff; stroke-width: 0px;"/>
      </g>
      <polygon points="181.961 572.622 181.93 545.471 199.629 541.592 198.3 548.686 190.178 550.489 190.178 553.514 198.316 551.708 196.891 558.802 190.178 560.274 190.194 564.01 199.662 561.906 199.662 568.681 181.961 572.622" style="fill: #fff; stroke-width: 0px;"/>
      <g style="clip-path: url(#clippath-4);">
        <path d="M238.372,557.202l.031,17.969,11.7-2.628-.016-17.954-11.716,2.612ZM267.82,526.536c6.871-1.505,11.7,2.344,11.715,9.308l.064,37.618-7.806,12.556,12.904,32.599-32.346,7.33-7.996-28.071-5.921,1.315.064,29.922-29.48,6.777-.127-96.34,58.928-13.014Z" style="fill: #fff; stroke-width: 0px;"/>
        <path d="M359.679,506.286l.158,94.946-58.801,13.521c-6.997,1.599-11.842-2.217-11.876-9.168l-.094-83.737,29.464-6.505.094,71.514,11.718-2.66-.112-71.42,29.449-6.491Z" style="fill: #fff; stroke-width: 0px;"/>
      </g>
      <path d="M409.82,547.054l-2.724-27.468-3.228.727-2.645,28.688,8.597-1.947ZM429.942,490.77l15.612,90.798-31.761,7.251-1.789-18.604-12.919,2.945-1.868,19.474-31.03,7.124,14.77-98.176,48.985-10.812Z" style="fill: #fff; stroke-width: 0px;"/>
      <rect x="131.171" y="8.392" width="294.275" height="146.243" style="fill: #010101; stroke-width: 0px;"/>
      <path d="M139.546,16.75h277.541l-.017,129.509H139.546V16.75ZM139.546,0l-16.735.017v162.977h311.026v-16.735l-.033-129.509V.017l-16.734-.017H139.546Z" style="fill: #fff; stroke-width: 0px;"/>
      <g style="clip-path: url(#clippath-5);">
        <path d="M221.827,114.673c-.253-4.559-1.442-13.315-3.12-18.793-4.971,2.865-12.54,5.478-18.413,5.478-8.739,0-11.763-4.179-11.763-18.667,0-14.756,4.323-18.428,10.988-18.428,4.955,0,11.621,1.726,18.018,4.734,1.297-6.017,2.738-13.205,2.738-19.063-5.099-2.502-14.899-3.941-21.674-3.941-18.413,0-33.549,11.24-33.549,36.81,0,24.413,12.522,36.951,34.213,36.951,6.902,0,17.083-1.963,22.561-5.082" style="fill: #fff; stroke-width: 0px;"/>
        <path d="M265.903,87.109h-10.829l3.531-14.866c.506-2.344,1.171-5.747,1.171-7.188h1.298c0,1.441.792,5.098,1.298,7.188l3.53,14.866ZM295.146,117.286c-5.62-24.414-13.189-49.35-20.899-69.979h-25.442c-8.106,20.756-15.532,44.664-21.279,69.853,5.493,1.172,14.502,1.804,20.122,1.804l3.625-15.801,18.413.017,3.785,15.784c5.874,0,16.846-.633,21.674-1.678" style="fill: #fff; stroke-width: 0px;"/>
      </g>
      <rect x="304.217" y="47.307" width="22.34" height="71.15" style="fill: #fff; stroke-width: 0px;"/>
      <g style="clip-path: url(#clippath-6);">
        <path d="M392.024,96.388c0-21.928-28.339-21.136-28.339-28.593,0-2.344,1.186-3.642,5.24-3.642,3.895,0,11.367,1.172,17.367,2.613,1.568-6.539,2.202-13.441,2.597-18.524-6.522-1.727-13.299-2.248-17.874-2.248-16.846,0-29.781,8.232-29.781,22.861,0,22.181,28.736,21.786,28.736,28.832,0,2.754-1.425,3.799-5.494,3.799-4.941,0-12.778-1.71-19.063-4.179-1.679,5.351-3.784,12.792-4.434,18.539,7.315,3.009,16.197,3.91,22.451,3.91,16.323,0,28.593-7.678,28.593-23.368" style="fill: #fff; stroke-width: 0px;"/>
      </g>
      <polygon points="502.058 617.619 115.576 712.248 126.454 766.22 510.007 670.751 502.058 617.619" style="fill: #010101; stroke-width: 0px;"/>
      <g>
        <path d="M212.47,730.139l-2.184-29.97,6.316-1.561c2.217-.548,3.741-.828,4.575-.84,1.407,0,2.724.36,3.952,1.084,1.231.723,2.334,1.82,3.312,3.293.975,1.471,1.743,3.339,2.303,5.602.588,2.38.836,4.652.747,6.816-.088,2.166-.479,4.138-1.172,5.908-.694,1.776-1.523,3.146-2.491,4.112-.97.969-2.042,1.73-3.223,2.285-.77.369-2.044.775-3.822,1.215l-8.315,2.055ZM216.954,724.118l2.456-.606c1.795-.444,3.021-.88,3.681-1.306.865-.545,1.591-1.409,2.175-2.588.586-1.179.964-2.709,1.139-4.59.174-1.881-.018-3.958-.582-6.234-.465-1.882-1.076-3.3-1.835-4.25-.759-.949-1.6-1.511-2.524-1.686-.655-.116-1.721.01-3.196.373l-2.783.689,1.469,20.197Z" style="fill: #fff; stroke: #fff; stroke-miterlimit: 10; stroke-width: .489px;"/>
        <path d="M236.202,724.273l-2.182-29.968,17.476-4.319.364,5.007-12.62,3.119.49,6.81,12.214-3.019.364,5.008-12.219,3.02.584,8.138,13.564-3.352.384,5.005-18.418,4.551Z" style="fill: #fff; stroke: #fff; stroke-miterlimit: 10; stroke-width: .489px;"/>
        <path d="M256.513,709.366l4.536-1.432c.446,1.528.889,2.557,1.324,3.086.437.532,1.032.887,1.783,1.069.753.181,1.704.131,2.856-.153,1.489-.369,2.529-.973,3.12-1.812.59-.842.755-1.791.494-2.849-.186-.745-.559-1.332-1.124-1.763-.56-.413-1.86-.877-3.901-1.385-2.59-.65-4.342-1.221-5.26-1.707-.918-.487-1.705-1.17-2.36-2.05-.652-.88-1.135-1.947-1.445-3.202-.634-2.561-.387-4.796.738-6.696,1.126-1.903,2.988-3.174,5.591-3.817,2.628-.65,4.918-.409,6.869.722,1.952,1.132,3.346,3.058,4.188,5.786l-4.59,1.383c-.939-2.777-2.716-3.845-5.339-3.196-1.297.322-2.182.828-2.658,1.523-.476.694-.597,1.513-.364,2.456.215.865.678,1.493,1.39,1.888.702.41,2.024.86,3.962,1.353,2.557.632,4.289,1.185,5.2,1.661.909.474,1.682,1.144,2.32,2.003.637.865,1.106,1.903,1.405,3.117.672,2.716.364,5.146-.924,7.289-1.289,2.14-3.339,3.558-6.151,4.254-2.118.523-4.037.518-5.756-.015-1.721-.531-3.038-1.484-3.952-2.852-.913-1.369-1.565-2.922-1.953-4.66Z" style="fill: #fff; stroke: #fff; stroke-miterlimit: 10; stroke-width: .489px;"/>
        <path d="M280.176,713.408l-2.182-29.971,6.313-1.561c2.217-.548,3.743-.828,4.575-.839,1.407,0,2.723.36,3.954,1.083,1.228.723,2.332,1.82,3.309,3.293.975,1.473,1.743,3.339,2.303,5.602.588,2.38.838,4.652.748,6.816-.088,2.165-.479,4.137-1.172,5.908-.692,1.776-1.523,3.146-2.493,4.112-.966.969-2.042,1.73-3.222,2.285-.769.369-2.042.777-3.82,1.215l-8.315,2.056ZM284.657,707.387l2.455-.607c1.794-.444,3.022-.88,3.681-1.306.867-.546,1.59-1.409,2.174-2.588.584-1.179.964-2.707,1.139-4.59.175-1.881-.019-3.958-.58-6.234-.467-1.882-1.078-3.3-1.837-4.249-.76-.95-1.6-1.512-2.523-1.686-.658-.116-1.723.009-3.196.373l-2.784.689,1.471,20.198Z" style="fill: #fff; stroke: #fff; stroke-miterlimit: 10; stroke-width: .489px;"/>
        <path d="M303.905,707.541l-2.182-29.969,17.476-4.318.364,5.008-12.62,3.118.49,6.81,12.213-3.02.364,5.009-12.219,3.02.584,8.138,13.564-3.352.382,5.005-18.416,4.551Z" style="fill: #fff; stroke: #fff; stroke-miterlimit: 10; stroke-width: .489px;"/>
        <path d="M346.576,675.998l-4.733.294c-.287-2.841.071-5.119,1.078-6.833,1.007-1.711,2.49-2.81,4.452-3.293,2.118-.523,3.997-.248,5.637.832,1.642,1.08,2.751,2.797,3.334,5.15.452,1.831.415,3.733-.108,5.706-.39,1.457-1.365,3.69-2.924,6.696-1.425,2.712-2.36,4.716-2.799,6.021l8.178-2.022.386,5.358-14.317,3.537c-.292-2.187-.114-4.391.533-6.602.435-1.495,1.646-4.203,3.633-8.12,1.446-2.854,2.334-4.81,2.672-5.864.428-1.407.516-2.625.265-3.645-.252-1.021-.689-1.759-1.311-2.226-.621-.463-1.276-.61-1.969-.439-1.609.397-2.278,2.215-2.006,5.449Z" style="fill: #fff; stroke: #fff; stroke-miterlimit: 10; stroke-width: 1.566px;"/>
        <path d="M361.567,683.365c-.919-3.714-1.205-7.413-.86-11.099.345-3.684,1.151-6.441,2.421-8.267.961-1.39,2.213-2.274,3.756-2.656,1.895-.469,3.67-.016,5.321,1.359,1.651,1.376,2.876,3.685,3.678,6.926.917,3.716,1.209,7.409.876,11.085-.334,3.674-1.135,6.426-2.405,8.254-.954,1.357-2.217,2.233-3.785,2.62-1.87.461-3.636.015-5.302-1.333-1.666-1.35-2.898-3.646-3.701-6.889ZM366.379,683.381c.38,1.543.856,2.579,1.422,3.104.567.527,1.171.711,1.811.552.811-.2,1.44-.836,1.884-1.903.573-1.431.76-3.945.562-7.536-.202-3.594-.533-6.323-.996-8.195-.356-1.438-.821-2.423-1.396-2.951-.577-.531-1.183-.719-1.824-.561-.773.191-1.361.807-1.769,1.853-.648,1.645-.856,4.423-.626,8.333.174,3.066.484,5.499.931,7.302Z" style="fill: #fff; stroke: #fff; stroke-miterlimit: 10; stroke-width: 1.566px;"/>
        <path d="M380.569,678.669c-.918-3.714-1.205-7.413-.859-11.099.345-3.684,1.151-6.441,2.421-8.267.961-1.388,2.213-2.274,3.756-2.656,1.895-.469,3.67-.014,5.321,1.359,1.651,1.376,2.876,3.684,3.677,6.926.918,3.716,1.211,7.409.878,11.084-.334,3.675-1.135,6.429-2.404,8.254-.955,1.36-2.217,2.234-3.785,2.621-1.869.463-3.638.017-5.304-1.332-1.664-1.35-2.898-3.647-3.699-6.891ZM385.381,678.686c.38,1.542.856,2.578,1.421,3.103.568.527,1.172.711,1.811.552.811-.2,1.44-.835,1.882-1.901.575-1.432.762-3.947.562-7.537-.2-3.595-.531-6.324-.994-8.196-.356-1.438-.823-2.42-1.396-2.951-.577-.531-1.185-.719-1.826-.559-.771.19-1.361.806-1.767,1.852-.65,1.645-.858,4.422-.627,8.334.175,3.063.485,5.497.931,7.301Z" style="fill: #fff; stroke: #fff; stroke-miterlimit: 10; stroke-width: 1.566px;"/>
        <path d="M408.484,675.474l-9.266,2.29-.358-4.907,8.274-21.337,3.964-.979,1.374,18.87,2.861-.709.36,4.99-2.86.707.444,6.113-4.355,1.077-.439-6.115ZM408.124,670.485l-.674-9.343-3.996,10.498,4.671-1.156Z" style="fill: #fff; stroke: #fff; stroke-miterlimit: 10; stroke-width: 1.566px;"/>
      </g>
    </g>
  </g>
</svg>