<?xml version="1.0" encoding="UTF-8"?>
<svg id="Layer_2" data-name="Layer 2" xmlns="http://www.w3.org/2000/svg" viewBox="0 0 233.977 343.136">
  <g id="Layer_1-2" data-name="Layer 1">
    <g id="Benficia_Foundation" data-name="Benficia Foundation">
      <g>
        <path d="M0,257.971h21v3.981H4.482v10.114h13.82v3.935H4.482v14.643H0v-32.672ZM25.205,279.798v-21.78h4.486v21.092c0,5.217,3.018,8.01,7.867,8.01,4.988,0,7.872-2.793,7.78-7.918v-21.184h4.482v21.461c.048,7.363-4.987,11.713-12.352,11.713-6.727,0-12.264-3.57-12.264-11.394ZM56.129,257.971h4.44l15.923,24.938h.09v-24.938h4.308v32.672h-4.397l-16.012-25.165h-.094v25.165h-4.258v-32.672ZM87.465,258.018h12.312c6.863,0,12.124,4.21,12.124,11.255v9.884c0,7.275-5.675,11.486-12.08,11.486h-12.356v-32.625ZM99.592,286.661c4.347,0,7.824-2.608,7.824-7.229v-10.295c0-4.301-3.201-7.185-7.96-7.185h-7.503v24.71h7.639ZM126.357,257.971h4.16l12.035,32.672h-4.714l-3.018-8.649h-13.042l-3.111,8.649h-4.483l12.173-32.672ZM133.537,278.195l-5.168-14.824h-.048l-5.259,14.824h10.475ZM152.799,299.427v-2.425c1.416.504,3.018.869,4.115.869,1.879,0,2.885-.412,2.885-1.601,0-1.144-1.648-1.421-3.71-1.602l-.911-.093.591-3.432c-6.129-.595-10.934-4.392-10.934-10.979v-10.892c0-7.229,5.493-11.713,12.63-11.713,6.404,0,11.895,3.659,11.895,10.11v1.42h-4.256v-.915c0-4.348-3.521-6.634-7.731-6.634s-8.052,2.561-8.052,7.596v10.661c0,4.622,3.569,7.41,8.281,7.41,4.164,0,7.502-2.286,7.502-6.633v-.597h4.256v1.147c0,6.45-5.217,10.018-11.531,10.113l-.226,1.324c2.926.047,5.538.825,5.538,3.57,0,2.289-2.062,4.164-5.858,4.164-1.647,0-3.159-.368-4.483-.87ZM183.449,257.971h4.162l12.035,32.672h-4.713l-3.019-8.649h-13.042l-3.11,8.649h-4.484l12.172-32.672ZM177.043,254.312c.506-2.839,2.15-5.032,4.893-5.032,2.566,0,4.716,1.509,7.185,1.509,1.283,0,1.695-.96,2.016-2.103l2.698.595c-.503,2.927-2.103,5.077-4.714,5.077-2.514,0-4.849-1.556-7.273-1.556-1.009,0-1.42.596-2.013,2.105l-2.792-.595ZM190.633,278.195l-5.17-14.824h-.047l-5.263,14.824h10.479ZM201.928,280.164v-10.892c0-7.501,5.995-11.851,12.631-11.851,6.997,0,12.721,4.301,12.721,11.484v10.433c0,7.503-5.949,11.899-12.586,11.899-6.908,0-12.766-3.891-12.766-11.074ZM222.842,279.615v-10.891c0-4.622-3.573-7.322-8.375-7.322-4.207,0-8.053,2.609-8.053,7.734v10.661c0,4.622,3.568,7.41,8.279,7.41,4.166,0,8.148-2.469,8.148-7.593Z" style="fill: #e2061b; stroke-width: 0px;"/>
        <g>
          <path d="M0,303.558h21.397c7.699,0,11.409,4.255,11.409,9.772,0,3.768-1.853,7.586-6.062,9.06v.109c4.369,1.148,6.717,4.913,6.717,8.898,0,5.95-4.259,11.08-11.736,11.08H0v-38.921ZM17.795,318.789c2.785,0,4.095-1.691,4.095-3.768,0-1.911-1.419-3.276-4.095-3.276h-6.82v7.044h6.82ZM18.01,334.071c2.787,0,4.207-1.746,4.207-3.873s-1.532-3.494-4.367-3.494h-6.875v7.367h7.035Z" style="fill: #e2061b; stroke-width: 0px;"/>
          <path d="M37.768,303.558h29.476v8.682h-18.507v6.387h15.12v8.623h-15.12v6.497h18.56v8.732h-29.529v-38.921Z" style="fill: #e2061b; stroke-width: 0px;"/>
          <path d="M72.422,303.558h10.646l13.753,19.706h.11v-19.706h9.992v38.921h-10.047l-14.356-20.962h-.11v20.962h-9.988v-38.921Z" style="fill: #e2061b; stroke-width: 0px;"/>
          <path d="M112.482,303.558h29.26v8.682h-18.286v6.876h14.79v8.682h-14.79v14.682h-10.974v-38.921Z" style="fill: #e2061b; stroke-width: 0px;"/>
          <path d="M145.664,303.558h10.973v38.921h-10.973v-38.921Z" style="fill: #e2061b; stroke-width: 0px;"/>
          <path d="M161.166,328.777v-11.572c0-9.716,8.076-14.302,16.701-14.302,7.645,0,16.321,3.656,16.321,12.881v2.073h-10.316v-1.089c0-3.549-3.003-5.132-5.731-5.132-3.273,0-5.949,1.745-5.949,5.623v11.411c0,3.6,2.347,5.729,6.004,5.729,2.73,0,5.677-1.581,5.677-5.186v-1.04h10.316v2.186c0,9.114-8.46,12.774-16.102,12.774-8.624,0-16.921-4.098-16.921-14.358Z" style="fill: #e2061b; stroke-width: 0px;"/>
          <path d="M208.377,303.503h12.392l13.208,38.976h-11.135l-2.073-6.768h-13.43l-2.128,6.768h-10.316l13.482-38.976ZM218.255,327.413l-4.147-13.373h-.105l-4.149,13.373h8.402Z" style="fill: #e2061b; stroke-width: 0px;"/>
        </g>
      </g>
      <g>
        <path d="M117.386,228.389c-20.216,0-39.987-8.066-54.594-22.01-15.181-14.492-23.942-34.683-24.361-55.652-.244-12.196,2.278-24.441,7.464-35.491-2.893,1.915-5.724,3.921-8.563,5.915.594-4.582,1.187-9.164,1.78-13.746-5.743-.49-11.485-.981-17.228-1.471,8.322-5.586,16.731-10.968,25.64-15.589,5.415-2.808,10.936-5.428,16.632-7.618,5.642-2.169,11.144-4.663,17.332-4.325.088.005.177-.013.256-.052,4.047-1.992,8.18-3.549,12.145-5.725,1.558-.855,7.882-1.682,8.606-4.076.083-.275-.089-.56-.364-.646-2.411-.756-2.512-4.48-2.561-6.602-.004-.181-.105-.341-.257-.439-1.221-.796-1.706-2.153-1.571-3.579.016-.172-.039-.347-.172-.459-.848-.71-.976-1.842-.866-2.901.029-.278-.155-.531-.43-.581-.054-.01-.107-.02-.161-.031-.152-.031-.307.005-.431.098-1.827,1.376-4.477,2.027-6.536.764-.177-.109-.403-.089-.573.03-1.9,1.319-4.288,2.061-6.214.48-.129-.106-.295-.148-.459-.118-1.474.27-2.651-.323-4.108-.401-.853-.046-1.626.195-2.488.032-.838-.158-1.534-.781-2.33-.951-.042-.009-.086-.012-.129-.013-1.71-.003-2.533-.121-4.201-.654-.985-.315-1.95-.248-2.867-.859-1.005-.669-1.278-1.446-1.856-2.377-.061-.098-.156-.176-.263-.219-1.564-.638-2.614-1.295-3.485-2.783-.064-.11-.163-.199-.282-.243-2.87-1.084-6.052-1.248-8.942-2.32-1.221-.453-2.273-1.099-3.415-1.707-1.359-.723-2.882-.885-4.397-1.273-2.942-.755-5.622-2.032-8.198-3.634-2.723-1.693-4.675-4.49-7.532-5.795-2.495-1.139-4.69-2.781-6.667-4.667-1.921-1.833-4.6-2.459-6.605-4.32-1.136-1.055-1.693-1.804-3.112-2.33-1.292-.479-2.545-1.052-3.715-1.779-2.291-1.425-4.939-3.393-6.228-5.904C-1.984,6.389,7.264,7.668,10.294,7.696c7.584.069,15.169.063,22.753.099,13.377.064,26.746-.338,40.064,1.222,6.378.747,13.704,2.712,17.223,8.623,1.088,1.828,1.577,2.404,3.564,3.242,1.183.499,2.226,1.074,3.082,2.055.926,1.06,2.538,4.629,4.355,5.758.485.302,1.031-.286.707-.756-.814-1.177-.203-2.631.846-3.74.234-.247.181-.658-.119-.818-.865-.462-1.497-1.29-1.507-2.31-.002-.184-.103-.353-.261-.445-1.379-.805-1.273-2.406-1.684-3.783-.025-.083-.069-.16-.13-.222-1.119-1.141-3.046-1.416-4.35-2.315-1.405-.968-2.41-2.421-2.745-4.095-.055-.275-.319-.451-.597-.416-4.225.533-3.074-5.222-1.108-7.271,2.535-2.642,7.47-3.219,10.755-1.684.118.055.251.064.375.025,4.363-1.354,7.875.72,11.842,2.436,1.547.669,3.19,1.154,4.881.94,1.586-.201,4.213-.463,4.111,1.893-.01.234.128.449.348.527.616.217,1.215.525,1.694.969.759.703.639,1.41,1.098,2.12.644.994,1.835,1.441,2.068,3.05.026.181.151.333.322.399,2.438.954,7.161,4.363,5.454,7.412-.107.191-.088.427.055.593,1.085,1.262,2.513,3.253,2.036,4.923-.154.54-.013,1.121.381,1.521l.01.01c.144.146.365.2.556.126,1.589-.612,1.72-3.162,2.664-4.552,1.5-2.208,3.795-2.936,5.577-4.729,1.984-1.995,3.056-4.283,5.561-5.82,2.342-1.437,5.066-2.396,7.698-3.138,10.888-3.071,23.313-1.891,34.499-1.828,10.92.061,21.847-.069,32.767-.133,1.672-.01,4.007-.438,5.596.141,3.154,1.151,1.477,4.278-.237,5.827-1.541,1.393-3.34,2.569-5.235,3.417-.925.414-1.945.649-2.766,1.268-1.238.933-2.141,2.339-3.359,3.328-1.003.814-2.072,1.454-2.967,2.394-1.035,1.087-1.884,2.277-3.043,3.252-2.097,1.763-4.999,2.616-6.76,4.659-4.099,4.753-10.125,6.984-16.113,8.253-.117.025-.22.09-.295.183-1.807,2.237-4.302,3.505-7.095,4.158-1.274.298-2.562.299-3.836.544-1.308.252-2.23.964-3.435,1.466-.128.053-.23.154-.286.28-.285.636-.689,1.182-1.276,1.56-.121.078-.209.197-.243.337-.757,3.133-4.047,4.062-6.878,4.638-1.063.216-2.141.089-3.2.216-1.537.185-2.841.524-4.349.016-.172-.058-.358-.029-.505.078-1.035.756-2.534,1.241-3.804,1.105-.129-.014-.255.018-.362.092-1.785,1.245-4.475,1.358-6.384.332-.187-.101-.409-.085-.581.039-1.189.863-2.71,1.178-4.156.939-.266-.044-.511.125-.591.383-.239.768-.723,1.33-1.079,2.057-.435.888-.481,1.974-.841,2.949-.502,1.361-1.332,2.582-2.08,3.817l-.356-.259c-.277,1.177-.739,2.814-1.777,3.638-.29.23-.257.686.065.867,1.707.963,3.646,1.477,5.3,2.587,1.723,1.156,3.039,2.319,4.963,3.194,2.284,1.039,4.632,2.247,7.067,2.911.053.015.109.02.164.017,5.532-.27,11.335,2.493,16.413,4.397,6.058,2.272,11.931,5.029,17.662,8.023,8.655,4.521,16.817,9.793,24.9,15.249-5.756.489-11.511.979-17.267,1.469.571,4.575,1.142,9.15,1.714,13.725-2.81-1.971-5.612-3.954-8.473-5.853,8.918,19.005,9.815,41.343,2.684,61.065-7.115,19.68-22.124,35.828-41.088,44.618-10.483,4.859-22.003,7.429-33.56,7.429Z" style="fill: #fff; stroke-width: 0px;"/>
        <g>
          <path d="M108.794,84.093c2.677-.344,5.373-.55,8.07-.597,5.107-.09,10.223.411,15.216,1.494.297-2.242-.513-2.3-1.432-4.26-.408-.872-.675-1.866-.838-2.813-.299-1.732-.567-1.383-1.89-2.242-1.278-.83-1.199-1.494-2.876-1.236-.893.139-1.781-.071-2.597.231-.554.205-.832,1.285-1.501.757-.522-.411-.017-1.554.201-1.954-2.251-.956-1.507.562-2.229,1.184-.021.017-.041.034-.064.051-.109.075-.237.139-.413.171-.404.075-.492-.286-.699-.592-.113-.167-.21-.303-.301-.425-.021-.028-.043-.053-.064-.079-.068-.088-.137-.165-.199-.227-.024-.024-.047-.045-.071-.064-.064-.056-.13-.103-.197-.139-.019-.011-.041-.026-.06-.034-.323-.15-.727-.126-1.518-.09.011.009.024.026.034.034.143.115.312.331.47.594.002.006.006.015.011.021.073.124.143.259.21.398.019.045.036.092.056.137.045.107.09.214.126.321.028.081.043.16.062.239.019.077.045.154.056.227.017.096.015.184.017.272.002.053.011.109.009.158-.009.098-.041.182-.073.263-.011.028-.011.064-.026.092-.058.1-.139.182-.25.237-.346.171-2.283-1.253-2.894-1.249-.616.004-1.043.492-1.774.349-.722-.141-1.33-.068-2.039.105-.883.216-3.035.528-3.284,1.148-.697,1.744-3.236,5.951-2.146,7.782.52.874,3.886-.135,4.897-.263Z" style="fill: #bdbcbc; stroke-width: 0px;"/>
          <path d="M149.659,81.293c.462-.111.922-.231,1.383-.338-1.298-.637-2.617-1.234-3.946-1.8-.137-.053-.276-.105-.411-.163-.086-.034-.173-.066-.259-.1-.953-.393-1.907-.787-2.875-1.139-.002.006-.002.009-.004.013-.257,1.08-.77.207-1.283-.034-.28-.132-.586-.295-.896-.457-.445-.233-.915-.477-1.404-.701l-.004-.002c-1.05-.481-2.181-.851-3.305-.69,1.257,1.723,4.797,3.375,3.835,6.005-.646,1.766-1.349-.105-1.835-.601-1.248-1.278-3.063-1.725-4.391-3.053-.066.351-.096.71-.109,1.069,0,.013-.002.023-.002.036-.009.329-.002.658.011.985.069,1.996.389,3.9-1.443,4.851,0,0,.379.091.496.067,3.435-.711,6.837-1.558,10.235-2.414,2.042-.511,4.081-1.022,6.127-1.514.026-.006.053-.013.079-.019Z" style="fill: #bdbcbc; stroke-width: 0px;"/>
          <path d="M116.244,224.979h.013c-.077-.066-.152-.135-.229-.201l-12.45-11.582c-.44-.246-1.327-.419-1.656-.5-1.649-.417-3.28-.898-4.889-1.443-6.073-2.057-11.837-5.013-17.053-8.741-10.389-7.42-18.519-17.857-23.126-29.766-10.357-26.779-1.576-58.014,21.108-75.569-7.307.18-15.041,5.274-21.138,8.812-2.101,1.221-3.127,2.097-4.376,4.183-1.024,1.712-1.98,3.465-2.865,5.252-1.935,3.912-3.532,7.989-4.765,12.174-4.348,14.761-4.092,30.792.753,45.399,8.598,25.912,31.234,45.705,58.08,50.708,4.152.776,8.37,1.199,12.593,1.274Z" style="fill: #bdbcbc; stroke-width: 0px;"/>
          <path d="M103.525,85.102c-2.7-.421-1.402-3.461-2.261-5.174-1.637,1.452-3.256,1.999-3.955,4.318,1.041.248,5.292,1.203,5.292,1.203.218-.034.726-.267.925-.348Z" style="fill: #bdbcbc; stroke-width: 0px;"/>
          <path d="M182.393,188.642c15.092-24.657,14.633-56.746-1.191-80.974-6.817-4.115-15.719-9.1-22.985-10.432,22.604,17.572,31.333,48.753,21.014,75.483-4.594,11.899-12.705,22.331-23.071,29.753-5.205,3.728-10.956,6.689-17.019,8.748-1.338.455-2.691.866-4.055,1.231-2.328.626-3.19,1.37-4.923,3.089-3.301,3.275-6.741,6.407-10.289,9.413,25.424-.751,49.245-14.624,62.518-36.312Z" style="fill: #bdbcbc; stroke-width: 0px;"/>
          <path d="M95.485,83.809c.289.073.575.154.866.225-.068-.235-.103-.464-.137-.693-.011-.077-.036-.156-.045-.231-.028-.265-.028-.524-.017-.78.002-.036-.004-.077-.002-.113.109-1.761,1.045-3.369,1.963-4.895-1.324-.25-2.927-.1-4.085.427-.056.026-.115.06-.177.103-.932.637-2.49,2.957-1.868-.214v-.004c-2.659.958-5.27,2.059-7.803,3.313,1.83.41,3.645.881,5.459,1.357,1.948.511,3.895,1.02,5.847,1.505Z" style="fill: #bdbcbc; stroke-width: 0px;"/>
        </g>
        <g>
          <path d="M110.298,95.988c.01-.068.037-.248-.317-.438-.231-.123-.571-.221-.985-.283l-.228-.034-.159,1.06.348.052c.574.086,1.273.094,1.34-.357Z" style="fill: #00773d; stroke-width: 0px;"/>
          <path d="M79.574,95.949c8.876,2.116,17.844,3.955,26.863,5.351,3.868.6,7.521,1.005,11.235,1.029v-4.071c-.061.003-.122.007-.185.008-.016,0-.031,0-.047,0-.763,0-1.416-.194-1.891-.562-.48-.372-.748-.906-.754-1.502l-.032-3.232,1.364-.014.03,3.034c.004.368.091.65.259.839.208.234.571.348,1.06.344.07,0,.132-.008.196-.013v-8.723c-6.521-.05-12.914-1.153-19.437-2.631-4.5-1.018-8.966-2.185-13.44-3.311-3.754-.938-6.528-.884-10.239.216-13.728,4.069-29.516,12.176-42.665,20.652,3.688.308,7.377.616,11.065.924-.415,3.207-.829,6.413-1.244,9.62,5.947-4.036,12.055-7.869,18.378-11.294,5.267-2.852,13.156-7.813,19.486-6.663ZM107.876,91.98l1.061.159c.757.113,1.316.286,1.709.527.547.336.79.823.702,1.409-.043.286-.213.549-.455.737.524.337.829.879.748,1.415-.12.798-.863,1.248-1.996,1.248-.237,0-.491-.02-.76-.06l-1.783-.267.774-5.168ZM103.497,91.141l1.338.264-1.013,5.126-1.338-.264,1.013-5.126ZM96.347,89.618l1.235.27c.542.118,1.217.266,1.738.622l.003.002c.563.395.835.992.711,1.557-.147.673-.761,1.114-1.567,1.173l1.664,2.55-1.733-.379-1.423-2.283-.412,1.882-1.332-.291,1.116-5.103ZM87.203,90.939l.673-3.163,1.334.283-.632,2.969c-.076.36-.053.654.07.875.153.274.475.464.96.567.885.188,1.356-.089,1.528-.899l.632-2.968,1.334.283-.673,3.163c-.212.999-1.068,1.582-2.225,1.582-.261,0-.536-.03-.824-.091-.766-.163-1.378-.498-1.769-.97-.388-.468-.533-1.047-.408-1.631ZM81.805,86.71l1.347.216-.658,4.091,1.964.315-.172,1.067-3.31-.531.83-5.159ZM74.219,86.189l1.212.016c1.357.017,2.912.222,2.894,1.663-.007.565-.299,1.009-.844,1.284-.434.219-1.028.331-1.743.321l-.195-.002-.025,1.96-1.364-.018.066-5.224ZM64.487,89.394l.502.957-2.391,1.255.354.674,2.322-1.219.503.956-2.323,1.219.568,1.08,2.391-1.255.503.957-3.599,1.889-2.429-4.624,3.599-1.889Z" style="fill: #00773d; stroke-width: 0px;"/>
          <path d="M109.746,94.237c.187-.05.275-.152.305-.35.037-.244-.011-.495-.984-.648l-.148.992c.257.036.595.069.827.006Z" style="fill: #00773d; stroke-width: 0px;"/>
          <path d="M98.748,91.813c.029-.135.022-.315-.3-.51-.221-.134-.547-.249-.996-.35l-.245,1.119c1.256.272,1.484.005,1.542-.259Z" style="fill: #00773d; stroke-width: 0px;"/>
          <path d="M77.013,87.839c.003-.231-.145-.538-1.444-.564l-.014,1.127c.311.002.756-.006,1.076-.118.333-.117.38-.291.382-.445Z" style="fill: #00773d; stroke-width: 0px;"/>
        </g>
        <g>
          <path d="M203.379,103.363c-12.912-8.331-26.974-16.04-41.859-20.155-2.394-.661-5.417-1.834-7.923-1.407-2.336.4-4.643,1.035-6.937,1.629-6.928,1.796-13.859,3.519-20.963,4.502-2.885.4-5.725.547-8.544.502v8.72c.1.012.206.019.321.018.904-.009,1.304-.383,1.295-1.21l-.03-3.034,1.363-.014.032,3.233c.012,1.251-1.053,2.102-2.65,2.118-.016,0-.031,0-.047,0-.099,0-.19-.012-.285-.019v4.073c2.434.038,4.888-.081,7.44-.418,6.356-.84,12.667-2.01,18.945-3.292,3.886-.795,7.767-1.637,11.627-2.548,3.26-.772,6.858.577,9.862,1.747,10.111,3.94,19.511,10.03,28.453,16.106-.406-3.209-.813-6.42-1.219-9.628,3.705-.308,7.412-.616,11.116-.924ZM125.753,97.628c-.141.019-.28.028-.416.028-.992,0-1.809-.481-2.058-1.249l-.087-.269,1.385-.398.037.321c.013.114.073.213.178.295.203.159.535.226.888.18.511-.067.889-.406.843-.755-.038-.286-.43-.406-1.007-.498l-.467-.077c-.543-.092-1.67-.283-1.794-1.224-.059-.449.145-.879.576-1.211.365-.281.867-.475,1.414-.547.809-.106,1.514.092,1.99.558l.255.249-1.092.648-.15-.138c-.233-.215-.488-.282-.878-.23-.216.028-.436.112-.587.223-.072.053-.191.159-.176.271.007.049.08.217.758.31l.484.068c.873.126,1.893.401,2.027,1.421.129.979-.784,1.85-2.122,2.025ZM138.404,95.498c-.256.048-.504.072-.741.072-.474,0-.903-.096-1.265-.286-.538-.282-.895-.761-1.005-1.347l-.598-3.177,1.341-.253.561,2.982c.068.362.203.624.402.78.246.193.616.245,1.104.154.888-.168,1.216-.605,1.063-1.419l-.561-2.982,1.34-.253.598,3.177c.231,1.229-.669,2.254-2.238,2.55ZM145.422,94.085l-1.345.229-.96-5.638,5.465,2.8-.534-3.137,1.344-.229.955,5.608-5.464-2.8.539,3.167ZM157.819,92.04c-.455.411-1.108.656-1.889.707-.097.006-.192.009-.285.009-1.441,0-2.44-.749-2.517-1.922l-.212-3.227,1.361-.089.198,3.028c.055.826.482,1.17,1.383,1.109.901-.059,1.279-.454,1.225-1.28l-.199-3.028,1.361-.089.212,3.227c.039.595-.187,1.147-.638,1.555ZM168.333,94.887l-1.351-.42.163-2.76-2.682,2.341-.881-3.45-1.431,2.366-1.352-.42,3.26-5.096,1.098,4.366,3.381-2.974-.206,6.045Z" style="fill: #e30613; stroke-width: 0px;"/>
          <g>
            <path d="M108.04,188.999c-2.089-.806-2.134.023-3.713,1.603-1.736,1.734-3.472,3.47-5.208,5.204-.387.387-.776.776-1.163,1.163-.148.148,3.13,3.927,3.457,4.312,3.108,3.658,6.417,7.144,9.895,10.456,1.612,1.535,3.26,3.034,4.942,4.494.729.633,1.067,1.298,1.635,1.248v-26.681c-3.371-.004-6.738-.595-9.846-1.797Z" style="fill: #e30613; stroke-width: 0px;"/>
            <path d="M92.969,173.883s-.947-2.48-1.268-3.82c-.571-2.394-.707-4.883-.509-7.333.408-5.021,1.856-9.977,4.712-14.124,1.368-1.984,3.001-3.799,4.906-5.28,1.439-1.122,4.053-3.091,6.332-3.091,3.039-2.227,6.933-2.94,10.744-2.848v-10.237c-7.03-.011-14.033-1.085-20.903-2.516-6.975-1.454-14.028-3.132-20.822-5.319-4.096,20.176,1.234,42.721,10.736,60.643,1.864-1.866,6.071-6.075,6.071-6.075Z" style="fill: #e30613; stroke-width: 0px;"/>
          </g>
        </g>
        <g>
          <path d="M142.271,139.864l-.606.606,3.228,3.228.814-.814c1.588-1.588,2.278-2.507.737-4.048-1.435-1.435-2.987-.158-4.173,1.029Z" style="fill: #0069b4; stroke-width: 0px;"/>
          <path d="M141.474,134.984c-1.523-1.523-2.441-.643-4.189,1.104l2.946,2.946c1.147-1.172,2.617-2.676,1.243-4.05Z" style="fill: #0069b4; stroke-width: 0px;"/>
          <path d="M160.63,124.706c-.19-1.809-.532-3.685-.904-5.466-2.794.876-5.624,1.707-8.463,2.427-2.003.509-6.474,1.705-6.474,1.705-.344.205-9.455,9.461-13.82,13.824-12.899,12.897-25.798,25.796-38.7,38.693-1.501,1.501-3.43,3.43-4.93,4.93,0,0,1.029,1.844,1.6,2.834,2.529,4.385,5.353,8.598,8.433,12.615,2.931-2.926,5.964-5.778,8.79-8.807,8.698-8.679,17.375-17.38,26.065-26.065,6.206-6.202,12.41-12.403,18.616-18.602,2.751-2.751,5.502-5.5,8.254-8.252.582-.579,2.152-2.15,2.152-2.15-.184-3.039-.186-3.566-.62-7.686ZM106.609,185.652c-1.635,1.635-3.869,2.063-5.862.976l.811-2.201c.374.289,1.054.417,1.545.421.721.005,1.439-.349,2.015-.925,1.016-1.016,1.014-2.152-.027-3.193-.613-.613-1.607-.697-3.168-.087l-1.439.496c-2,.685-3.727.875-5.319-.716-1.701-1.701-1.248-4.337.657-6.241,1.341-1.341,2.931-1.57,4.669-1.159l-.666,2.102c-.979-.204-1.785-.062-2.509.662-.781.781-1.061,2.123-.349,2.835.494.494,1.38.74,2.783.259l1.22-.45c1.943-.746,4.093-1.455,5.984.436,1.96,1.96,1.848,4.593-.345,6.786ZM116.797,175.076c-.526.526-1.379.526-1.905,0-.526-.526-.526-1.379,0-1.905.526-.526,1.379-.526,1.905,0s.526,1.379,0,1.905ZM124.303,167.368l-10.723-10.723,1.916-1.916,9.042,9.042,3.722-3.722,1.68,1.68-5.638,5.638ZM137.003,154.87c-.526.526-1.379.526-1.905,0-.526-.526-.526-1.379,0-1.905.526-.526,1.379-.526,1.905,0s.526,1.379,0,1.905ZM147.397,144.274l-2.879,2.879-10.723-10.723,2.151-2.151c3.067-3.067,4.647-3.869,7.293-1.223,1.173,1.173,1.144,2.457.642,3.475.789-.473,2.467-1.406,4.451.578,2.345,2.345,2.131,4.098-.936,7.165ZM158.105,133.768c-.526.526-1.379.526-1.905,0s-.526-1.379,0-1.905c.526-.526,1.379-.526,1.905,0,.526.526.526,1.379,0,1.905Z" style="fill: #0069b4; stroke-width: 0px;"/>
        </g>
        <g>
          <path d="M128.26,160.05l1.68,1.68-5.638,5.638-10.723-10.723,1.916-1.916,9.042,9.042,3.722-3.722ZM100.97,178.431l-1.22.45c-1.403.481-2.289.234-2.783-.259-.712-.712-.433-2.054.349-2.835.724-.724,1.53-.867,2.509-.662l.666-2.102c-1.738-.411-3.328-.182-4.669,1.159-1.904,1.904-2.358,4.54-.657,6.241,1.592,1.592,3.319,1.401,5.319.716l1.439-.496c1.561-.61,2.555-.525,3.168.087,1.041,1.041,1.043,2.177.027,3.193-.576.576-1.293.929-2.015.925-.491-.004-1.171-.131-1.545-.421l-.811,2.201c1.992,1.087,4.227.659,5.862-.976,2.193-2.193,2.305-4.825.345-6.786-1.891-1.891-4.041-1.181-5.984-.436ZM114.892,173.171c-.526.526-.526,1.379,0,1.905s1.379.526,1.905,0,.526-1.379,0-1.905-1.379-.526-1.905,0ZM135.099,152.965c-.526.526-.526,1.379,0,1.905s1.379.526,1.905,0,.526-1.379,0-1.905c-.526-.526-1.379-.526-1.905,0ZM156.2,131.863c-.526.526-.526,1.379,0,1.905s1.379.526,1.905,0,.526-1.379,0-1.905-1.379-.526-1.905,0ZM148.333,137.109c2.345,2.345,2.131,4.098-.936,7.165l-2.879,2.879-10.723-10.723,2.151-2.151c3.067-3.067,4.647-3.869,7.293-1.223,1.173,1.173,1.144,2.457.642,3.475.789-.473,2.467-1.406,4.451.578ZM137.285,136.089l2.946,2.946c1.147-1.172,2.617-2.676,1.243-4.05-1.523-1.523-2.441-.643-4.189,1.104ZM146.445,138.835c-1.435-1.435-2.987-.158-4.173,1.029l-.606.606,3.228,3.228.814-.814c1.588-1.588,2.278-2.507.737-4.048Z" style="fill: #ffd500; stroke-width: 0px;"/>
          <g>
            <path d="M97.086,169.757c-2.157-1.024-3.993-3.478-4.917-5.626-.049,2.916.399,6.262,1.614,8.942,1.129-1.133,2.175-2.183,3.303-3.316Z" style="fill: #ffd500; stroke-width: 0px;"/>
            <path d="M96.444,168.26c.061.05.126.097.193.139l1.112.697c.778-.748,2.988-3.003,3.766-3.751-2.696-7.42-1.582-18.336,4.357-23.99-6.537,2.619-12.134,10.447-13.108,17.316-.535,3.781.745,7.155,3.681,9.589Z" style="fill: #ffd500; stroke-width: 0px;"/>
            <path d="M126.916,139.935c-7.042-1.394-10.672,4.051-10.291,10.296l10.291-10.296Z" style="fill: #ffd500; stroke-width: 0px;"/>
            <path d="M122.311,138.935c-2.165-.988-7.119-.556-9.387-.137-3.29.605-5.983,2.452-7.969,5.122-4.316,5.804-4.628,13.927-2.7,20.693,4.515-4.521,9.03-9.045,13.545-13.566-1.029-5.415,1.674-10.52,6.512-12.112Z" style="fill: #ffd500; stroke-width: 0px;"/>
            <path d="M122.568,172.344c-3.474,3.478-6.946,6.958-10.419,10.436,2.486,0,5.049-.535,7.232-1.755,3.69-2.063,5.043-4.846,3.187-8.681Z" style="fill: #ffd500; stroke-width: 0px;"/>
            <path d="M134.33,182.541c3.033-6.31-.015-13.047-3.647-18.342-2.456,2.467-4.915,4.934-7.371,7.401,2.683,4.741,3.547,15.232-2.018,18.064,4.492-.15,11.093-3.08,13.036-7.123Z" style="fill: #ffd500; stroke-width: 0px;"/>
            <path d="M119.857,189.281c4.618-1.439,4.806-7.454,4.297-11.435-2.692,4.008-6.683,5.592-11.168,5.879-1.969.126-2.005.231-3.363,1.589-.793.795-1.586,1.588-2.379,2.383,4.327,1.225,8.019,3.014,12.612,1.584Z" style="fill: #ffd500; stroke-width: 0px;"/>
            <path d="M135.505,182.258c2.41-1.09,4.387-4.327,5.432-6.417,1.986-3.972,2.343-7.811.62-11.956-.859-2.074-1.945-4.149-3.499-5.791-.921-.97-.713-.563-.713-.563-1.61,1.612-4.347,4.352-5.957,5.963,3.997,4.795,6.736,12.73,4.117,18.765Z" style="fill: #ffd500; stroke-width: 0px;"/>
            <path d="M141.466,153.403c-1.124,1.122-2.249,2.247-3.373,3.369,2.779,2.717,4.97,6.798,5.426,10.663,1.133-3.762-.139-10.612-2.052-14.032Z" style="fill: #ffd500; stroke-width: 0px;"/>
          </g>
          <g>
            <path d="M139.717,81.639c.284-.776.056-1.552-.402-2.21-1,.686.192,1.33.402,2.21Z" style="fill: #ffd500; stroke-width: 0px;"/>
            <path d="M96.966,83.345c.227-.904.652-1.599,1.296-2.275-1.187-1.764-1.426,1.447-1.296,2.275Z" style="fill: #ffd500; stroke-width: 0px;"/>
            <path d="M124.744,72.118c-2.83,2.001,1.992.938,2.176,1.007.496.186.787,1.242,1.325,1.652.567.432,1.612.372,2.012.902.866,1.146.718,3.106,1.251,4.457,1.082,2.756,2.732-.447.846-.306.222-.477.49-.864.86-1.249-1.507.509-1.407-.832-.145-1.201-.626-.791-.22-1.405.59-1.206.365.09,1.25,1.159,1.552,1.454.47.46,3.576,3.442,2.66.799-.906.834-1.772-.145-.765-.949-.494-.167-1.088.537-1.497.056-.363-.43.376-.791.304-1.182-.261-1.398-.853-1.552,1.21-1.257.761.107,2.946,1.099,3.292.205.342-.881-.748-1.541-1.445-1.828-.073,2.446-1.28-.073-1.655-.453.156.616-.233,1.642-1,1.155-.286-.182.073-.909-.051-1.108-.306-.485-.547-.793-1.005-1.15-1.562-1.219-2.535-1.83-3.596-3.698-1.838-.036-2.683.338-3.86,1.706-.714.829-1.167,2.98-2.3,1.496.413.915-.12,2.029-.757.697Z" style="fill: #ffd500; stroke-width: 0px;"/>
            <path d="M131.405,67.273c-.543-.607-1.729-.445-2.347.197.785-.244,1.55-.056,2.347-.197Z" style="fill: #ffd500; stroke-width: 0px;"/>
            <path d="M132.855,84.435c.648-.684.923-1.586.706-2.506-.374-.03-.688.034-1.001.257.535.635.4,1.471.295,2.249Z" style="fill: #ffd500; stroke-width: 0px;"/>
            <path d="M141.666,75.269c-1.043-.071,1.144,1.702,1.257,1.804-.051-.579-.539-1.755-1.257-1.804Z" style="fill: #ffd500; stroke-width: 0px;"/>
            <path d="M103.025,83.79c-.12-.787.186-1.492.295-2.257-1.616-.385-1.11,1.661-.295,2.257Z" style="fill: #ffd500; stroke-width: 0px;"/>
            <path d="M129.233,65.542c-.081.222-.15.445-.034.731.721-.227,2.022.239,1.98-.731-.049-1.129-1.505-.489-1.945,0Z" style="fill: #ffd500; stroke-width: 0px;"/>
            <path d="M92.699,78.377c.404-.665.902-1.285,1.603-1.646-.013-.321-.156-.673-.295-.958-.8.551-1.522,1.601-1.308,2.604Z" style="fill: #ffd500; stroke-width: 0px;"/>
            <path d="M173.249,23.065c-1.306.021-1.689.254-2.95.902-.799.411-2.095.535-2.993.496,1.747,1.691,5.834,3.012,8.188,3.271,5.412.998,13.061-.654,16.178-5.627-1.742.601-3.837.494-5.656.411-1.71-.077-5.52-1.732-6.753-.676-1.753,1.503-3.927,1.191-6.014,1.223Z" style="fill: #ffd500; stroke-width: 0px;"/>
            <path d="M160.936,27.721c-1.144,1.747,6.385,3.991,7.839,4.126,3.433.321,6.941-.295,9.494-2.779-3.38-.135-6.417-.928-9.508-2.347-.671-.308-1.401-.663-1.974-1.127-.808-.654-1.257-.167-2.187.152-.618.21-1.747.133-2.262.419-.457.254-.928,1.191-1.402,1.556Z" style="fill: #ffd500; stroke-width: 0px;"/>
            <path d="M84.046,15.703c-5.167-3.758-18.827-4.222-24.959-4.513-12.89-.612-19.062,0-32.256-.138,2.82,5.323,7.106,6.571,12.861,6.19,2.723-.18,5.389-.59,8.036-1.261,1.161-.295,2.313-.494,3.467-.845,1.319-.402,2.065.637.556.962-1.462.316-3.448.128-2.593,1.862.378.767,1.827,1.569,2.606,1.815,2.26.712,4.776.515,6.98-.327,1.293-.494,2.548-1.052,3.797-1.648.547-.261,2.411-1.234,1.881.259-.186.522-3.091,1.548-3.6,1.761-1.25.524-2.568.898-3.861,1.296,3.164,2.212,8.04.4,11.082-1.137.489-.248,2.33-1.627,2.792-1.569,1.387.177-.011,1.249-.598,1.646-1.843,1.246-4.149,1.947-6.204,2.753,2.615,3.04,7.057.992,9.851-.688,1.759-1.06,2.698-.537.701.847-1.37.949-3.021,1.603-4.506,2.351,3.089,2.358,7.168-1.231,10.261-1.706.092,1.749-4.808,2.792-6.007,3.395,1.845,3.598,7.241-1.206,9.517-.389-.485,2.095-5.24,2.482-6.956,2.698,2.599,2.039,6.161.992,9.064.547,2.593-.396.954.891-.662,1.257-1.708.387-3.367.447-5.109.5,1.31,2.869,5.477,2.399,7.918,1.71.641-.18,1.268-.547,1.933-.547,1.086,0,.092,1.035-.406,1.219-1.505.551-3.119,1.015-4.729.979.676,1.554,3.044,2.146,4.581,2.146,1.512,0,3.352-1.693,4.714-1.009-.351,1.328-2.484,1.616-3.587,2.061,1.169,1.905,3.737,1.881,5.601,1.103.985-.41,1.691-1.565,2.285-.331.667,1.389,1.644.707,2.548,1.454.877.723-.96.985-1.451.831-.616-.192-1.623-1.432-2.027-1.325-2.014.537-3.649,1.582-5.813.682-1.035-.432-1.317-1.276-2.093-1.858-.684-.513-1.686-.535-2.734-.887-1.024-.342-2.168-.977-2.702-1.943-.631-1.139-1.114-1.005-2.394-1.328-2.196-.551-4.147.889-6.356,1.436-2.232.554-4.29.778-6.58.964,3.102,3.277,8.786,1.498,12.474.536.624-.162,1.96-.994,2.266-.126.287.817-1.62,1.227-2.17,1.394-2.074.633-4.28.855-6.413,1.197,2.531,1.189,4.344.829,7.061.528.63-.068,1.139-.528,1.764-.528.68,0,1.475.669.513,1-1.298.447-2.593.729-3.938,1.005,2.018,2.523,4.299,1.103,6.747.757,1.306-.184,2.044.387.511,1.084-1.052.479-2.178.962-3.346,1.011,1.047,2.373,4.19,2.072,5.988.928,2.08-1.321,1.648-.77,3.803-.026,1.387.479,2.909.357,4.16-.398.633-.383.861-1.355,1.757-.977.652.276,1.334.203,2.027.25.921.062.021.917-.46,1.007-.622.118-1.165-.113-1.766-.028-1.078.154-1.888,1.364-3.269,1.496-1.21.118-2.437-.03-3.549-.537-1.695-.774-1.934.513-3.626.945-1.385.355-2.871.472-4.177-.242-1.451-.793-1.631-2.412-3.061-2.766-1.135-.282-2.287-1.028-2.848-2.076-.562-1.052-3.722-.272-4.547.149-1.075.547-2.279,1.11-3.429,1.482-2.837.919-5.466,1.278-8.446,1.052.851,1.234,2.668.686,3.275,1.522.304.419.2.954.476,1.652.211.534.614.889,1.16,1.076,1.738.592,2.486-.857,3.427-1.96.812-.951.677.656.581,1.002-.166.607-.915,1.206-1.398,1.565,1.351,1.394,3.487-.308,4.423-1.358,2.08-2.328,1.024,1.086-.532,2.149,1.642,1.082,3.324.023,4.656-1.005,2.219-1.712,1.788.163.21,1.458,1.454,1.227,3.739-.291,4.821-1.377.438-.438,2.276-1.501,1.387-.077-.304.485-1.864,1.845-1.682,2.174.821,1.49,2.982.064,3.722-.793.398-.462.876-1.744,1.484-1.699.87.064.99,1.462,1.759,1.873,2.58,1.381,2.762-1.428,4.521-1.644.592-.073,1.218.65,1.879.72.654.071,1.45.103,2.052-.184,1.321-.628,2.884-1.911,3.884-2.999,1.02-1.11.729-2.956,1.3-4.506-1.077.635-2.042,1.845-2.099-.15-.032-1.09,1.007-2.567,1.749-3.309.594-.594,3.023-1.204,2.069-.391-.849.727-1.657,1.576-2.134,2.601.537-.261,2.185-1.287,2.54-.558.261.537-.62,1.165-.812,1.714-.259.735-.9,1.986-.71,2.79.275,1.165.491.808,1.569,1.15,1.09.346-1.306.851-1.601,1.088-.622.502-1.484.648-2.159,1.182-1.458,1.15-2.409,2.837-2.816,4.643,1.202-1.135,2.45-.994,1.783.774-.488,1.287-.808,2.557-.731,3.938,2.911-2.343,1.849,2.095,3.553,3.352,2.236-2.647,4.354-1.911,6.058,1.009.487-1.385.355-3.352,2.351-1.86,1.024.765,1.915,2.454,2.108,3.66,2.168-.885,1.687-4.297,1.154-6.056-.186-.607-1.994-2.61-.607-2.61,1.107,0,1.633,1.982,1.843,2.758.526,1.941.799,5.229-1.238,6.447-1.126.673-1.377,1.439-2.319.107-.308-.434-.357-1.484-.721-2.065-.297-.475-.652-.919-1.028-1.334-.177,1.265-.795,3.106-2.296,1.997.177,1.499-.406,3.16-.701,4.624-.361,1.789,1.251,2.112,2.51,2.627.78.318,2.576,2.014,3.153,1.561,1.744-1.373,2.125-.806,3.393.945,1.362-1.225,1.781-2.745,3.484-1.079.714.695,3.025-1.482,3.681-1.922,1.428-.96,2.486-1.492,2.589-3.35.075-1.368-.158-2.711-.387-4.055-.115,1.911-1.751.372-2.463-.308-.124.455-.526,2.869-1.37,1.96-.598-.643-1.116-1.345-1.206-2.243-.171-1.738-.293-3.339.16-5.047.483-1.806,2.343-2.762,1.216-.218-.564,1.276-.834,4.312.015,5.462-.036-1.958,1.881-.761,2.737-.107,1.317-2.593,4.927-4.607,6.807-1.103,1.287-2.099,3.147-2.279,4.87-.753.821-1.872.143-3.074-.509-4.754-.804-2.074.607-1.608,2.258-.847-.141-2.537-1.103-5.932-3.459-7.307-1.065-.62-2.473-.772-3.662-1.097-.77-.212.079-.831.564-.787.534.049,1.073.182,1.601.28-.235-1.456-.964-2.929-1.159-4.314-.12-.851-.752-.746.355-1.197.505-.205,1.36.348,1.954.256-.99-1.396-1.958-2.783-3.168-4.002-1.605-1.62-1.928-2.277.761-2.211-.789-1.037-2.954-1.958-3.446-2.959-.733-1.492,2.016-1.498,3.203-1.65-.969-1.332-2.189-2.749-3.707-3.47-2.698-1.283.857-1.93,2.056-1.982-.797-1.702-1.992-2.221-3.262-3.403-1.546-1.441-.351-2.119,1.497-2.36-1.561-1.732-3.16-3.091-5.582-3.393-1.558-.192-4.265-1.563-1.806-3.003-1.133-.494-2.27-.417-3.467-.567-1.176-.145,1.047-2.095,1.505-2.345-1.14-.389-2.452-.584-3.653-.481-.575.049-1.43.145-1.302-.671.09-.571,1.003-.524,1.497-.9-2.91.068-5.5-1.319-8.102-2.45-1.498-.652-5.99-2.721-7.362-.757-.274.393.393,1.443-.201,1.761-.68.365-.748-.609-.748-.983,0-1.24-1.552-1.599-2.557-1.774-1.85-.325-6.779.295-6.315,3.202,1.948-1.28,5.592-1.377,7.144.618.923,1.191,1.184,3.301-.479,4.034-1.293.569-2.29-.485-3.51-.748.783,1.537,2.529,2.183,4.025,2.817,1.742.74,2.283,1.606,3.091,3.239.188.38.118,1.597.633,1.424.562-.188,1.394-.879,1.868-.699,1.297.494.44,2.899-.045,3.724,1.52.601,3.226-1.295,2.847,1.635-.199,1.533-1.394,2.895-2.501,3.884,2.67.068,3.923-.996,5.857-2.51.648-.507,1.214-1.242,1.552.201.173.736-.036,1.631-.201,2.352,1.604-.331,2.863-1.466,2.972-3.13.163-2.486,2.343,1.112,2.591,1.83.342-.551.552-2.957,1.392-2.448.75.455.09,2.228-.321,2.792-.385.528-1.537,2.142-2.392,1.516-.65-.475.479-1.689-.291-2.463-.795,1.612-2.189,2.755-3.951,3.155-.63.143-1.614.434-2.118-.071-.393-.393.887-1.516,1.02-2.08-.951.77-3.001,1.167-3.425,2.266-.69,2.482-3.854,5.295-6.588,4.337-2.959-1.037-4.034-3.412-5.763-5.808-.81-1.125-1.079-1.773-3.027-2.664-1.257-.575-2.521-.577-3.373-1.736-.667-.904-1.283-2.62-2.212-3.61-.96-1.02-1.717-1.728-2.85-2.551ZM110.394,9.999c-1.27-.284-1.838-.218-3.11-.15-.8.043-1.986-.073-2.608-.658-.682-.641-.669-2.497-2.061-1.796.526.872,1.353,1.661,1.206,2.749-.994-.079-1.951-1.96-1.874-2.952.088-1.15,2.411-.847,3.213-.573,2.388.81,4.528,2.982,7.225,2.572-.111,1.069-1.152.994-1.99.808ZM124.197,50.244c-.357.28-2.065,2.732-2.065,1.227,0-1.62.393-5.169,2.783-4.853.376.381-1.67,1.933-1.706,3.121.936-.648,2.114-1.475,3.301-1.09-.248,1.054-1.533.983-2.313,1.595ZM133.265,49.8c-.094-.539-.65-1.952-.09-2.157.6-.22.844.911.945,1.4.188,1.396-.365,4.034-1.804,2.505-.494-.524-.443-1.492-1.086-2.099-.549-.517-1.141-.62-1.389-1.398,1.458-.464,2.298,1.308,3.425,1.749ZM130.196,40.791c.534.879.391,1.761.252,2.728-.062.445-.742,2.756-1.349,1.522-.528-1.071-.988-1.749-1.838-2.634-.613-.637-1.58-.391-1.61-1.364,1.558-.13,2.905.847,3.797,2.044.372-.823-.802-3.465.748-2.296ZM128.906,34.575c.659.49.804,1.853.827,2.625.071.481-.068,1.819-.783,1.783-.261-.013-.936-1.396-1.099-1.621-.684-.947-3.079-1.868-2.903-2.877,1.48-.096,2.711,1.268,3.75,2.146.06-.383-.958-2.92.207-2.057ZM126.39,27.734c.365.951.872,2.018.66,3.065-.318,1.574-1.409-.391-1.96-.829-.539-.428-3.237-1.368-1.796-1.804.776-.235,2.185.769,2.698,1.248-.023-.941-1.084-1.612-.492-2.407.361.145.684.389.889.727ZM122.281,22.082c.979-.039,1.706.434,2.616.688-.111-.667-1.988-2.185-.992-2.356.878-.15,1.687,1.364,1.933,1.95.594,3.489-1.637,1.298-3.39.543-.434-.188-.725.301-1.056-.248-.342-.569.5-.562.889-.577ZM119.199,35.477c.876.5,1.699,1.172,2.197,2.061.567-1.27-.498-2.035-.334-3.111.113-.739,1.492,1.858,1.386,2.773-.098.605-.12,3.307-1.276,2.031-.928-1.024-1.362-1.999-2.43-2.959-1.295-1.163-1.125-1.699.458-.795ZM118.485,49.552c.19.56.693,1.924.257,2.497-.772,1.013-1.035-.227-1.505-.603-1.262-1.009-2.054-1.385-3.703-1.548-.13-1.623,2.918-.385,3.758,0-.351-1.285-1.388-1.644-2.108-2.599,1.351-1.003,2.704,1.283,3.301,2.253ZM112.683,30.577c-.287,1.048-1.381,1.509-1.59,2.694,1.144-.299,2.101-1.095,3.386-1.095,1.838,0-1.956,1.462-2.144,1.633-3.47,3.145-2.127-3.247.349-3.232ZM108.779,41.732c.421-1.197,1.403-3.061,2.861-3.053v.547c-.769.799-1.516,1.509-1.911,2.57.821-.372,1.62-.712,2.499-.909.488-.107,2.14.267,1.229.646-1.25.522-2.217.325-3.247,1.436-.417.451-1.065,1.798-1.674.971-.319-.434.058-1.68.243-2.208ZM108.574,48.897c-1.287.718-1.83,1.74-2.3,3.108.971-.306,3.095-1.627,3.66-.355-1.05.363-2.082.575-2.984,1.274-.9.697-1.296,1.761-1.638.128-.28-1.34,2.45-5.817,3.262-4.156ZM106.766,31.218c-.554,1.55-1.862,2.64-2.24,4.365.43-.156,3.016-1.373,2.929-.355-.021.239-2.443,1.533-2.905,1.678-2.969.932.778-7.209,2.217-5.689Z" style="fill: #ffd500; stroke-width: 0px;"/>
            <path d="M41.71,37.163c6.546,2.298,14.644.854,21.613-1.237-1.262-.419-2.159-1.366-3.053-2.302-.363-.381-.996-1.499-1.417-1.499-.59,0-1.206.28-1.789.406-2.749.59-5.682.535-8.482.708-5.627.346-10.036-.083-15.462-1.618,2.535,2.418,5.295,4.324,8.591,5.542Z" style="fill: #ffd500; stroke-width: 0px;"/>
            <path d="M105.312,8.109c-.235-.336-.141-.59-.637-.564.126,1.261,2.692,2.508,2.698.953-.729.259-1.574.263-2.061-.389Z" style="fill: #ffd500; stroke-width: 0px;"/>
            <path d="M189.674,16.679c-1.306-.128-.738-.092-1.606.532-.594.428-1.191,1.069-1.663,1.629-.939,1.11-2.675,1.434-3.985,1.864,4.934,1.561,11.076.624,15.315-2.428.962-.652,1.89-1.332,2.647-2.223-3.275,1.216-7.298.966-10.708.626Z" style="fill: #ffd500; stroke-width: 0px;"/>
            <path d="M106.124,67.62c.616.171,1.257.122,1.894,0-.658-.483-1.347-.633-1.894,0Z" style="fill: #ffd500; stroke-width: 0px;"/>
            <path d="M108.429,64.366c-.115-.652-.875-.799-1.351-.098.427.073.915.15,1.351.098Z" style="fill: #ffd500; stroke-width: 0px;"/>
            <path d="M41.802,21.964c3.211.267,6.623-.173,9.754-.904-1.475-.774-2.815-1.582-3.647-3.066-.804-1.435-2.946-.263-4.412-.049-3.211.466-6.388.614-9.624.331-.263.539,2.512,2.469,3.369,2.839,1.388.599,3.074.727,4.56.848Z" style="fill: #ffd500; stroke-width: 0px;"/>
            <path d="M108.198,66.619c.081-.349.175-.941.188-1.313-.68-.376-1.458-.635-1.659.235-.417,1.107.646.983,1.471,1.077Z" style="fill: #ffd500; stroke-width: 0px;"/>
            <path d="M105.962,68.462c-1.18.549-1.896,3.044-3.031,3.904-1.434,1.086-3.033.613-3.309,2.608-.37-.393-.757-.665-1.223-.846.705,2.024-1.732-.291-2.766.846-1.306,1.434.761,1.571,1.766,1.396.853-.148,3.638-2.234,4.173-1.537.447.584-.87,1.234-1.279,1.52-.615.434-.19,1.131-.235,1.738-.624-.395-.506-.077-1.047-.111.605.321,1.009.799.612,1.398-.387-.346-.855-.351-1.27-.594-.331.992.427,1.469,1.27,1.201.703-.222,1.225-1.501,1.528-2.091.237-.464.729-1.877,1.323-1.877.992,0,.652,1.103.252,1.612.413-.015.836.269,1.248.252-.171.669-.778.654-1.462.599.316.547.156.564.808.753-1.466,1.308-.267,2.17.59.697.571-1.868.772-5.291,3.211-4.953,1.471.203,2.189-.834,3.645-.472,1.186.295,2.762-.84,1.618-1.988-.004.457-.609,1.501-1.03.855-.239-.368-.184-1.002-.321-1.454.124,1.114-.583,1.31-1.099.697-.141-.169.062-.947-.103-1.24-.124-.22-.601-.231-.757-.436-.739-.971-1.372-3.286-3.112-2.475Z" style="fill: #ffd500; stroke-width: 0px;"/>
            <path d="M131.247,60.758c.56,1.447.558,3.213.932,4.784.017.391.199.821.274,1.21.958-.605.485-1.732.898-2.24.596-.737,1.477-.46,2.06.543.406-1.454.86-3.106.393-4.596-.866.641-1.436,2.198-2.465,2.482-.793.218-1.296-1.817-2.093-2.183Z" style="fill: #ffd500; stroke-width: 0px;"/>
            <path d="M27.173,24.155c2.322.118,3.044.252,5.368.126,1.823-.098,6.45-.064,7.963-1.165-3.307-.659-5.731-1.751-7.961-4.361-2.828.398-5.706.848-8.609.925-2.879.077-5.8-.385-8.664-.626,2.681,3.416,7.713,4.887,11.903,5.101Z" style="fill: #ffd500; stroke-width: 0px;"/>
            <path d="M27.028,27.734c4.763,2.392,9.983,4.316,15.349,4.511,4.462.162,10.202.468,14.438-1.026-.932-.498-2.138-1.74-2.555-2.702-.459-1.06-2.565-.962-3.583-1.067-3.061-.319-5.861-2.148-8.719-3.095-1.097-.366-3.568.522-4.767.656-1.539.171-3.1.301-4.647.363-3.125.126-6.215-.143-9.308-.56,1.033,1.116,2.414,2.281,3.792,2.92Z" style="fill: #ffd500; stroke-width: 0px;"/>
            <path d="M185.452,32.933c-2.706-.051-5.447-.872-8.14-.966-2.426-.085-4.46,2.112-6.157,3.809,1.411.526,2.82,1.075,4.301,1.424,9.425,2.15,21.217-.071,28.184-7.037-5.911,2.191-11.907,2.892-18.188,2.77Z" style="fill: #ffd500; stroke-width: 0px;"/>
            <path d="M213.148,22.509c-4.942,1.588-10.022,2.127-15.186,1.484-1.201-.15-2.407-.334-3.568-.678-1.533-.453-1.721-.434-2.713.799-1.3,1.616-3.5,2.835-5.387,3.619-1.522.389-3.175,1.28-4.806,1.103-1.355-.148-2.36,1.336-3.373,2.031,3.021.058,6.031.958,9.096.958,3.41,0,6.725-.314,10.077-.932,5.376-.992,12.713-3.645,15.86-8.384Z" style="fill: #ffd500; stroke-width: 0px;"/>
            <path d="M165.588,37.375c-3.715-.156-7.14-1.657-9.346-4.699-.859,1.794-2.584,2.775-4.468,3.198.342.485.744.936,1.193,1.326,3.051,3.164,9.387,2.837,12.621.175Z" style="fill: #ffd500; stroke-width: 0px;"/>
            <path d="M175.614,42.839c-1.749-.128-3.356-.731-4.96-1.402-1.608-.769-3.061-1.725-4.581-2.646-.316-.192-3.294,1.235-3.846,1.548,1.729,4.316,10.167,5.539,13.387,2.501Z" style="fill: #ffd500; stroke-width: 0px;"/>
            <path d="M28.093,18.276c1.131-.118,2.225-.34,3.339-.564-2.523-1.176-4.679-4.56-6.268-6.692,0,0-15.659-.222-20.995-.222,4.597,7.719,16.326,8.355,23.923,7.478Z" style="fill: #ffd500; stroke-width: 0px;"/>
            <path d="M140.067,28.807c-.646,1.39-2.136,1.766-3.594,2.059-1.206.242-3.198-.034-4.209.502,1.298,1.03,2.548,2.322,3.427,3.726,1.054,1.682-1.056,1.107-1.934.831,1.15,1.155,2.206,2.439,3.05,3.839,1.28,2.119,1.013,3.546-1.55,2.275.036.086.071.173.107.259.304.742.68,3.961,1.225,4.23,1.186.586,2.041,1.315,2.781,2.42.789,1.178,1.058,3.136,2.146,3.442.421.118,1.037-.184,1.599,0,.588.192.663.637,1.458.663,1.37.043,2.367-1.108,2.79-2.255.866-2.345,1.101.068,1.61.853.543.836,3.553,1.836,3.809.291.079-.472-2.328-2.554-.966-3.091.612-.242,1.31,1.685,1.597,2.001.447.494,1.099.703,1.753.793.896.122,3.171-.703,2.548-1.9-.173-.333-.969-2.302-.785-2.552.336-.455,1.131.009,1.208.413.222,1.144.744,2.322,1.815,2.918.53.295,1.706.62,2.275.222.885-.62.235-.844-.175-1.757-.22-.49-1.009-3.679.402-2.369.276.257.319,1.667.637,2.127.438.635.887,1.152,1.588,1.496.915.447,1.832.186,2.666-.344-.53-.445-3.202-3.316-2.099-4.207.56-.453,2.046,2.331,2.394,2.958.75,1.351,3.949-.131,3.138-1.152-1.567-1.974.776-.894,1.668-2.003-2.794.391-5.642-.1-8.085-1.552-.721-.428-2.435-2.636-2.976-2.758-.528-.12-3.324,1.539-3.904,1.8-1.191.539-2.255,1.462-3.596,1.851-.575.167-1.646.017-2.112.308-.257.16-.618,1.107-.921,1.383-1.977,1.8-4.96,1.52-6.924-.19-.847,1.186-3.594,3.162-4.637.879-.597-1.304,2.281-.047,3.033-.597.706-.515.616-1.864,1.539-1.92.289-.017,1.889,1.443,2.364,1.637,1.584.654,3.324.158,4.357-1.24-1.172-.274-2.347-.652-3.112-1.61-1.063-1.327.459-.737,1.047-.502,2.45.979,3.63,1.056,6.204.205-1.46-.241-2.822-.678-4.017-1.59-.329-.25-1.595-1.116-.626-1.62.584-.306,1.392.885,1.804,1.107,2.461,1.317,5.665,1.281,7.845-.551-2.725.297-5.357-.8-7.46-2.461-1.426-1.124-1.109-.729-2.512.201-1.088.725-2.159.663-3.39.455-2.095-.355-.973.436-2.247,1.659-.744.716-2.456.968-3.303.299-1.097-.866-.994-2.843-.051-1.454.677,1,2.244.911,2.95-.051.537-.731-.432-2.537.148-2.912.316-.205,2.114,1.268,2.708,1.436.879.248,2.597-.011,3.204-.774,1.099-1.383-.782-1.296-1.851-1.729-.511-.207-3.499-1.415-1.496-1.789.789-.148,2.809,1.233,3.792,1.312,2.159.175,4.248-.861,5.16-2.852-1.238.188-2.625.22-3.85-.066-1.8-.421-1.729-1.311.15-.969,2.461.447,4.763-.246,6.51-2.035-1.386.229-3.28.256-4.569-.402-.453-.233-1.9-.727-1.828-1.385.071-.637,1.25-.115,1.571.077,2.249,1.353,5.672.889,7.519-.885-1.768.036-3.17-.517-4.746-1.248-.383-.177-1.697-1.193-.53-1.326.537-.06,1.067.451,1.561.656,2.493,1.028,5.62,1.302,8.077-.032-1.726-.532-3.437-1.03-4.958-2.029-.838-.551-.507-1.501.402-.977.725.419,1.422.836,2.196,1.154,1.971.81,6.366,1.868,7.922-.15-1.488-.323-2.542-1.503-3.912-2.08-1.161-.489.25-.9.907-.725.511.137,1.155.836,1.71,1.073,2.525,1.075,6.783,2.929,8.996.231-1.691-.648-3.243-1.396-4.788-2.347-.327-.201-2.501-1.357-1.308-1.855.633-.265,1.639.799,2.127,1.114,3.2,2.069,7.467,3.072,10.695.605.678-.622,1.36-1.201,1.941-1.92-1.287-.348-2.692-.59-3.914-1.139-1.362-.609-1.323-1.783.169-1.099,2.345,1.075,5.325,1.283,7.863,1.533,4.126.406,13.641-.055,15.4-4.899-3.709-.056-7.412.026-11.125.058-12.318.105-24.98-1.12-37.002,1.77-3.078.739-5.748,1.932-8.181,3.967-1.101.919-1.933,2.195-2.681,3.401-.8,1.287-2.309,1.963-3.619,2.777-2.777,1.727-2.877,3.628-4.017,6.081Z" style="fill: #ffd500; stroke-width: 0px;"/>
            <path d="M2.579,10.298l-.153.015.161.242c-.013-.092-.017-.179-.008-.257Z" style="fill: #ffd500; stroke-width: 0px;"/>
            <path d="M219.459,16.814c-5.007.47-9.295.573-14.293-.252-1.007-.167-2.489-.906-3.266-.199-.738.669-1.462,1.449-2.285,2.011-1.969,1.343-3.963,2.339-6.124,3.348,7.576,2.185,18.453,2.499,24.58-3.446.487-.464.936-.964,1.389-1.462Z" style="fill: #ffd500; stroke-width: 0px;"/>
            <path d="M144.566,21.157c-.287.123-.581.265-.873.446-.291.181-.549.368-.786.559.541-.369,1.106-.67,1.659-1.005Z" style="fill: #ffd500; stroke-width: 0px;"/>
            <path d="M172.446,33.078c-4.879.282-9.013-1.167-12.955-4.011-.622,1.058-1.599,1.676-2.707,2.151,2.762,6.14,11.349,6.08,15.661,1.86Z" style="fill: #ffd500; stroke-width: 0px;"/>
            <path d="M228.916,10.624s-9.442.269-14.006.141c-1.648-.047-6.614-.013-6.614-.013-.662.363-1.27,1.594-1.894,2.146-.898.793-1.909,1.443-2.903,2.103,7.183,1.789,20.328,2.144,25.418-4.377Z" style="fill: #ffd500; stroke-width: 0px;"/>
            <path d="M104.773,62.912c-.954,0-1.445-.977-2.048-1.603.086,1.099-.006,2.183.299,3.254,1.734-1.537,1.552-.973,2.035.979.1.212.258.436.41.62.466-1.55,1.039-3.217.804-4.853-.447.526-.827,1.603-1.501,1.603Z" style="fill: #ffd500; stroke-width: 0px;"/>
            <path d="M115.377,75.217c-.032-.838-.443-1.633-1.283-1.898-.825,1.103.583,1.312,1.283,1.898Z" style="fill: #ffd500; stroke-width: 0px;"/>
            <path d="M121.798,74.422c.665-.308,1.283-.69,1.356-1.445-.721.192-1.266.695-1.356,1.445Z" style="fill: #ffd500; stroke-width: 0px;"/>
            <path d="M107.373,63.062c.526.654,1.684.124,1.552-.718-.297-.519-.733-.97-1.244-1.283-.199.387-.609,1.627-.308,2.001Z" style="fill: #ffd500; stroke-width: 0px;"/>
            <path d="M129.199,64.319c.594-.021,1.171-.154,1.71-.402-.592-.635-1.332-.318-1.71.402Z" style="fill: #ffd500; stroke-width: 0px;"/>
            <path d="M128.528,61.525c-.113,1.721.804,1.398,2.031,1.289-.034-.761-.126-1.58-.541-2.232-.342-.534-1.456.423-1.49.943Z" style="fill: #ffd500; stroke-width: 0px;"/>
            <path d="M176.46,38.388c-2.805-.507-6.157-2.719-8.748-1.188-2.035,1.129,2.399,2.871,3.418,3.254,1.973.739,3.88,1.235,5.975,1.462,3.356.359,8.074-.612,10.312-3.335-3.705.464-7.273.474-10.958-.192Z" style="fill: #ffd500; stroke-width: 0px;"/>
            <polygon points="100.549 59.193 100.55 59.192 100.549 59.191 100.549 59.193" style="fill: #ffd500; stroke-width: 0px;"/>
            <path d="M66.076,25.374c-1.356-.288-2.732-1.212-3.506-2.36-1.565.318-3.215.389-4.755-.107-.665-.214-1.357-.496-1.883-.966-.83-.739-1.627-.214-2.681.041-3.354.802-6.875,1.088-10.306,1.285,6.732,3.921,15.781,4.851,23.13,2.108Z" style="fill: #ffd500; stroke-width: 0px;"/>
            <path d="M73.34,39.979c-2.057-.28-4.631,1.187-6.537,1.873-1.886.68-3.76,1.073-5.734,1.389,4.061,1.439,10.146.776,13.57-2.056-.481-.344-.921-.752-1.3-1.206Z" style="fill: #ffd500; stroke-width: 0px;"/>
            <path d="M73.594,27.898c-1.054-1.114-2.426-.312-3.621-1.231-1.546-1.191-2.516-.302-4.423.145-1.498.353-2.997.673-4.515.921-1.922.355-3.886.349-5.823.192,2.065,2.294,4.015,3.226,7.161,3.574,3.48.387,7.112-.051,10.505-.96.708-.188,1.999-.334,2.317-1.039.194-.434-1.163-1.139-1.601-1.603Z" style="fill: #ffd500; stroke-width: 0px;"/>
            <path d="M60.92,32.574c1.828,3.004,6.105,3.412,9.271,3.217,2.234-.137,4.305-.727,6.443-1.338.844-.242,1.789-.566,2.537-1.041.881-.562-.032-.922-.184-1.791-1.733-.81-2.569-.986-4.348-.402-1.415.464-2.869.77-4.346.936-3.136.353-6.208.975-9.374.419Z" style="fill: #ffd500; stroke-width: 0px;"/>
            <path d="M70.287,39.226c-.654-.321-1.332-.667-1.907-1.118-.359-.28-.821-1.141-1.154-1.319-1.28-.68-2.835.244-4.104.411-4.607,1.255-9.113,1.599-13.814,2.236,6.751,3.651,14.13,3.525,20.98-.209Z" style="fill: #ffd500; stroke-width: 0px;"/>
          </g>
        </g>
        <g>
          <path d="M121.063,34.427c-.164,1.075.9,1.841.334,3.111-.498-.889-1.321-1.561-2.197-2.061-1.582-.904-1.753-.368-.458.795,1.069.96,1.503,1.935,2.43,2.959,1.157,1.276,1.178-1.426,1.276-2.031.107-.915-1.272-3.512-1.386-2.773Z" style="fill: #13100d; stroke-width: 0px;"/>
          <path d="M115.184,47.298c.72.955,1.757,1.315,2.108,2.599-.84-.385-3.889-1.623-3.758,0,1.648.162,2.441.539,3.703,1.548.47.376.733,1.616,1.505.603.436-.573-.066-1.937-.257-2.497-.597-.971-1.95-3.256-3.301-2.253Z" style="fill: #13100d; stroke-width: 0px;"/>
          <path d="M123.209,49.74c.036-1.189,2.082-2.741,1.706-3.121-2.39-.316-2.783,3.232-2.783,4.853,0,1.505,1.708-.947,2.065-1.227.78-.611,2.065-.541,2.313-1.595-1.187-.385-2.364.443-3.301,1.09Z" style="fill: #13100d; stroke-width: 0px;"/>
          <path d="M112.227,40.887c-.878.197-1.678.537-2.499.909.396-1.06,1.142-1.77,1.911-2.57v-.547c-1.458-.009-2.439,1.856-2.861,3.053-.186.528-.562,1.774-.243,2.208.609.827,1.257-.52,1.674-.971,1.03-1.111,1.997-.915,3.247-1.436.911-.378-.742-.752-1.229-.646Z" style="fill: #13100d; stroke-width: 0px;"/>
          <path d="M229.824,9.623c-3.415.023-12.941.083-15.494.064-6.369-.051-12.722.107-19.088.107-6.695,0-13.408-.171-20.103,0-6.633.171-12.963.237-19.27,2.572-2.923,1.084-5.629,2.191-7.64,4.718-.947,1.191-1.742,2.709-2.903,3.57-1.086.808-2.309,1.24-3.328,2.245-1.12,1.105-1.894,2.341-2.409,3.818-.436,1.251-.539,2.349-1.997,2.854-1.787.618-2.328.597-3.54-.763-.996-1.118-1.95-2.163-3.142-3.083.71-.44,3.074.853,2.426-.737-.881-2.161-2.397-3.277-3.889-4.983.695-.272,2.247.355,2.082-.748-.148-.988-1.007-1.832-1.689-2.506-2.039-2.016-4.522-1.83-6.901-3.1.622-.72,1.665-.727,2.561-.65-.148-1.507-3.273-1.832-4.408-2.36.922-.601,3.329-.171,1.899-1.488-.898-.825-2.822-.87-3.946-1.21.218-.231,1.492-1.488,1.146-1.903-.346-.415-1.342.291-1.789.312-1.802.088-3.461-.143-5.135-.838-2.591-1.071-4.88-2.552-8.091-3.121-2.063-.365-3.69,1.04-4.385.606-1.191-.746-2.567-.849-3.938-.849-1.678,0-3.416.458-4.71,1.534-.686.571-2.013,2.616-1.594,3.609.492,1.161,2.42-.349,3.534-.65,1.366-.37,2.995-.37,4.128.65,1.471,1.323.733,3.47-1.317,2.548-.558-.25-1.983-1.672-2.48-1.417-.87.447.028,2.542.458,3.119,1.53,2.057,4.481,1.99,6.071,3.94.695.851.404,2.997,1.163,3.388.479.248,1.86-.421,2.42-.415-.447,1.659-2.477,3.019.066,3.309,1.028.117,1.864-.284,2.033.744.086.526-.892,1.699-1.167,2.078-.761,1.039-3.145,1.892-.735,2.732.432.15,2.578-.321,2.2.393-.481.915-.996,1.642-1.806,2.305-4.267,3.487-7.247-2.165-9.363-5.281-1.419-2.091-3.284-1.815-5.066-3.042-1.436-.99-1.933-3.189-3.149-4.463-4.628-4.849-10.543-5.796-16.912-6.39-6.43-.598-12.869-1.035-19.332-.983-13.513.109-27.063-.089-40.58-.089-1.531,0-7.411-.205-7.878.099-1.67,1.082,4.918,7.773,10.656,8.687.392.738,1.971,2.273,2.678,2.888,1.249,1.086,2.903,1.678,4.391,2.347,1.015.458,1.246,1.146,2.088,1.883,2.352,2.065,4.182,3.374,7.435,4.545,1.549,1.549,3.243,3.485,5.329,4.801,2.557,1.614,5.233,3.095,8.207,3.765,2.116.538,2.96.635,4.211.947,1.17.924,2.426,1.593,3.825,2.101,2.922,1.062,5.982,1.396,8.925,2.322,1.494.468,1.118,1.218,2.142,2.242.782.782,1.871.611,2.544,1.3.759.774.627,1.783,1.836,2.428,1.022.545,2.097.171,2.978.823,1.174.868,2.082.045,3.202.25,1.073.197,1.727,1.097,3.061,1,1.501-.109,1.571-.227,3.053.192,1.033.293,1.817.319,2.82-.066.906-.346,1.338,1.229,2.501,1.229,1.347,0,2.324-.774,3.346-1.548.381-.288.597-1.548,1.088-.735.267.44.464.692.878,1.005,1.005.759,2.243.49,3.352.19.646-.173,1.824-1.58,2.305-1.411,1.227.43,2.328.391,3.673.391-.297,1.27-1.682,5.584.915,3.108.19,1.255-.776,2.625-.41,3.856.29.977,1.753,1.11,1.753,1.099,0,1.248-.086,8.666,2.291,5.798.571,2.063,1.396,2.867-.158,4.812-1.357,1.697-2.539,2.322-4.667,2.832-2.024.488-3.44.911-5.171,2.074-3.529,2.371-8.03,3.493-11.869,5.49-6.725-.586-11.828,2.155-16.463,3.885-5.276,1.969-10.411,4.378-15.432,6.924-7.66,3.88-15.097,8.262-22.228,13.049,4.506.385,9.012.77,13.519,1.154-.485,3.743-.969,7.488-1.454,11.231,3.741-2.627,7.58-5.124,11.467-7.533-14.575,24.096-14.652,55.149-.261,79.319,12.435,20.886,34.516,35.016,58.72,37.408,26.756,2.647,53.482-9.117,69.592-30.649,18.581-24.834,20.336-59.455,4.284-86.048,3.865,2.398,7.679,4.891,11.403,7.503-.468-3.743-.934-7.488-1.402-11.231,4.524-.385,9.047-.77,13.571-1.154-8.203-5.537-16.814-10.524-25.739-14.806-4.758-2.283-9.628-4.365-14.627-6.073-3.72-1.272-8.85-3.472-12.848-3.136-2.246-.449-10.103-4.187-10.853-4.53-.248-.415-.543-.738-.932-1.022-1.569-1.148-2.439-1.811-4.299-2.482-1.68-.605-3.57-1.578-4.658-2.97-1.193-1.524.282-2.343,1.007-3.794.635.776.746,2.788,1.697.554.691-1.62.793-3.318.996-5.051.352.477.786.904,1.265,1.253,1.317-2.174,1.922-5.199.038-7.208.851.348,1.77.949,2.112,1.843.622-.785.592-1.747.521-2.7-.045-.603.458-.718.969-.975.59-.297.596.353,1.135.577.922.383,2.121.353,3.001-.128,1.291-.705,1.317-1.935,2.529-.846,1.054.945,2.578,1.039,3.906.645.511-.152,1.049-.419,1.377-.846.329-.43.922-.024,1.419-.024.708,0,1.508-.284,2.12-.635.228-.131.533-.421.828-.718.237-.238.601-.286.891-.117.553.323,1.374.703,2.686.576,1.251-.121,1.68-.536,2.777-.43,1.447.141,2.105-.096,3.375-.584.904-.346,2.304-.342,3.029-1.223.479-.582.776-1.302.776-2.059,0-.74.857-.588,1.291-1.09.404-.468.425-1.398,1.053-1.596.56-.177,1.099-.415,1.598-.725,1.591-.987,2.201-1.046,4.113-1.213,2.732-.239,5.689-1.088,7.764-2.997.421-.387,1.015-1.511,1.526-1.616.819-.167,1.633-.344,2.447-.532,1.518-.353,2.995-.819,4.453-1.357,2.706-1,5.173-2.58,7.395-4.397,1.159-.947,1.849-2.565,3.215-3.164,1.381-.605,2.681-1.383,3.912-2.251,1.447-1.02,2.608-2.155,3.679-3.559.99-1.296,1.608-1.605,2.929-2.551,1.231-.881,2.232-1.984,3.241-3.106,1.142-1.272,2.243-1.55,3.81-2.172,1.536-.61,4.568-2.536,6.074-4.418.355-.443.032-1.1-.535-1.096ZM4.169,10.798c5.336,0,20.995.222,20.995.222,1.589,2.132,3.745,5.516,6.268,6.692-1.114.224-2.208.447-3.339.564-7.598.876-19.326.241-23.923-7.478ZM15.27,19.055c2.864.242,5.785.703,8.664.626,2.903-.077,5.781-.528,8.609-.925,2.23,2.61,4.654,3.703,7.961,4.361-1.513,1.101-6.14,1.066-7.963,1.165-2.324.126-3.046-.008-5.368-.126-4.19-.214-9.222-1.685-11.903-5.101ZM75.196,29.502c-.319.705-1.61.851-2.317,1.039-3.393.909-7.025,1.347-10.505.96-3.147-.349-5.096-1.281-7.161-3.574,1.937.156,3.901.163,5.823-.192,1.518-.248,3.016-.569,4.515-.921,1.907-.447,2.877-1.336,4.423-.145,1.195.919,2.567.117,3.621,1.231.438.464,1.795,1.169,1.601,1.603ZM78.988,31.62c.152.87,1.065,1.229.184,1.791-.748.474-1.693.799-2.537,1.041-2.138.612-4.209,1.201-6.443,1.338-3.166.194-7.444-.214-9.271-3.217,3.166.556,6.238-.066,9.374-.419,1.477-.167,2.931-.472,4.346-.936,1.779-.584,2.615-.408,4.348.402ZM42.946,23.266c3.431-.197,6.952-.483,10.306-1.285,1.054-.254,1.851-.78,2.681-.041.526.47,1.218.753,1.883.966,1.54.496,3.19.425,4.755.107.774,1.148,2.15,2.071,3.506,2.36-7.35,2.743-16.399,1.813-23.13-2.108ZM41.802,21.964c-1.486-.122-3.172-.25-4.56-.848-.857-.37-3.632-2.3-3.369-2.839,3.236.282,6.413.135,9.624-.331,1.466-.214,3.609-1.385,4.412.049.832,1.484,2.172,2.292,3.647,3.066-3.132.731-6.544,1.171-9.754.904ZM27.028,27.734c-1.379-.639-2.76-1.804-3.792-2.92,3.093.417,6.183.686,9.308.56,1.548-.062,3.108-.192,4.647-.363,1.199-.135,3.671-1.022,4.767-.656,2.858.947,5.658,2.777,8.719,3.095,1.018.105,3.124.006,3.583,1.067.417.962,1.623,2.204,2.555,2.702-4.237,1.494-9.977,1.188-14.438,1.026-5.366-.195-10.586-2.118-15.349-4.511ZM41.71,37.163c-3.296-1.219-6.056-3.125-8.591-5.542,5.426,1.535,9.835,1.965,15.462,1.618,2.8-.173,5.733-.118,8.482-.708.584-.126,1.199-.406,1.789-.406.421,0,1.054,1.118,1.417,1.499.894.936,1.791,1.883,3.053,2.302-6.969,2.091-15.067,3.535-21.613,1.237ZM49.308,39.436c4.701-.637,9.207-.981,13.814-2.236,1.27-.167,2.824-1.09,4.104-.411.334.177.795,1.039,1.154,1.319.575.451,1.253.798,1.907,1.118-6.85,3.735-14.229,3.861-20.98.209ZM61.069,43.241c1.973-.316,3.848-.71,5.734-1.389,1.907-.686,4.481-2.153,6.537-1.873.378.453.819.862,1.3,1.206-3.425,2.833-9.509,3.495-13.57,2.056ZM103.025,64.563c-.306-1.071-.214-2.155-.299-3.254.603.626,1.094,1.603,2.048,1.603.673,0,1.054-1.077,1.501-1.603.235,1.635-.338,3.303-.804,4.853-.152-.184-.31-.408-.41-.62-.483-1.952-.301-2.516-2.035-.979ZM108.429,64.366c-.436.051-.924-.026-1.351-.098.476-.701,1.235-.554,1.351.098ZM107.681,61.061c.511.312.947.763,1.244,1.283.133.842-1.026,1.373-1.552.718-.302-.374.109-1.614.308-2.001ZM108.386,65.307c-.013.372-.107.964-.188,1.313-.825-.094-1.888.03-1.471-1.077.201-.87.979-.611,1.659-.235ZM108.018,67.62c-.637.122-1.278.171-1.894,0,.547-.633,1.236-.483,1.894,0ZM95.632,74.974c1.034-1.137,3.472,1.178,2.766-.846.466.182.853.453,1.223.846.276-1.995,1.875-1.522,3.309-2.608,1.135-.86,1.851-3.354,3.031-3.904,1.74-.81,2.373,1.505,3.112,2.475.156.205.633.216.757.436.165.293-.038,1.071.103,1.24.515.613,1.223.417,1.099-.697.137.451.081,1.086.321,1.454.421.646,1.026-.398,1.03-.855,1.144,1.148-.432,2.283-1.618,1.988-1.456-.361-2.174.675-3.645.472-2.439-.338-2.64,3.085-3.211,4.953-.857,1.473-2.056.612-.59-.697-.652-.188-.492-.205-.808-.753.684.056,1.291.071,1.462-.599-.413.017-.836-.267-1.248-.252.4-.509.739-1.612-.252-1.612-.594,0-1.086,1.413-1.323,1.877-.304.59-.825,1.868-1.528,2.091-.842.267-1.601-.209-1.27-1.201.414.244.883.248,1.27.594.397-.599-.006-1.078-.612-1.398.541.034.423-.284,1.047.111.045-.607-.38-1.304.235-1.738.408-.287,1.726-.936,1.279-1.52-.535-.697-3.32,1.39-4.173,1.537-1.005.175-3.072.038-1.766-1.396ZM116.035,76.222c.111-.056.192-.137.25-.237.015-.028.015-.064.026-.092.032-.081.064-.165.073-.263.002-.049-.006-.105-.009-.158-.002-.088,0-.175-.017-.272-.011-.073-.036-.15-.056-.227-.019-.079-.034-.158-.062-.239-.036-.107-.081-.214-.126-.321-.019-.045-.036-.092-.056-.137-.066-.139-.137-.274-.21-.398-.004-.006-.009-.015-.011-.021-.158-.263-.327-.479-.47-.594-.011-.009-.024-.026-.034-.034.791-.036,1.195-.06,1.518.09.019.009.041.023.06.034.066.036.133.083.197.139.024.019.047.041.071.064.062.062.13.139.199.227.021.026.043.051.064.079.092.122.188.259.301.425.207.306.295.667.699.592.175-.032.304-.096.413-.171.023-.017.043-.034.064-.051.723-.622-.021-2.14,2.229-1.184-.218.4-.722,1.543-.201,1.954.669.528.947-.552,1.501-.757.816-.301,1.704-.092,2.597-.231,1.676-.259,1.597.406,2.876,1.236,1.323.859,1.59.511,1.89,2.242.162.947.43,1.941.838,2.813.919,1.96,1.729,2.018,1.432,4.26-4.994-1.084-10.109-1.584-15.216-1.494-2.698.047-5.394.252-8.07.597-1.011.128-4.377,1.137-4.897.263-1.09-1.831,1.449-6.037,2.146-7.782.248-.62,2.401-.932,3.284-1.148.71-.173,1.317-.246,2.039-.105.731.143,1.159-.344,1.774-.349.612-.004,2.548,1.419,2.894,1.249ZM114.094,73.319c.84.265,1.25,1.06,1.283,1.898-.699-.586-2.108-.795-1.283-1.898ZM121.798,74.422c.09-.75.635-1.253,1.356-1.445-.073.755-.691,1.137-1.356,1.445ZM129.883,85.88c-8.278,1.496-15.881,1.537-24.174.09,7.95-1.539,16.213-1.59,24.174-.09ZM101.263,79.929c.859,1.712-.438,4.752,2.261,5.174-.198.081-.706.314-.925.348,0,0-4.251-.955-5.292-1.203.699-2.32,2.317-2.867,3.955-4.318ZM96.966,83.345c-.13-.827.109-4.038,1.296-2.275-.644.675-1.069,1.37-1.296,2.275ZM103.025,83.79c-.815-.596-1.321-2.642.295-2.257-.109.765-.415,1.471-.295,2.257ZM94.008,75.773c.139.284.282.637.295.958-.701.361-1.199.981-1.603,1.646-.214-1.002.509-2.052,1.308-2.604ZM91.981,77.633v.004c-.622,3.17.936.851,1.868.214.062-.043.122-.077.177-.103,1.159-.528,2.762-.678,4.085-.427-.917,1.526-1.853,3.134-1.963,4.895-.002.036.004.077.002.113-.011.257-.011.515.017.78.009.075.034.154.045.231.034.229.068.457.137.693-.291-.071-.577-.152-.866-.225-1.952-.485-3.899-.994-5.847-1.505-1.815-.477-3.63-.947-5.459-1.357,2.533-1.255,5.143-2.356,7.803-3.313ZM116.244,224.979c-4.224-.075-8.442-.498-12.593-1.274-26.845-5.003-49.482-24.796-58.08-50.708-4.844-14.607-5.101-30.638-.753-45.399,1.233-4.185,2.83-8.262,4.765-12.174.885-1.787,1.841-3.54,2.865-5.252,1.248-2.087,2.274-2.963,4.376-4.183,6.097-3.538,13.831-8.632,21.138-8.812-22.684,17.555-31.465,48.79-21.108,75.569,4.607,11.91,12.737,22.346,23.126,29.766,5.216,3.728,10.98,6.685,17.053,8.741,1.61.545,3.241,1.026,4.889,1.443.329.081,1.216.254,1.656.5l12.45,11.582c.077.066.152.135.229.201h-.013ZM111.443,119.34c-2.469-.216-5.334-.689-5.334-.689-.848-2.052-2.203-5.41-3.052-7.462-1.353-3.269-2.707-6.537-4.06-9.806,3.057.562,6.125,1.073,9.201,1.531,1.082,5.475,2.163,10.952,3.245,16.427ZM109.592,103.102c2.574.355,5.082.52,7.673.711v15.844l-4.466-.161c-.1-.505-.201-1.156-.299-1.66-.372-1.886-.744-3.773-1.116-5.659-.598-3.025-1.195-6.05-1.791-9.075ZM104.666,118.515c-2.892-.434-7.271-1.322-7.271-1.322,0,0-3.488-5.487-4.893-7.597-2.27-3.412-4.543-6.824-6.815-10.236l.642-.5s3.433.733,4.411.934c2.24.458,4.483.9,6.73,1.319,2.399,5.8,4.797,11.602,7.196,17.402ZM95.786,116.92c-3.782-.785-12.173-3.015-12.173-3.015,0,0-5.207-5.292-7.124-7.212,2.471-2.42,5.226-4.63,8.082-6.584,3.739,5.603,7.476,11.208,11.215,16.811ZM81.386,113.41c-2.916-.797-5.821-1.64-8.705-2.548.937-1.107,1.911-2.181,2.924-3.22,1.926,1.922,3.854,3.846,5.781,5.768ZM59.028,163.102c2.516,10.599,7.931,20.426,15.518,28.24,3.75,3.859,8.01,7.221,12.638,9.964,2.456,1.456,5.017,2.737,7.653,3.831,1.812.753,2.627,1.221,3.942,2.73,1.033,1.184,2.087,2.349,3.16,3.495-23.415-6.054-41.928-25.467-46.838-49.151-2.687-12.952-1.293-26.664,3.996-38.793,2.55-5.853,5.981-11.317,10.137-16.164,2.166-2.525,4.526-4.881,7.052-7.042,1.148-.983,2.332-1.926,3.549-2.826,1.58.376,3.162.735,4.746,1.095-20.975,13.829-31.361,40.136-25.552,64.622ZM84.507,198.048c-2.477-1.704-4.833-3.589-7.025-5.648,1.939-2.021,3.731-4.001,5.67-6.021,1.11,1.95,4.379,7.133,4.379,7.133-.84,1.255-2.184,3.281-3.024,4.536ZM88.371,194.645c1.278,1.888,3.421,4.637,4.802,6.45l-.802,1.502c-2.328-1.123-4.592-2.386-6.751-3.805.943-1.42,1.809-2.727,2.751-4.147ZM76.482,191.446c-2.743-2.704-5.22-5.674-7.409-8.842,3.053-2.042,5.998-4.07,9.05-6.111,1.191,2.6,4.363,8.728,4.363,8.728-1.552,1.612-4.454,4.613-6.004,6.225ZM74.46,177.339c-2.054,1.368-4.109,2.738-6.165,4.107-1.847-2.858-3.463-5.868-4.797-9,0,0,7.382-3.131,11.116-4.676.295.827,2.986,7.492,2.986,7.492-1.022.68-2.118,1.397-3.14,2.077ZM70.279,168.166c-2.433,1.011-4.866,2.02-7.298,3.032-1.193-2.929-2.125-5.962-2.826-9.047,3.989-.855,7.978-1.71,11.967-2.565.261.984,2.099,6.953,2.099,6.953-1.215.507-2.725,1.123-3.941,1.628ZM59.86,160.804c-.731-3.626-1.12-7.322-1.159-11.022,3.75-.004,7.499-.009,11.249-.013.487,2.854,1.094,5.686,1.8,8.495-3.963.846-7.927,1.693-11.89,2.54ZM58.701,148.413c.039-3.42.368-6.836,1.001-10.197,3.021.599,6.039,1.197,9.059,1.796.216,2.811.535,5.616.966,8.401h-11.027ZM68.667,138.61c-2.905-.584-5.808-1.165-8.713-1.749.716-3.354,1.721-6.646,2.989-9.834,1.853.772,3.705,1.546,5.558,2.317-.071,3.091-.017,6.18.167,9.265ZM68.547,127.712c-1.669-.695-3.337-1.387-5.007-2.082,1.34-3.115,2.942-6.118,4.818-8.945.353.235.896.464,1.172.783-.535,3.39-.849,6.815-.984,10.244ZM69.111,115.544c.355-.524.723-1.041,1.103-1.548-.16.66-.299,1.323-.415,1.992-.214-.071-.528-.284-.688-.445ZM93.464,203.124c.145-.312.503-1.042.503-1.042.49.616,1.054,1.306,1.541,1.921-.645-.276-1.403-.593-2.044-.88ZM117.303,224.239c-1.471-1.233-2.92-2.49-4.348-3.773-5.902-5.296-11.435-11.009-16.45-17.151-9.923-12.155-17.773-26.042-22.299-41.105-4.778-15.904-6.509-34.05-2.196-50.254.207.066.417.135.624.201,14.787,4.583,30.681,8.966,46.282,8.745,15.141-.214,30.835-4.188,45.14-8.946,5.607,20.54,1.657,44.059-6.898,63.219-6.349,14.22-15.612,27.008-26.493,38.101-2.884,2.941-5.664,5.767-8.764,8.482-1.165,1.02-3.304,3.566-4.599,2.48ZM167.751,116.788c1.864,2.867,3.489,5.89,4.831,9.034-1.659.688-3.318,1.377-4.977,2.065-.12-2.685-.359-5.366-.727-8.029-.132-.944-.457-2.393-.457-2.393,0,0,.808-.51,1.33-.678ZM166.272,116.125c-.137-.693-.278-1.385-.419-2.078.387.528.765,1.06,1.137,1.599-.225.15-.466.391-.718.479ZM173.074,127.027c1.18,2.937,2.131,5.967,2.809,9.06-2.786.592-5.569,1.186-8.355,1.778.105-1.801.152-6.523.152-8.64,0,0,3.906-1.582,5.393-2.198ZM167.435,139.247c.334-.314,1.659-.353,2.091-.445,2.215-.47,4.429-.941,6.644-1.411.723,3.624,1.103,7.315,1.146,11.009-3.645.004-7.292.009-10.937.013.474-3.04.838-6.097,1.056-9.166ZM169.977,149.769h7.339c-.03,3.42-.37,6.836-.988,10.201-3.94-.789-7.882-1.575-11.822-2.364.216-.863,1.434-7.837,1.821-7.837h3.649ZM167.807,159.62c2.755.545,5.511,1.093,8.269,1.637-.716,3.39-1.721,6.721-3.006,9.941-3.73-1.554-7.459-3.106-11.189-4.661.241-.71,2.294-7.638,2.338-7.628,1.195.235,2.39.473,3.587.71ZM172.552,172.446c-1.362,3.166-2.997,6.214-4.874,9.107-3.083-2.063-6.165-4.124-9.248-6.187,1.086-2.429,2.063-4.904,2.955-7.409,3.722,1.496,7.446,2.993,11.167,4.489ZM166.913,182.703c-1.928,2.798-4.096,5.43-6.46,7.871-2.127-2.125-4.252-4.25-6.379-6.375,1.366-2.462,2.616-4.989,3.788-7.551,3.016,2.018,6.035,4.036,9.051,6.054ZM159.491,191.523c-2.476,2.415-5.152,4.624-8,6.584-1.017-1.524-2.035-3.046-3.053-4.57,1.759-2.64,3.42-5.344,4.972-8.11,2.027,2.033,4.053,4.064,6.08,6.097ZM150.376,198.852c-3.055,1.999-6.299,3.708-9.667,5.114,2.444-2.971,4.74-6.064,6.918-9.236.917,1.374,1.832,2.747,2.749,4.122ZM142.164,204.764c2.598-1.131,5.116-2.448,7.529-3.933,4.554-2.803,8.728-6.208,12.395-10.099,7.414-7.869,12.666-17.69,15.05-28.237,5.528-24.479-4.987-50.393-25.971-64.13,1.631-.359,3.258-.744,4.883-1.129,20.597,15.133,30.412,41.757,24.558,66.644-5.389,22.916-23.56,41.528-46.351,47.443,1.345-1.439,2.67-2.897,3.959-4.385,1.069-1.233,2.469-1.528,3.948-2.174ZM163.356,110.879c-3.555,1.09-7.119,2.142-10.714,3.091,2.304-2.399,4.609-4.797,6.913-7.196,1.332,1.306,2.593,2.683,3.801,4.105ZM151.568,100.199c2.465,1.712,4.818,3.591,7.012,5.639-2.807,2.931-5.612,5.859-8.418,8.79-3.239.825-6.494,1.737-9.765,2.423,3.724-5.569,7.448-11.284,11.172-16.853ZM143.661,109.626c-1.403,2.095-3.728,5.69-5.128,7.785,0,0-2.773.601-5.383,1.024,1.682-3.609,3.365-7.403,5.047-11.014.938-2.012,2.183-4.909,3.122-6.921,0,0,5.694-1.239,8.039-1.752.381.135.763.489,1.103.71-2.266,3.388-4.534,6.779-6.8,10.167ZM134.802,111.497c-.932,2.005-3.237,7.199-3.237,7.199,0,0-4.143.618-6.915.719.776-3.912,1.552-7.899,2.33-11.813.312-1.573.624-3.147.937-4.72,0,0,10.646-1.926,11.903-2.17-1.672,3.596-3.346,7.191-5.017,10.785ZM124.682,112.388c-.389,1.95-1.014,5.186-1.406,7.138,0,0-2.517.1-4.586.13v-15.867s6.939-.684,7.876-.821c-.629,3.14-1.255,6.281-1.884,9.419ZM182.393,188.642c-13.273,21.687-37.094,35.561-62.518,36.312,3.549-3.006,6.988-6.138,10.289-9.413,1.733-1.719,2.595-2.462,4.923-3.089,1.364-.366,2.717-.776,4.055-1.231,6.063-2.059,11.813-5.019,17.019-8.748,10.366-7.422,18.476-17.854,23.071-29.753,10.319-26.73,1.59-57.911-21.014-75.483,7.266,1.332,16.167,6.317,22.985,10.432,15.824,24.227,16.283,56.317,1.191,80.974ZM161.52,83.208c14.885,4.115,28.947,11.824,41.859,20.155-3.705.308-7.412.616-11.116.924.406,3.209.813,6.42,1.219,9.628-8.943-6.075-18.342-12.166-28.453-16.106-3.004-1.169-6.602-2.518-9.862-1.747-3.86.911-7.741,1.753-11.627,2.548-6.278,1.283-12.589,2.452-18.945,3.292-6.261.825-11.931.363-18.158-.603-9.019-1.396-17.987-3.234-26.863-5.351-6.33-1.15-14.218,3.812-19.486,6.663-6.323,3.425-12.431,7.257-18.378,11.294.415-3.207.829-6.413,1.244-9.62-3.688-.308-7.377-.616-11.065-.924,13.149-8.476,28.938-16.584,42.665-20.652,3.711-1.1,6.485-1.155,10.239-.216,4.474,1.126,8.94,2.294,13.44,3.311,9.173,2.078,18.087,3.427,27.463,2.127,7.104-.984,14.034-2.707,20.963-4.502,2.294-.594,4.601-1.229,6.937-1.629,2.506-.427,5.528.746,7.923,1.407ZM132.56,82.186c.312-.222.626-.287,1.001-.257.218.919-.058,1.821-.706,2.506.105-.778.239-1.614-.295-2.249ZM141.666,75.269c.718.049,1.206,1.225,1.257,1.804-.113-.103-2.3-1.875-1.257-1.804ZM142.265,77.731c.513.242,1.026,1.114,1.283.034.002-.004.002-.006.004-.013.968.353,1.922.746,2.875,1.139.086.034.173.066.259.1.135.058.274.109.411.163,1.33.566,2.649,1.163,3.946,1.8-.462.107-.922.227-1.383.338-.026.006-.053.013-.079.019-2.046.492-4.085,1.003-6.127,1.514-3.398.856-6.8,1.703-10.235,2.414-.117.024-.496-.067-.496-.067,1.832-.95,1.512-2.854,1.443-4.851-.013-.327-.019-.656-.011-.985,0-.013.002-.024.002-.036.013-.359.043-.718.109-1.069,1.327,1.328,3.142,1.774,4.391,3.053.485.496,1.189,2.366,1.835.601.962-2.629-2.578-4.282-3.835-6.005,1.124-.16,2.255.209,3.305.69l.004.002c.49.224.96.468,1.404.701.31.163.616.325.896.457ZM139.315,79.429c.458.658.686,1.434.402,2.21-.21-.881-1.402-1.524-.402-2.21ZM135.257,71.917c.458.357.699.665,1.005,1.15.124.199-.235.926.051,1.108.768.487,1.156-.539,1-1.155.374.381,1.582,2.899,1.655.453.697.287,1.787.947,1.445,1.828-.346.894-2.531-.098-3.292-.205-2.063-.295-1.471-.141-1.21,1.257.073.391-.667.752-.304,1.182.408.481,1.003-.222,1.497-.056-1.007.804-.141,1.783.765.949.917,2.642-2.189-.34-2.66-.799-.301-.295-1.186-1.364-1.552-1.454-.81-.199-1.217.415-.59,1.206-1.262.37-1.362,1.71.145,1.201-.37.385-.637.772-.86,1.249,1.886-.141.235,3.061-.846.306-.532-1.351-.385-3.311-1.251-4.457-.399-.53-1.445-.47-2.012-.902-.538-.41-.829-1.466-1.325-1.652-.184-.068-5.007.994-2.176-1.007.637,1.332,1.17.218.757-.697,1.133,1.484,1.586-.667,2.3-1.496,1.178-1.368,2.022-1.742,3.86-1.706,1.061,1.868,2.033,2.48,3.596,3.698ZM129.199,66.273c-.115-.287-.047-.509.034-.731.44-.489,1.896-1.129,1.945,0,.043.971-1.259.504-1.98.731ZM131.405,67.273c-.798.141-1.563-.047-2.347.197.618-.641,1.804-.804,2.347-.197ZM129.199,64.319c.378-.72,1.118-1.037,1.71-.402-.539.248-1.116.38-1.71.402ZM128.528,61.525c.034-.52,1.148-1.477,1.49-.943.414.652.506,1.471.541,2.232-1.227.109-2.144.432-2.031-1.289ZM135.411,65.055c-.583-1.003-1.464-1.281-2.06-.543-.413.509.06,1.635-.898,2.24-.075-.389-.257-.819-.274-1.21-.374-1.571-.372-3.337-.932-4.784.797.366,1.3,2.401,2.093,2.183,1.028-.284,1.599-1.841,2.465-2.482.466,1.49.013,3.143-.393,4.596ZM137.81,55.802c.652,1.68,1.33,2.882.509,4.754-1.723-1.526-3.583-1.347-4.87.753-1.879-3.504-5.49-1.49-6.807,1.103-.855-.654-2.773-1.851-2.737.107-.848-1.15-.579-4.185-.015-5.462,1.126-2.544-.733-1.588-1.216.218-.453,1.708-.331,3.309-.16,5.047.09.898.607,1.599,1.206,2.243.844.909,1.246-1.505,1.37-1.96.712.68,2.347,2.219,2.463.308.229,1.345.462,2.687.387,4.055-.103,1.858-1.161,2.39-2.589,3.35-.656.44-2.967,2.616-3.681,1.922-1.704-1.665-2.122-.145-3.484,1.079-1.268-1.751-1.648-2.317-3.393-.945-.577.453-2.373-1.242-3.153-1.561-1.259-.515-2.871-.838-2.51-2.627.295-1.464.879-3.125.701-4.624,1.501,1.109,2.119-.731,2.296-1.997.376.415.731.859,1.028,1.334.363.582.413,1.631.721,2.065.943,1.332,1.193.566,2.319-.107,2.037-1.219,1.764-4.506,1.238-6.447-.21-.776-.736-2.758-1.843-2.758-1.387,0,.421,2.003.607,2.61.532,1.759,1.014,5.171-1.154,6.056-.192-1.206-1.084-2.894-2.108-3.66-1.997-1.492-1.864.475-2.351,1.86-1.704-2.92-3.822-3.656-6.058-1.009-1.704-1.257-.641-5.695-3.553-3.352-.077-1.381.244-2.651.731-3.938.667-1.768-.582-1.909-1.783-.774.406-1.806,1.358-3.493,2.816-4.643.676-.535,1.537-.68,2.159-1.182.295-.237,2.691-.742,1.601-1.088-1.078-.342-1.294.015-1.569-1.15-.19-.804.451-2.054.71-2.79.192-.549,1.073-1.178.812-1.714-.355-.729-2.003.297-2.54.558.477-1.026,1.285-1.875,2.134-2.601.954-.812-1.475-.203-2.069.391-.742.742-1.781,2.219-1.749,3.309.058,1.995,1.022.785,2.099.15-.571,1.55-.28,3.397-1.3,4.506-1,1.088-2.563,2.371-3.884,2.999-.603.286-1.398.254-2.052.184-.661-.071-1.287-.793-1.879-.72-1.759.216-1.941,3.025-4.521,1.644-.77-.411-.889-1.809-1.759-1.873-.607-.045-1.086,1.238-1.484,1.699-.74.857-2.901,2.283-3.722.793-.182-.329,1.379-1.689,1.682-2.174.889-1.424-.949-.361-1.387.077-1.082,1.086-3.367,2.604-4.821,1.377,1.578-1.296,2.01-3.17-.21-1.458-1.332,1.028-3.014,2.086-4.656,1.005,1.556-1.063,2.612-4.476.532-2.149-.936,1.05-3.072,2.751-4.423,1.358.483-.359,1.232-.958,1.398-1.565.096-.346.231-1.954-.581-1.002-.94,1.103-1.689,2.552-3.427,1.96-.545-.186-.949-.542-1.16-1.076-.276-.698-.172-1.233-.476-1.652-.607-.836-2.424-.288-3.275-1.522,2.98.227,5.609-.133,8.446-1.052,1.15-.372,2.354-.934,3.429-1.482.825-.421,3.985-1.201,4.547-.149.56,1.047,1.712,1.794,2.848,2.076,1.43.355,1.61,1.973,3.061,2.766,1.306.714,2.792.596,4.177.242,1.691-.432,1.931-1.719,3.626-.945,1.112.507,2.339.654,3.549.537,1.381-.133,2.191-1.342,3.269-1.496.6-.086,1.144.145,1.766.028.481-.09,1.381-.945.46-1.007-.693-.047-1.375.026-2.027-.25-.896-.378-1.124.594-1.757.977-1.251.755-2.773.876-4.16.398-2.155-.744-1.723-1.296-3.803.026-1.798,1.144-4.94,1.445-5.988-.928,1.167-.049,2.294-.532,3.346-1.011,1.533-.697.795-1.268-.511-1.084-2.448.346-4.729,1.766-6.747-.757,1.345-.276,2.64-.558,3.938-1.005.962-.331.166-1-.513-1-.624,0-1.133.46-1.764.528-2.717.301-4.53.66-7.061-.528,2.134-.342,4.339-.564,6.413-1.197.55-.167,2.456-.577,2.17-1.394-.306-.868-1.642-.036-2.266.126-3.688.962-9.372,2.741-12.474-.536,2.29-.186,4.348-.411,6.58-.964,2.208-.547,4.16-1.988,6.356-1.436,1.28.323,1.764.188,2.394,1.328.534.966,1.678,1.601,2.702,1.943,1.048.353,2.05.374,2.734.887.776.581,1.058,1.426,2.093,1.858,2.163.9,3.799-.145,5.813-.682.404-.107,1.411,1.133,2.027,1.325.491.154,2.328-.109,1.451-.831-.904-.746-1.881-.064-2.548-1.454-.594-1.234-1.3-.079-2.285.331-1.864.778-4.432.802-5.601-1.103,1.103-.445,3.236-.733,3.587-2.061-1.362-.684-3.202,1.009-4.714,1.009-1.537,0-3.905-.592-4.581-2.146,1.61.036,3.224-.428,4.729-.979.498-.184,1.492-1.219.406-1.219-.665,0-1.291.368-1.933.547-2.441.688-6.608,1.159-7.918-1.71,1.742-.053,3.401-.113,5.109-.5,1.616-.366,3.256-1.652.662-1.257-2.903.445-6.464,1.492-9.064-.547,1.717-.216,6.471-.603,6.956-2.698-2.277-.817-7.672,3.987-9.517.389,1.199-.603,6.099-1.646,6.007-3.395-3.093.475-7.172,4.064-10.261,1.706,1.486-.748,3.136-1.402,4.506-2.351,1.997-1.383,1.058-1.907-.701-.847-2.794,1.68-7.236,3.728-9.851.688,2.054-.806,4.361-1.507,6.204-2.753.588-.398,1.986-1.469.598-1.646-.462-.058-2.302,1.321-2.792,1.569-3.042,1.537-7.918,3.35-11.082,1.137,1.293-.398,2.61-.772,3.861-1.296.509-.214,3.414-1.24,3.6-1.761.53-1.492-1.334-.519-1.881-.259-1.249.596-2.503,1.154-3.797,1.648-2.204.842-4.72,1.039-6.98.327-.778-.246-2.228-1.048-2.606-1.815-.855-1.734,1.131-1.546,2.593-1.862,1.509-.325.763-1.364-.556-.962-1.154.351-2.306.549-3.467.845-2.646.671-5.312,1.082-8.036,1.261-5.755.381-10.041-.867-12.861-6.19,13.194.138,19.366-.473,32.256.138,6.131.291,19.792.754,24.959,4.513,1.133.823,1.89,1.532,2.85,2.551.93.99,1.545,2.706,2.212,3.61.853,1.159,2.116,1.161,3.373,1.736,1.948.891,2.217,1.539,3.027,2.664,1.729,2.396,2.805,4.771,5.763,5.808,2.734.958,5.898-1.856,6.588-4.337.423-1.099,2.474-1.496,3.425-2.266-.133.564-1.413,1.687-1.02,2.08.505.505,1.488.214,2.118.071,1.762-.4,3.156-1.543,3.951-3.155.77.774-.359,1.988.291,2.463.855.626,2.007-.988,2.392-1.516.411-.564,1.071-2.336.321-2.792-.84-.509-1.05,1.896-1.392,2.448-.248-.718-2.428-4.316-2.591-1.83-.109,1.663-1.368,2.798-2.972,3.13.165-.721.374-1.616.201-2.352-.338-1.443-.904-.708-1.552-.201-1.935,1.514-3.187,2.578-5.857,2.51,1.107-.99,2.302-2.352,2.501-3.884.378-2.931-1.327-1.035-2.847-1.635.485-.825,1.342-3.23.045-3.724-.475-.18-1.306.511-1.868.699-.515.173-.445-1.043-.633-1.424-.808-1.633-1.349-2.499-3.091-3.239-1.496-.635-3.243-1.28-4.025-2.817,1.221.263,2.217,1.317,3.51.748,1.663-.733,1.402-2.843.479-4.034-1.552-1.995-5.197-1.898-7.144-.618-.464-2.907,4.466-3.527,6.315-3.202,1.005.175,2.557.535,2.557,1.774,0,.374.068,1.349.748.983.594-.319-.073-1.368.201-1.761,1.372-1.965,5.864.105,7.362.757,2.602,1.131,5.193,2.518,8.102,2.45-.494.376-1.407.329-1.497.9-.128.817.727.721,1.302.671,1.201-.103,2.514.092,3.653.481-.458.25-2.681,2.2-1.505,2.345,1.197.15,2.334.073,3.467.567-2.459,1.441.248,2.811,1.806,3.003,2.422.301,4.021,1.661,5.582,3.393-1.847.242-3.042.919-1.497,2.36,1.27,1.182,2.465,1.702,3.262,3.403-1.199.051-4.754.699-2.056,1.982,1.518.72,2.738,2.138,3.707,3.47-1.187.152-3.936.158-3.203,1.65.492,1,2.657,1.922,3.446,2.959-2.689-.066-2.366.59-.761,2.211,1.21,1.218,2.178,2.606,3.168,4.002-.594.092-1.449-.462-1.954-.256-1.107.451-.475.346-.355,1.197.195,1.385.924,2.858,1.159,4.314-.528-.098-1.067-.231-1.601-.28-.485-.045-1.334.575-.564.787,1.188.325,2.597.477,3.662,1.097,2.356,1.374,3.318,4.769,3.459,7.307-1.65-.761-3.061-1.227-2.258.847ZM170.778,47.497c.811,1.022-2.388,2.503-3.138,1.152-.348-.627-1.834-3.412-2.394-2.958-1.103.891,1.569,3.762,2.099,4.207-.834.53-1.751.791-2.666.344-.701-.344-1.15-.861-1.588-1.496-.319-.46-.361-1.871-.637-2.127-1.411-1.31-.622,1.879-.402,2.369.411.913,1.061,1.137.175,1.757-.568.398-1.744.073-2.275-.222-1.071-.596-1.592-1.774-1.815-2.918-.077-.404-.872-.868-1.208-.413-.184.25.612,2.219.785,2.552.622,1.197-1.652,2.022-2.548,1.9-.654-.09-1.306-.299-1.753-.793-.287-.316-.985-2.243-1.597-2.001-1.362.537,1.045,2.619.966,3.091-.256,1.546-3.266.545-3.809-.291-.509-.785-.744-3.198-1.61-.853-.423,1.148-1.42,2.298-2.79,2.255-.795-.026-.87-.47-1.458-.663-.562-.184-1.178.118-1.599,0-1.088-.306-1.357-2.264-2.146-3.442-.74-1.105-1.595-1.834-2.781-2.42-.545-.269-.922-3.489-1.225-4.23-.036-.086-.071-.173-.107-.259,2.563,1.272,2.831-.156,1.55-2.275-.845-1.4-1.9-2.685-3.05-3.839.878.276,2.988.851,1.934-.831-.878-1.404-2.129-2.696-3.427-3.726,1.011-.537,3.003-.261,4.209-.502,1.458-.293,2.948-.669,3.594-2.059,1.14-2.454,1.24-4.354,4.017-6.081,1.31-.814,2.82-1.491,3.619-2.777.748-1.206,1.58-2.482,2.681-3.401,2.433-2.035,5.103-3.228,8.181-3.967,12.023-2.89,24.685-1.665,37.002-1.77,3.713-.032,7.416-.113,11.125-.058-1.759,4.844-11.275,5.305-15.4,4.899-2.538-.25-5.518-.458-7.863-1.533-1.492-.684-1.531.489-.169,1.099,1.223.55,2.627.791,3.914,1.139-.582.718-1.263,1.298-1.941,1.92-3.228,2.467-7.495,1.464-10.695-.605-.487-.314-1.494-1.379-2.127-1.114-1.193.498.981,1.655,1.308,1.855,1.546.952,3.098,1.7,4.788,2.347-2.213,2.698-6.471.844-8.996-.231-.556-.237-1.199-.936-1.71-1.073-.656-.175-2.067.235-.907.725,1.371.577,2.424,1.757,3.912,2.08-1.556,2.018-5.951.96-7.922.15-.774-.319-1.471-.735-2.196-1.154-.909-.524-1.24.425-.402.977,1.52.998,3.232,1.496,4.958,2.029-2.456,1.334-5.584,1.06-8.077.032-.494-.205-1.024-.716-1.561-.656-1.167.133.148,1.148.53,1.326,1.576.731,2.978,1.285,4.746,1.248-1.847,1.774-5.27,2.238-7.519.885-.321-.192-1.501-.714-1.571-.077-.073.658,1.374,1.152,1.828,1.385,1.289.658,3.183.63,4.569.402-1.747,1.789-4.049,2.482-6.51,2.035-1.879-.342-1.95.547-.15.969,1.225.286,2.613.254,3.85.066-.913,1.99-3.001,3.027-5.16,2.852-.984-.079-3.003-1.46-3.792-1.312-2.003.374.986,1.582,1.496,1.789,1.069.434,2.95.346,1.851,1.729-.607.763-2.326,1.022-3.204.774-.594-.169-2.392-1.642-2.708-1.436-.579.374.389,2.181-.148,2.912-.706.962-2.273,1.052-2.95.051-.943-1.39-1.046.588.051,1.454.847.669,2.559.417,3.303-.299,1.274-1.223.152-2.014,2.247-1.659,1.232.207,2.302.269,3.39-.455,1.403-.93,1.086-1.325,2.512-.201,2.104,1.661,4.735,2.758,7.46,2.461-2.18,1.832-5.385,1.868-7.845.551-.413-.222-1.221-1.413-1.804-1.107-.968.505.297,1.37.626,1.62,1.195.913,2.557,1.349,4.017,1.59-2.574.851-3.754.774-6.204-.205-.588-.235-2.11-.825-1.047.502.765.958,1.941,1.336,3.112,1.61-1.033,1.398-2.773,1.894-4.357,1.24-.475-.195-2.075-1.655-2.364-1.637-.924.055-.834,1.404-1.539,1.92-.752.55-3.63-.707-3.033.597,1.043,2.283,3.79.308,4.637-.879,1.964,1.71,4.947,1.99,6.924.19.304-.276.665-1.223.921-1.383.466-.291,1.537-.141,2.112-.308,1.34-.389,2.405-1.312,3.596-1.851.579-.261,3.375-1.92,3.904-1.8.541.122,2.255,2.33,2.976,2.758,2.443,1.451,5.291,1.943,8.085,1.552-.892,1.109-3.235.029-1.668,2.003ZM156.784,31.218c1.108-.475,2.084-1.092,2.707-2.151,3.942,2.843,8.076,4.293,12.955,4.011-4.312,4.22-12.899,4.28-15.661-1.86ZM165.588,37.375c-3.234,2.661-9.57,2.989-12.621-.175-.449-.389-.851-.84-1.193-1.326,1.883-.423,3.609-1.405,4.468-3.198,2.206,3.042,5.631,4.543,9.346,4.699ZM168.775,31.847c-1.454-.135-8.983-2.379-7.839-4.126.475-.366.945-1.302,1.402-1.556.515-.286,1.644-.21,2.262-.419.93-.319,1.379-.806,2.187-.152.573.464,1.302.819,1.974,1.127,3.091,1.42,6.129,2.212,9.508,2.347-2.552,2.484-6.06,3.1-9.494,2.779ZM175.494,27.734c-2.354-.259-6.441-1.58-8.188-3.271.898.038,2.193-.086,2.993-.496,1.262-.648,1.644-.881,2.95-.902,2.087-.032,4.26.28,6.014-1.223,1.233-1.056,5.043.599,6.753.676,1.819.083,3.914.19,5.656-.411-3.117,4.973-10.766,6.625-16.178,5.627ZM182.42,20.705c1.31-.43,3.046-.755,3.985-1.864.472-.56,1.069-1.201,1.663-1.629.868-.624.299-.661,1.606-.532,3.41.34,7.433.59,10.708-.626-.757.891-1.685,1.571-2.647,2.223-4.239,3.053-10.381,3.989-15.315,2.428ZM162.227,40.338c.552-.312,3.529-1.74,3.846-1.548,1.52.921,2.973,1.877,4.581,2.646,1.604.671,3.211,1.274,4.96,1.402-3.219,3.038-11.657,1.815-13.387-2.501ZM177.106,41.916c-2.095-.227-4.002-.723-5.975-1.462-1.02-.383-5.453-2.125-3.418-3.254,2.591-1.531,5.943.682,8.748,1.188,3.686.667,7.253.656,10.958.192-2.238,2.723-6.956,3.694-10.312,3.335ZM175.456,37.2c-1.482-.349-2.89-.898-4.301-1.424,1.697-1.697,3.73-3.895,6.157-3.809,2.693.094,5.434.915,8.14.966,6.281.122,12.277-.579,18.188-2.77-6.967,6.967-18.759,9.188-28.184,7.037ZM197.288,30.893c-3.352.618-6.668.932-10.077.932-3.065,0-6.076-.9-9.096-.958,1.013-.695,2.018-2.178,3.373-2.031,1.631.177,3.284-.714,4.806-1.103,1.887-.785,4.087-2.003,5.387-3.619.992-1.233,1.18-1.253,2.713-.799,1.161.344,2.367.528,3.568.678,5.165.644,10.244.105,15.186-1.484-3.147,4.739-10.483,7.392-15.86,8.384ZM218.07,18.276c-6.127,5.945-17.004,5.631-24.58,3.446,2.161-1.009,4.156-2.005,6.124-3.348.823-.562,1.548-1.342,2.285-2.011.778-.708,2.259.032,3.266.199,4.998.825,9.286.723,14.293.252-.453.498-.902.999-1.389,1.462ZM203.499,15.001c.994-.66,2.005-1.31,2.903-2.103.624-.551,1.232-1.782,1.894-2.146,0,0,4.966-.034,6.614.013,4.564.128,14.006-.141,14.006-.141-5.09,6.52-18.235,6.166-25.418,4.377Z" style="fill: #13100d; stroke-width: 0px;"/>
          <path d="M130.196,40.791c-1.55-1.169-.376,1.473-.748,2.296-.892-1.197-2.238-2.174-3.797-2.044.03.973.996.727,1.61,1.364.851.885,1.31,1.563,1.838,2.634.607,1.234,1.287-1.077,1.349-1.522.139-.966.282-1.849-.252-2.728Z" style="fill: #13100d; stroke-width: 0px;"/>
          <path d="M133.175,47.643c-.56.205-.004,1.618.09,2.157-1.127-.44-1.967-2.212-3.425-1.749.248.778.84.881,1.389,1.398.643.607.592,1.575,1.086,2.099,1.439,1.528,1.992-1.11,1.804-2.505-.1-.49-.344-1.62-.945-1.4Z" style="fill: #13100d; stroke-width: 0px;"/>
          <path d="M110.893,94.812c.242-.188.413-.451.455-.737.088-.586-.155-1.073-.702-1.409-.394-.242-.953-.414-1.709-.527l-1.061-.159-.774,5.168,1.783.267c.269.04.523.06.76.06,1.133,0,1.876-.45,1.996-1.248.08-.536-.224-1.077-.748-1.415ZM109.067,93.238c.973.153,1.02.404.984.648-.03.198-.118.3-.305.35-.232.063-.57.03-.827-.006l.148-.992ZM110.298,95.988c-.068.451-.766.443-1.34.357l-.348-.052.159-1.06.228.034c.414.062.754.16.985.283.354.19.327.37.317.438Z" style="fill: #13100d; stroke-width: 0px;"/>
          <path d="M106.274,52.006c.47-1.368,1.013-2.39,2.3-3.108-.813-1.661-3.542,2.815-3.262,4.156.342,1.633.738.568,1.638-.128.902-.699,1.934-.911,2.984-1.274-.564-1.272-2.689.049-3.66.355Z" style="fill: #13100d; stroke-width: 0px;"/>
          <rect x="101.047" y="93.154" width="5.225" height="1.364" transform="translate(-8.474 177.361) rotate(-78.834)" style="fill: #13100d; stroke-width: 0px;"/>
          <path d="M125.848,94.182l-.484-.068c-.677-.093-.751-.261-.758-.31-.015-.112.104-.218.176-.271.151-.111.371-.194.587-.223.39-.052.645.015.878.23l.15.138,1.092-.648-.255-.249c-.476-.465-1.182-.664-1.99-.558-.547.072-1.049.266-1.414.547-.431.332-.635.762-.576,1.211.123.942,1.251,1.132,1.794,1.224l.467.077c.577.092.97.212,1.007.498.046.349-.332.688-.843.755-.353.046-.684-.021-.888-.18-.105-.082-.165-.181-.178-.295l-.037-.321-1.385.398.087.269c.249.768,1.066,1.249,2.058,1.249.135,0,.275-.009.416-.028,1.338-.176,2.25-1.046,2.122-2.025-.134-1.02-1.153-1.295-2.027-1.421Z" style="fill: #13100d; stroke-width: 0px;"/>
          <path d="M91.136,91.571c-.172.81-.643,1.088-1.528.899-.484-.103-.807-.293-.96-.567-.123-.221-.146-.515-.07-.875l.632-2.969-1.334-.283-.673,3.163c-.124.583.021,1.162.408,1.631.391.472,1.003.808,1.769.97.287.061.563.091.824.091,1.157,0,2.012-.583,2.225-1.582l.673-3.163-1.334-.283-.632,2.968Z" style="fill: #13100d; stroke-width: 0px;"/>
          <path d="M118.74,92.929l.03,3.034c.008.827-.391,1.201-1.295,1.21-.489.004-.852-.111-1.06-.344-.168-.189-.255-.471-.259-.839l-.03-3.034-1.364.014.032,3.232c.006.596.274,1.13.754,1.502.475.368,1.128.562,1.891.562.016,0,.031,0,.047,0,1.598-.016,2.663-.868,2.65-2.118l-.032-3.233-1.363.014Z" style="fill: #13100d; stroke-width: 0px;"/>
          <path d="M140.044,89.77l-1.34.253.561,2.982c.153.813-.175,1.251-1.063,1.419-.488.091-.859.04-1.104-.154-.198-.156-.334-.419-.402-.78l-.561-2.982-1.341.253.598,3.177c.11.586.467,1.064,1.005,1.347.362.19.791.286,1.265.286.237,0,.485-.024.741-.072,1.57-.296,2.469-1.321,2.238-2.55l-.598-3.177Z" style="fill: #13100d; stroke-width: 0px;"/>
          <polygon points="83.152 86.926 81.805 86.71 80.975 91.869 84.285 92.4 84.457 91.332 82.493 91.017 83.152 86.926" style="fill: #13100d; stroke-width: 0px;"/>
          <polygon points="64.022 94.317 63.455 93.237 65.777 92.017 65.274 91.061 62.952 92.28 62.598 91.606 64.989 90.35 64.487 89.394 60.888 91.283 63.317 95.907 66.916 94.018 66.413 93.061 64.022 94.317" style="fill: #13100d; stroke-width: 0px;"/>
          <path d="M131.6,206.398c11.144-11.969,20.168-26.04,25.364-41.601,4.93-14.761,7.292-31.746,3.686-47.064-13.012,4.158-26.916,7.698-40.572,8.136-14.834.475-29.482-3.749-43.638-7.76-.351-.192-.832-.259-1.214-.376-2.775,12.773-1.689,26.517,1.449,39.131,3.767,15.126,11.104,29.165,20.717,41.387,4.887,6.214,10.344,11.971,16.208,17.271.949.857,1.686,1.704,2.656,2.538,1.005.863,1.311,1.571,2.451.605,1.516-1.287,3.008-2.599,4.474-3.94,2.914-2.664,5.727-5.438,8.418-8.326ZM76.162,119.315c6.794,2.187,13.846,3.865,20.822,5.319,7.623,1.588,15.411,2.74,23.218,2.484,7.745-.254,15.417-1.678,22.953-3.416-4.306,4.308-8.611,8.613-12.916,12.921-.783.783-1.563,1.563-2.343,2.343,0,0-2.877-.632-5.066-1.043-5.128-.964-11.298-.902-15.687,2.313-2.278,0-4.893,1.969-6.332,3.091-1.905,1.481-3.538,3.297-4.906,5.28-2.856,4.147-4.304,9.103-4.712,14.124-.199,2.45-.062,4.938.509,7.333.321,1.34,1.268,3.82,1.268,3.82,0,0-4.207,4.209-6.071,6.075-9.502-17.923-14.832-40.467-10.736-60.643ZM115.8,151.047c-4.515,4.521-9.03,9.045-13.545,13.566-1.928-6.766-1.616-14.889,2.7-20.693,1.986-2.67,4.679-4.517,7.969-5.122,2.268-.419,7.222-.851,9.387.137-4.838,1.593-7.541,6.697-6.512,12.112ZM96.637,168.398c-.067-.042-.132-.088-.193-.139-2.936-2.434-4.216-5.808-3.681-9.589.975-6.869,6.571-14.697,13.108-17.316-5.939,5.654-7.052,16.57-4.357,23.99-.778.748-2.988,3.003-3.766,3.751l-1.112-.697ZM97.086,169.757c-1.129,1.133-2.174,2.183-3.303,3.316-1.214-2.681-1.663-6.027-1.614-8.942.923,2.148,2.76,4.602,4.917,5.626ZM126.916,139.935l-10.291,10.296c-.381-6.245,3.249-11.689,10.291-10.296ZM97.372,196.269c-3.08-4.017-5.904-8.23-8.433-12.615-.571-.99-1.6-2.834-1.6-2.834,1.501-1.501,3.43-3.43,4.93-4.93,12.901-12.897,25.8-25.796,38.7-38.693,4.365-4.363,13.476-13.62,13.82-13.824,0,0,4.47-1.196,6.474-1.705,2.839-.721,5.669-1.551,8.463-2.427.372,1.781.714,3.657.904,5.466.433,4.12.435,4.647.62,7.686,0,0-1.57,1.571-2.152,2.15-2.751,2.751-5.503,5.5-8.254,8.252-6.206,6.199-12.41,12.401-18.616,18.602-8.69,8.686-17.367,17.386-26.065,26.065-2.826,3.029-5.86,5.881-8.79,8.807ZM112.986,183.725c4.485-.286,8.476-1.871,11.168-5.879.509,3.981.321,9.996-4.297,11.435-4.594,1.43-8.286-.359-12.612-1.584.793-.795,1.586-1.588,2.379-2.383,1.357-1.358,1.394-1.463,3.363-1.589ZM112.149,182.78c3.474-3.478,6.946-6.958,10.419-10.436,1.856,3.835.502,6.618-3.187,8.681-2.183,1.221-4.746,1.755-7.232,1.755ZM123.312,171.599c2.456-2.467,4.915-4.934,7.371-7.401,3.632,5.295,6.68,12.031,3.647,18.342-1.943,4.043-8.544,6.973-13.036,7.123,5.565-2.832,4.701-13.323,2.018-18.064ZM131.388,163.493c1.61-1.612,4.347-4.351,5.957-5.963,0,0-.208-.407.713.563,1.554,1.642,2.64,3.718,3.499,5.791,1.723,4.145,1.366,7.984-.62,11.956-1.045,2.091-3.022,5.327-5.432,6.417,2.619-6.035-.12-13.97-4.117-18.765ZM138.092,156.772c1.124-1.123,2.249-2.247,3.373-3.369,1.913,3.42,3.186,10.271,2.052,14.032-.455-3.865-2.647-7.946-5.426-10.663ZM118.677,217.061c-1.159.99-1.417.045-2.426-.832-1.682-1.46-3.331-2.959-4.942-4.494-3.478-3.311-6.787-6.798-9.895-10.456-.327-.385-3.604-4.164-3.457-4.312.387-.387.776-.776,1.163-1.163,1.736-1.734,3.472-3.47,5.208-5.204,1.58-1.58,1.625-2.409,3.713-1.603,6.332,2.448,13.741,2.379,20.063-.081,3.442-1.338,5.744-4.128,8.613-6.27,2.499-1.847,4.224-4.508,5.506-7.298.999-1.986,1.438-3.956,1.798-6.037.312-1.804.803-3.196.808-5.051.009-3.709-.782-8.275-2.7-11.525,6.279-6.289,12.82-12.876,19.099-19.166-.047,11.377-2.443,22.986-6.419,33.638-5.484,14.689-14.327,27.964-25.063,39.33-2.839,3.006-5.813,5.885-8.904,8.632-.714.637-1.436,1.266-2.163,1.89Z" style="fill: #13100d; stroke-width: 0px;"/>
          <path d="M75.431,86.205l-1.212-.016-.066,5.224,1.364.018.025-1.96.195.002c.715.01,1.31-.102,1.743-.321.545-.275.837-.719.844-1.284.018-1.441-1.537-1.646-2.894-1.663ZM76.631,88.284c-.32.113-.765.121-1.076.118l.014-1.127c1.299.025,1.447.333,1.444.564-.002.154-.049.328-.382.445Z" style="fill: #13100d; stroke-width: 0px;"/>
          <path d="M100.034,92.069c.124-.565-.149-1.162-.711-1.557l-.003-.002c-.522-.357-1.196-.504-1.738-.622l-1.235-.27-1.116,5.103,1.332.291.412-1.882,1.423,2.283,1.733.379-1.664-2.55c.806-.059,1.42-.5,1.567-1.173ZM97.206,92.072l.245-1.119c.449.101.775.216.996.35.322.195.33.375.3.51-.058.264-.286.532-1.542.259Z" style="fill: #13100d; stroke-width: 0px;"/>
          <path d="M125.993,29.414c-.513-.479-1.922-1.484-2.698-1.248-1.441.436,1.257,1.377,1.796,1.804.552.438,1.642,2.403,1.96.829.212-1.047-.295-2.114-.66-3.065-.205-.338-.528-.582-.889-.727-.592.795.468,1.466.492,2.407Z" style="fill: #13100d; stroke-width: 0px;"/>
          <path d="M122.448,22.907c1.753.754,3.985,2.946,3.39-.543-.246-.586-1.054-2.099-1.933-1.95-.996.171.881,1.689.992,2.356-.91-.254-1.637-.727-2.616-.688-.389.015-1.232.009-.889.577.331.549.622.06,1.056.248Z" style="fill: #13100d; stroke-width: 0px;"/>
          <path d="M112.334,33.809c.188-.171,3.983-1.633,2.144-1.633-1.285,0-2.243.795-3.386,1.095.21-1.184,1.304-1.646,1.59-2.694-2.475-.015-3.818,6.377-.349,3.232Z" style="fill: #13100d; stroke-width: 0px;"/>
          <path d="M107.454,35.229c.088-1.018-2.499.199-2.929.355.378-1.725,1.687-2.815,2.24-4.365-1.439-1.52-5.186,6.62-2.217,5.689.462-.145,2.884-1.439,2.905-1.678Z" style="fill: #13100d; stroke-width: 0px;"/>
          <path d="M124.949,34.485c-.175,1.009,2.219,1.93,2.903,2.877.163.224.838,1.608,1.099,1.621.714.036.853-1.302.783-1.783-.024-.772-.169-2.136-.827-2.625-1.165-.863-.148,1.674-.207,2.057-1.039-.879-2.27-2.243-3.75-2.146Z" style="fill: #13100d; stroke-width: 0px;"/>
          <polygon points="143.117 88.676 144.077 94.314 145.422 94.085 144.883 90.918 150.347 93.718 149.392 88.11 148.048 88.339 148.582 91.476 143.117 88.676" style="fill: #13100d; stroke-width: 0px;"/>
          <polygon points="163.582 90.599 164.463 94.049 167.145 91.707 166.982 94.467 168.333 94.887 168.539 88.842 165.158 91.816 164.06 87.449 160.799 92.545 162.151 92.965 163.582 90.599" style="fill: #13100d; stroke-width: 0px;"/>
          <path d="M155.645,92.756c.093,0,.188-.003.285-.009.781-.051,1.434-.296,1.889-.707.451-.408.677-.96.638-1.555l-.212-3.227-1.361.089.199,3.028c.054.826-.324,1.221-1.225,1.28-.901.062-1.328-.283-1.383-1.109l-.198-3.028-1.361.089.212,3.227c.077,1.173,1.075,1.922,2.517,1.922Z" style="fill: #13100d; stroke-width: 0px;"/>
          <path d="M105.158,6.619c-.802-.274-3.125-.577-3.213.573-.077.992.881,2.873,1.874,2.952.148-1.088-.68-1.877-1.206-2.749,1.392-.701,1.379,1.154,2.061,1.796.622.586,1.809.701,2.608.658,1.272-.068,1.84-.135,3.11.15.838.186,1.879.261,1.99-.808-2.698.41-4.838-1.762-7.225-2.572ZM104.675,7.545c.496-.026.402.229.637.564.488.652,1.332.648,2.061.389-.006,1.554-2.572.308-2.698-.953Z" style="fill: #13100d; stroke-width: 0px;"/>
        </g>
      </g>
    </g>
  </g>
</svg>