<?xml version="1.0" encoding="UTF-8"?>
<svg id="W7F_Horizontal_2-Line_Logo" xmlns="http://www.w3.org/2000/svg" xmlns:xlink="http://www.w3.org/1999/xlink" version="1.1" viewBox="0 0 1560.1 386.6">
  <!-- Generator: Adobe Illustrator 29.2.1, SVG Export Plug-In . SVG Version: 2.1.0 Build 116)  -->
  <defs>
    <style>
      .st0 {
        fill: #00ffbe;
      }

      .st1 {
        fill: url(#linear-gradient);
      }
    </style>
    <linearGradient id="linear-gradient" x1="59.7" y1="326.6" x2="337.8" y2="48.5" gradientUnits="userSpaceOnUse">
      <stop offset="0" stop-color="#00b870"/>
      <stop offset=".3" stop-color="#00c983"/>
      <stop offset=".9" stop-color="#00f6b5"/>
      <stop offset="1" stop-color="#00ffbe"/>
    </linearGradient>
  </defs>
  <g>
    <g>
      <g>
        <path class="st0" d="M1169.9,166.4l-2.9,17.2h-73.7v-72.5h76l-2.9,17.2h-47.2v11.1h47.5l-2.9,15.5h-44.7v11.3h50.6Z"/>
        <path class="st0" d="M1360.8,166.4l-2.9,17.2h-73.7v-72.5h76l-2.9,17.2h-47.2v11.1h47.5l-2.9,15.5h-44.7v11.3h50.6Z"/>
        <path class="st0" d="M1369.8,111.1h20.1l46.9,41.3v-41.3h24.5v72.5h-19.9l-47.1-40.4v40.4h-24.5v-72.5Z"/>
      </g>
      <path class="st0" d="M1227.9,160.9l24.3-49.8h26.1l-36.6,72.5h-28.5l-38-72.5h26.8l25.9,49.8Z"/>
      <path class="st0" d="M995.4,174.7l8.2-16.2c29.4,13.9,53.7,11.7,54.7,4.8,1.6-10.8-63.8-3.4-61.7-30.7,2.3-29.3,55.8-27.6,86.4-15.9l-8.3,16.1c-28.2-11-50.6-7.7-51.9-.9-1.9,9.9,63.5,2.2,61.7,30.7-1.9,30.9-62.3,27.2-89.1,12.2Z"/>
      <path class="st0" d="M1470.9,174.7l8.2-16.2c29.4,13.9,53.7,11.7,54.7,4.8,1.6-10.8-63.8-3.4-61.7-30.7,2.3-29.3,55.8-27.6,86.4-15.9l-8.3,16.1c-28.2-11-50.6-7.7-51.9-.9-1.9,9.9,63.5,2.2,61.7,30.7-1.9,30.9-62.3,27.2-89.1,12.2Z"/>
    </g>
    <g>
      <g>
        <path class="st0" d="M776.5,183.6h-28l-31.3-32.6h18.5c4.2,0,7.4-.9,9.5-2.6,4-2.6,4.4-13.6.3-16.4-1.9-1.5-5.2-2.3-9.8-2.3h-20.4v53.8h-25.9v-72.5h53.9c11,0,19,2,24,5.9,5,4,6.8,10.5,6.8,19.5,0,13.4-6,22.3-19.9,24.4l22.5,22.7Z"/>
        <path class="st0" d="M863,164.4l-4.1,19.2h-73.4v-72.5h25.9v53.3h51.6Z"/>
        <path class="st0" d="M871,183.6v-72.5h45.8c13.8.3,27.9.2,37.2,10.4,5.5,7.1,7,15.9,7,25.9-.2,12.1-1.7,21.8-10.7,28.7-9.9,6.8-20.1,7.2-33.6,7.5,0,0-45.8,0-45.8,0ZM912.1,166.2c8.8,0,14.7-1.2,18-3.5,6.1-4,6.4-22.9,1.6-29.6-1-1.4-2.5-2.4-4.6-3-5.4-1.6-8.5-1.4-15-1.5,0,0-15.1,0-15.1,0v37.6h15.1Z"/>
      </g>
      <polygon class="st0" points="500.3 111.1 474.7 111.1 496.5 153 491.7 162.2 465.2 111.1 439.7 111.1 477.3 183.6 504.3 183.6 521.1 151.2 500.3 111.1"/>
      <path class="st0" d="M626.4,185.9c-18,0-40.7-.4-48.7-19.8-3.6-9.2-3.6-28.6.2-37.8,8.1-19.1,30.3-19.6,48.5-19.6s40.5.5,48.6,19.6c3.8,9.2,3.8,28.5.2,37.8-8.2,19.4-30.8,19.8-48.8,19.8ZM626.4,167.5c11.2,0,25.5-.3,25.5-20s-14.1-20.2-25.5-20.2-25.5.8-25.5,20,14.3,20.2,25.5,20.2Z"/>
    </g>
    <polygon class="st0" points="542.4 128.6 513.9 183.6 539.4 183.6 576.9 111.1 509.8 111.1 518.9 128.6 542.4 128.6"/>
    <g>
      <path class="st0" d="M852.5,203l-4.5,20h-30.7v52.5h-25.9v-52.5h-30.7l-4.5-20h96.5Z"/>
      <path class="st0" d="M927.5,237.7v1.1c11.8,1.5,17.8,7,17.8,16.7s-2.2,11.9-6.7,15.2c-4.5,3.3-11.3,4.9-20.6,4.9h-58.7v-72.5h56.7c9.5,0,16.3,1.5,20.4,4.5,4.2,3,6.3,7.9,6.3,14.9s-1.3,7.6-4,10.1c-2.7,2.6-6.4,4.3-11.1,5.2ZM907.1,219.5h-22v12.9h22.3c3.3,0,5.7-.5,7.3-1.5,1.6-1,2.4-2.7,2.4-5.1s-.7-4.1-2.2-5c-1.4-.9-4-1.3-7.8-1.3ZM909.1,245.5h-24v13.6h24.3c3.5,0,6.1-.5,7.8-1.6,1.7-1.1,2.5-2.8,2.5-5.4s-.8-4.3-2.3-5.2c-1.5-.9-4.3-1.4-8.3-1.4Z"/>
      <path class="st0" d="M946.1,275.5l39.2-72.5h24.8l39,72.5h-29.2l-4.5-9.9h-37l-4.6,9.9h-27.6ZM997,226.1l-11.6,24.4h22.8l-11.2-24.4Z"/>
      <path class="st0" d="M1132.7,256.3l-4.4,19.2h-73v-72.5h25.9v53.3h51.4Z"/>
      <path class="st0" d="M1218.2,256.3l-4.4,19.2h-73v-72.5h25.9v53.3h51.4Z"/>
      <path class="st0" d="M592.8,277.8c-18,0-40.7-.4-48.7-19.8-3.6-9.2-3.6-28.6.2-37.8,8.1-19.1,30.3-19.6,48.5-19.6s40.5.5,48.6,19.6c3.8,9.2,3.8,28.5.2,37.8-8.2,19.4-30.8,19.8-48.8,19.8ZM592.8,259.4c11.2,0,25.5-.3,25.5-20s-14.1-20.2-25.5-20.2-25.5.8-25.5,20,14.3,20.2,25.5,20.2Z"/>
      <path class="st0" d="M703.3,277.8c-18,0-40.7-.4-48.7-19.8-3.6-9.2-3.6-28.6.2-37.8,8.1-19.1,30.3-19.6,48.5-19.6s40.5.5,48.6,19.6c3.8,9.2,3.8,28.5.2,37.8-8.2,19.4-30.8,19.8-48.8,19.8ZM703.3,259.2c11.2,0,25.5-.3,25.5-19.9s-14.1-20.1-25.5-20.1-25.5.8-25.5,19.9,14.3,20,25.5,20Z"/>
      <path class="st0" d="M533.2,232.2l-3.9,17.1h-43.2v26.2h-25.9v-72.5h80.2l-4.1,17.8h-50.2v11.5h47.1Z"/>
    </g>
  </g>
  <path class="st1" d="M298.2,112.9c-14.6,120.4-72.1,206-129.9,272.2-15.5-2.1-28.5-5.4-42.8-10.6,87.4-87.4,116.5-171.1,126.7-228.5-31.3-1.8-65.9-1.8-96.8,0-2.6-13.2-4.5-23.3-6.1-35.8,49-3.7,98-2.3,148.9,2.6ZM181.2,273.6c-45.6-90.9-61.9-173.1-47.9-264.1-14.9,4.9-28.9,11.4-42,19.5-10.7,94.2,9.4,158.8,39.3,224.6l-22.3-4.7c-31.2-69.9-44-130.2-37.7-205-13,10.6-25.7,24.2-35.3,38,2,80.7,15.5,144.4,55.3,212.4l-22.3-4.7c-34.3-59.8-45.9-111.1-51-176.3-41.8,91.8-6.2,205.2,89.8,253.1,30.3-29.2,54.2-60.5,74.2-92.8ZM193.5,386.6c117.8,0,224.6-113.8,184.5-250.4-10,55.6-24.1,101.9-47.5,152.8l-24.1,5.3c39.5-82.2,56.7-149.9,61-232.7-64.9-11.9-132.7-14.4-190.6-12.1l12.4-19.1c29-2.2,72.2-.5,114.1,3.9C244.2-6.4,183.5-2.5,152.9,4.3c-5.1,29-6.9,56.1-5.3,85.3,55.9-3.9,114.3-1.7,174,5-12.4,129.2-58.6,210.4-128.1,292.1Z"/>
</svg>