<?xml version="1.0" encoding="UTF-8"?>
<svg id="Layer_2" data-name="Layer 2" xmlns="http://www.w3.org/2000/svg" viewBox="0 0 1560.059 386.63">
  <g id="W7F_Horizontal_2-Line_Logo" data-name="W7F Horizontal 2-Line Logo">
    <g id="logo-horizontal-2lines-white">
      <g>
        <g>
          <g>
            <path d="M1169.943,166.381l-2.874,17.23h-73.711v-72.491h76.023l-2.874,17.231h-47.2v11.135h47.543l-2.874,15.548h-44.669v11.346h50.637Z" style="fill: #fff;"/>
            <path d="M1360.824,166.381l-2.874,17.23h-73.711v-72.491h76.023l-2.874,17.231h-47.2v11.135h47.543l-2.874,15.548h-44.669v11.346h50.637Z" style="fill: #fff;"/>
            <path d="M1369.784,111.12h20.065l46.855,41.288v-41.288h24.478v72.491h-19.856l-47.065-40.447v40.447h-24.478v-72.491Z" style="fill: #fff;"/>
          </g>
          <path d="M1227.913,160.877l24.319-49.756h26.127l-36.555,72.491h-28.465l-38.038-72.491h26.757l25.857,49.756Z" style="fill: #fff;"/>
          <path d="M995.382,174.676l8.191-16.212c29.381,13.9,53.663,11.719,54.691,4.765,1.596-10.796-63.808-3.405-61.692-30.651,2.273-29.26,55.813-27.57,86.363-15.926l-8.265,16.07c-28.212-10.955-50.623-7.66-51.92-.943-1.91,9.894,63.5,2.192,61.724,30.666-1.929,30.914-62.339,27.236-89.093,12.23Z" style="fill: #fff;"/>
          <path d="M1470.93,174.676l8.191-16.212c29.381,13.9,53.663,11.719,54.691,4.765,1.596-10.796-63.808-3.405-61.692-30.651,2.273-29.26,55.813-27.57,86.363-15.926l-8.265,16.07c-28.212-10.955-50.623-7.66-51.92-.943-1.91,9.894,63.5,2.192,61.724,30.666-1.929,30.914-62.339,27.236-89.093,12.23Z" style="fill: #fff;"/>
        </g>
        <g>
          <g>
            <path d="M776.531,183.611h-27.954l-31.312-32.567h18.472c4.202,0,7.354-.857,9.455-2.574,3.961-2.647,4.352-13.625.262-16.388-1.928-1.506-5.2-2.259-9.823-2.259h-20.38v53.789h-25.949v-72.491h53.893c10.995,0,18.979,1.982,23.952,5.937,4.973,3.958,6.756,10.453,6.756,19.488-.085,13.38-5.98,22.347-19.888,24.372l22.514,22.693Z" style="fill: #fff;"/>
            <path d="M862.991,164.386l-4.104,19.225h-73.427v-72.491h25.95v53.265h51.581Z" style="fill: #fff;"/>
            <path d="M870.975,183.611v-72.491h45.803c13.833.344,27.915.199,37.19,10.402,5.55,7.105,6.969,15.864,7.038,25.949-.216,12.078-1.66,21.805-10.663,28.68-9.856,6.804-20.143,7.2-33.564,7.46,0,0-45.804,0-45.804,0ZM912.051,166.171c8.753,0,14.743-1.155,17.964-3.467,6.129-3.984,6.36-22.864,1.576-29.572-.981-1.367-2.505-2.38-4.57-3.047-5.385-1.649-8.493-1.417-14.97-1.524,0,0-15.128,0-15.128,0v37.609h15.128Z" style="fill: #fff;"/>
          </g>
          <polygon points="500.308 111.12 474.749 111.12 496.456 153.021 491.695 162.213 465.228 111.12 439.716 111.12 477.267 183.611 504.291 183.611 521.074 151.212 500.308 111.12" style="fill: #fff;"/>
          <path d="M626.436,185.933c-18.012,0-40.664-.447-48.728-19.819-3.599-9.243-3.561-28.571.214-37.765,8.062-19.06,30.32-19.552,48.514-19.552s40.527.461,48.622,19.552c3.773,9.199,3.832,28.529.159,37.765-8.214,19.372-30.768,19.82-48.78,19.82ZM626.435,167.465c11.233,0,25.494-.342,25.494-19.992s-14.124-20.21-25.495-20.21-25.494.793-25.494,20.024,14.261,20.178,25.494,20.178Z" style="fill: #fff;"/>
        </g>
        <polygon points="542.386 128.561 513.873 183.611 539.391 183.611 576.942 111.12 509.832 111.12 518.867 128.561 542.386 128.561" style="fill: #fff;"/>
        <g>
          <path d="M852.453,203.021l-4.522,19.961h-30.75v52.53h-25.948v-52.53h-30.75l-4.522-19.961h96.492Z" style="fill: #fff;"/>
          <path d="M927.485,237.689v1.05c11.835,1.47,17.754,7.038,17.754,16.704,0,6.864-2.242,11.923-6.723,15.18-4.482,3.257-11.347,4.888-20.591,4.888h-58.726v-72.491h56.73c9.455,0,16.266,1.489,20.433,4.466,4.167,2.977,6.251,7.931,6.251,14.865,0,4.203-1.349,7.583-4.044,10.138-2.697,2.557-6.392,4.29-11.084,5.201ZM907.105,219.514h-21.957v12.923h22.272c3.29,0,5.727-.507,7.301-1.524,1.576-1.015,2.365-2.712,2.365-5.094,0-2.451-.72-4.115-2.154-4.992-1.436-.875-4.044-1.313-7.827-1.313ZM909.101,245.462h-23.953v13.553h24.268c3.501,0,6.094-.526,7.775-1.576,1.681-1.05,2.522-2.837,2.522-5.357s-.772-4.255-2.313-5.201c-1.541-.946-4.307-1.42-8.299-1.42Z" style="fill: #fff;"/>
          <path d="M946.075,275.511l39.185-72.491h24.794l38.976,72.491h-29.205l-4.518-9.877h-36.98l-4.622,9.877h-27.629ZM997.026,226.134l-11.556,24.372h22.796l-11.24-24.372Z" style="fill: #fff;"/>
          <path d="M1132.697,256.283l-4.356,19.228h-73.008v-72.491h25.948v53.262h51.416Z" style="fill: #fff;"/>
          <path d="M1218.21,256.283l-4.356,19.228h-73.008v-72.491h25.948v53.262h51.416Z" style="fill: #fff;"/>
          <path d="M592.771,277.833c-18.012,0-40.664-.447-48.728-19.819-3.599-9.243-3.561-28.571.214-37.765,8.062-19.06,30.32-19.552,48.514-19.552s40.527.461,48.622,19.552c3.773,9.199,3.832,28.529.159,37.765-8.214,19.372-30.768,19.82-48.78,19.82ZM592.771,259.366c11.233,0,25.494-.342,25.494-19.992s-14.124-20.21-25.495-20.21-25.494.793-25.494,20.024,14.261,20.178,25.494,20.178Z" style="fill: #fff;"/>
          <path d="M703.29,277.833c-18.012,0-40.664-.447-48.728-19.819-3.599-9.243-3.561-28.571.214-37.765,8.062-19.06,30.32-19.552,48.514-19.552s40.527.461,48.622,19.552c3.773,9.199,3.832,28.529.159,37.765-8.214,19.372-30.768,19.82-48.78,19.82ZM703.289,259.227c11.233,0,25.494-.34,25.494-19.854s-14.124-20.07-25.495-20.07-25.494.788-25.494,19.885,14.261,20.038,25.494,20.038Z" style="fill: #fff;"/>
          <path d="M533.184,232.226l-3.922,17.124h-43.183v26.162h-25.948v-72.491h80.202l-4.07,17.754h-50.184v11.451h47.105Z" style="fill: #fff;"/>
        </g>
      </g>
      <path d="M298.22,112.874c-14.568,120.354-72.129,206.05-129.929,272.178-15.517-2.069-28.508-5.384-42.836-10.632,87.41-87.367,116.499-171.147,126.714-228.498-31.316-1.842-65.936-1.833-96.768.087-2.646-13.218-4.468-23.257-6.056-35.77,48.958-3.707,98.001-2.266,148.874,2.636ZM181.207,273.6c-45.624-90.923-61.878-173.128-47.937-264.065-14.862,4.857-28.933,11.439-41.968,19.549-10.657,94.221,9.421,158.754,39.275,224.584l-22.343-4.724c-31.229-69.859-44.035-130.191-37.657-204.98-13.003,10.647-25.735,24.175-35.334,38.021,1.982,80.674,15.523,144.444,55.337,212.351l-22.328-4.739c-34.339-59.751-45.89-111.086-50.992-176.305-41.761,91.771-6.176,205.194,89.783,253.11,30.273-29.202,54.171-60.455,74.163-92.801ZM193.522,386.63c117.85,0,224.615-113.799,184.513-250.368-9.959,55.639-24.084,101.891-47.5,152.784l-24.105,5.28c39.464-82.198,56.662-149.896,61.039-232.655-64.908-11.87-132.733-14.363-190.618-12.123l12.411-19.058c29.038-2.223,72.155-.482,114.094,3.918C244.163-6.354,183.537-2.525,152.91,4.258c-5.094,28.971-6.927,56.138-5.327,85.337,55.872-3.946,114.328-1.699,174.001,4.985-12.427,129.158-58.638,210.399-128.062,292.05Z" style="fill: #fff;"/>
    </g>
  </g>
</svg>