<?xml version="1.0" encoding="UTF-8"?>
<svg id="Layer_2" data-name="Layer 2" xmlns="http://www.w3.org/2000/svg" xmlns:xlink="http://www.w3.org/1999/xlink" viewBox="0 0 800.213 237.1">
  <defs>
    <linearGradient id="linear-gradient" x1="-118.064" y1="509.937" x2="-118.064" y2="545.982" gradientTransform="translate(3389.251 12334.997) scale(23.736 -23.723)" gradientUnits="userSpaceOnUse">
      <stop offset="0" stop-color="#1a1a1a" stop-opacity=".1"/>
      <stop offset=".123" stop-color="#212121" stop-opacity=".151"/>
      <stop offset=".308" stop-color="#353535" stop-opacity=".227"/>
      <stop offset=".532" stop-color="#575757" stop-opacity=".318"/>
      <stop offset=".783" stop-color="#858585" stop-opacity=".421"/>
      <stop offset="1" stop-color="#b3b3b3" stop-opacity=".51"/>
    </linearGradient>
  </defs>
  <g id="App_Store_Download" data-name="App Store Download">
    <g>
      <path d="M794.905,209.109c0,12.542-10.17,22.709-22.715,22.709-.008,0-.016,0-.024,0H28.046c-12.559.013-22.752-10.153-22.768-22.709V28.015c.016-12.56,10.204-22.735,22.768-22.738h744.114c12.558,0,22.738,10.178,22.738,22.732v.006l.006,181.094h0Z" style="fill: #fff;"/>
      <path d="M772.166,237.1H28.046c-15.47-.003-28.017-12.526-28.046-27.991V28.021C.023,12.548,12.569.013,28.046,0h744.114c15.475.02,28.017,12.551,28.046,28.021v181.088c.012,15.439-12.591,27.991-28.04,27.991h0Z" style="fill: #a6a6a6;"/>
      <path d="M794.905,209.109c0,12.542-10.17,22.709-22.715,22.709-.008,0-.016,0-.024,0H28.046c-12.559.013-22.752-10.153-22.768-22.709V28.015c.016-12.56,10.204-22.735,22.768-22.738h744.114c12.558,0,22.738,10.178,22.738,22.732v.006l.006,181.094h0Z"/>
      <path d="M178.68,117.302c-.172-19.11,15.651-28.406,16.375-28.839-8.961-13.062-22.851-14.847-27.732-14.989-11.666-1.227-22.981,6.979-28.924,6.979-6.061,0-15.212-6.86-25.075-6.658-12.692.196-24.565,7.542-31.077,18.95-13.439,23.26-3.416,57.441,9.459,76.243,6.441,9.214,13.967,19.489,23.818,19.127,9.637-.391,13.237-6.137,24.867-6.137,11.523,0,14.904,6.137,24.95,5.905,10.343-.16,16.855-9.249,23.07-18.54,7.443-10.548,10.432-20.948,10.551-21.481-.237-.083-20.081-7.66-20.283-30.559h0ZM159.702,61.106c5.183-6.481,8.73-15.297,7.746-24.244-7.502.332-16.885,5.188-22.288,11.526-4.78,5.585-9.05,14.74-7.947,23.349,8.428.628,17.08-4.251,22.489-10.631Z" style="fill: #fff;"/>
      <path d="M772.166,0h-398.573l156.114,237.1h242.459c15.473-.013,28.017-12.541,28.046-28.009V28.021c-.026-15.472-12.57-28.005-28.046-28.021Z" style="fill: url(#linear-gradient);"/>
      <path d="M318.271,186.792h-13.469l-7.378-23.177h-25.644l-7.028,23.177h-13.113l25.413-78.905h15.693l25.526,78.905h0ZM295.201,153.891l-6.672-20.604c-.706-2.105-2.034-7.062-3.98-14.864h-.237c-.783,3.356-2.034,8.313-3.748,14.864l-6.559,20.604h21.196ZM383.497,157.644c0,9.676-2.627,17.325-7.888,22.94-4.709,4.998-10.563,7.494-17.543,7.494-7.538,0-12.959-2.686-16.25-8.07v29.853h-12.644v-61.266c0-6.077-.16-12.309-.469-18.7h11.12l.706,9.018h.237c4.217-6.795,10.616-10.192,19.204-10.192,6.714,0,12.318,2.65,16.802,7.957,4.478,5.318,6.725,12.303,6.725,20.965h0ZM370.616,158.106c0-5.538-1.245-10.103-3.748-13.702-2.734-3.741-6.405-5.615-11.007-5.615-3.12,0-5.954,1.044-8.487,3.101-2.538,2.075-4.199,4.785-4.976,8.141-.347,1.255-.544,2.547-.587,3.848v9.493c0,4.133,1.269,7.625,3.808,10.483,2.538,2.846,5.836,4.275,9.892,4.275,4.762,0,8.469-1.844,11.12-5.502,2.657-3.67,3.985-8.508,3.985-14.52ZM448.955,157.644c0,9.676-2.627,17.325-7.888,22.94-4.715,4.998-10.563,7.494-17.549,7.494-7.538,0-12.959-2.686-16.25-8.07v29.853h-12.644v-61.266c0-6.077-.16-12.309-.469-18.7h11.12l.706,9.018h.237c4.211-6.795,10.61-10.192,19.204-10.192,6.708,0,12.312,2.65,16.808,7.957,4.472,5.318,6.725,12.303,6.725,20.965h0ZM436.067,158.106c0-5.538-1.251-10.103-3.754-13.702-2.734-3.741-6.393-5.615-10.996-5.615-3.12,0-5.954,1.044-8.499,3.101-2.538,2.075-4.193,4.785-4.97,8.141-.386,1.565-.593,2.84-.593,3.848v9.493c0,4.133,1.275,7.625,3.802,10.483,2.538,2.84,5.836,4.275,9.904,4.275,4.768,0,8.475-1.844,11.12-5.502,2.657-3.67,3.985-8.508,3.985-14.52ZM522.139,164.658c0,6.718-2.349,12.178-7.016,16.394-5.136,4.601-12.306,6.907-21.499,6.907-8.493,0-15.301-1.636-20.437-4.915l2.924-10.536c5.545,3.285,11.636,4.921,18.267,4.921,4.768,0,8.475-1.079,11.12-3.22,2.651-2.146,3.991-5.016,3.991-8.597,0-3.208-1.109-5.894-3.286-8.081-2.188-2.182-5.806-4.216-10.889-6.083-13.819-5.152-20.734-12.688-20.734-22.602,0-6.475,2.443-11.775,7.318-15.92,4.875-4.139,11.34-6.208,19.382-6.208,7.182,0,13.166,1.251,17.917,3.747l-3.173,10.305c-4.472-2.419-9.519-3.629-15.165-3.629-4.46,0-7.959,1.097-10.462,3.279-2.105,1.951-3.173,4.328-3.173,7.151,0,3.113,1.216,5.698,3.636,7.726,2.099,1.868,5.931,3.901,11.47,6.083,6.797,2.739,11.79,5.929,14.987,9.593,3.22,3.664,4.822,8.236,4.822,13.684h0ZM564.052,139.382h-13.937v27.624c0,7.026,2.455,10.53,7.378,10.53,2.26,0,4.134-.19,5.616-.587l.35,9.599c-2.491.931-5.771,1.399-9.833,1.399-4.994,0-8.896-1.524-11.713-4.571-2.805-3.048-4.217-8.153-4.217-15.339v-28.679h-8.303v-9.487h8.303v-10.417l12.419-3.747v14.165h13.937v9.51h0ZM626.811,157.875c0,8.745-2.503,15.926-7.496,21.541-5.225,5.781-12.176,8.662-20.841,8.662-8.362,0-15.011-2.769-19.969-8.301-4.958-5.544-7.437-12.528-7.437-20.954,0-8.817,2.562-16.038,7.668-21.653,5.118-5.621,12.01-8.431,20.674-8.431,8.35,0,15.058,2.775,20.135,8.313,4.851,5.372,7.265,12.309,7.265,20.823h0ZM613.704,158.166c0-5.212-1.127-9.682-3.386-13.424-2.651-4.518-6.447-6.777-11.363-6.777-5.065,0-8.949,2.259-11.595,6.777-2.266,3.741-3.392,8.289-3.392,13.661,0,5.218,1.127,9.7,3.392,13.429,2.734,4.518,6.547,6.777,11.488,6.777,4.834,0,8.623-2.306,11.363-6.89,2.325-3.83,3.493-8.33,3.493-13.554h0ZM667.928,141.013c-1.315-.237-2.649-.354-3.985-.35-4.448,0-7.888,1.672-10.308,5.04-2.099,2.965-3.155,6.712-3.155,11.236v29.853h-12.644v-38.978c.011-5.973-.111-11.945-.368-17.912h11.013l.463,10.886h.35c1.34-3.741,3.44-6.759,6.322-9.018,2.638-1.974,5.844-3.043,9.139-3.048,1.168,0,2.224.083,3.161.231l.012,12.06h0ZM724.477,155.652c.032,1.922-.123,3.842-.463,5.733h-37.933c.142,5.621,1.981,9.925,5.504,12.89,3.197,2.644,7.33,3.973,12.407,3.973,5.616,0,10.74-.889,15.349-2.686l1.981,8.769c-5.385,2.348-11.743,3.516-19.079,3.516-8.825,0-15.752-2.597-20.793-7.779-5.029-5.188-7.55-12.161-7.55-20.894,0-8.574,2.343-15.718,7.034-21.416,4.911-6.083,11.547-9.125,19.898-9.125,8.202,0,14.412,3.042,18.628,9.125,3.339,4.82,5.017,10.797,5.017,17.894h0ZM712.42,152.373c.089-3.753-.741-6.985-2.455-9.718-2.188-3.522-5.557-5.277-10.07-5.277-4.134,0-7.502,1.714-10.064,5.152-2.105,2.733-3.357,6.018-3.742,9.831l26.332.012h0Z" style="fill: #fff;"/>
      <path d="M268.133,79.99c-3.517,0-6.559-.172-9.092-.462v-38.148c3.542-.547,7.121-.817,10.705-.806,14.501,0,21.179,7.133,21.179,18.76,0,13.412-7.888,20.657-22.792,20.657ZM270.256,45.465c-1.957,0-3.624.119-5.006.403v28.999c.747.119,2.183.172,4.199.172,9.501,0,14.91-5.407,14.91-15.534,0-9.03-4.893-14.04-14.103-14.04ZM311.736,80.281c-8.173,0-13.469-6.101-13.469-14.384,0-8.633,5.409-14.787,13.931-14.787,8.054,0,13.469,5.811,13.469,14.331,0,8.74-5.581,14.841-13.931,14.841ZM311.973,55.651c-4.49,0-7.366,4.198-7.366,10.068,0,5.757,2.936,9.955,7.307,9.955s7.307-4.488,7.307-10.074c0-5.692-2.876-9.949-7.247-9.949h0ZM372.271,51.684l-8.748,27.962h-5.699l-3.624-12.143c-.901-2.97-1.651-5.984-2.248-9.03h-.119c-.457,3.048-1.323,6.101-2.242,9.03l-3.855,12.143h-5.759l-8.232-27.962h6.387l3.167,13.293c.747,3.166,1.376,6.154,1.898,8.977h.119c.457-2.354,1.204-5.295,2.301-8.917l3.974-13.346h5.065l3.802,13.062c.919,3.166,1.667,6.273,2.248,9.208h.166c.403-2.876,1.038-5.929,1.898-9.208l3.398-13.062,6.103-.006h0ZM404.474,79.646h-6.215v-16.056c0-4.945-1.898-7.423-5.64-7.423-3.683,0-6.215,3.166-6.215,6.848v16.631h-6.215v-19.969c0-2.472-.059-5.123-.231-7.998h5.468l.291,4.316h.172c1.672-2.988,5.065-4.886,8.866-4.886,5.871,0,9.726,4.488,9.726,11.793l-.006,16.744h0ZM421.614,79.646h-6.221v-40.792h6.221v40.792ZM444.275,80.281c-8.167,0-13.469-6.101-13.469-14.384,0-8.633,5.409-14.787,13.925-14.787,8.06,0,13.469,5.811,13.469,14.331.006,8.74-5.581,14.841-13.925,14.841ZM444.507,55.651c-4.49,0-7.366,4.198-7.366,10.068,0,5.757,2.942,9.955,7.301,9.955s7.307-4.488,7.307-10.074c.006-5.692-2.865-9.949-7.241-9.949h0ZM482.706,79.646l-.451-3.22h-.166c-1.898,2.591-4.667,3.854-8.178,3.854-5.011,0-8.57-3.51-8.57-8.23,0-6.902,5.984-10.471,16.345-10.471v-.516c0-3.682-1.951-5.526-5.806-5.526-2.758,0-5.178.694-7.307,2.075l-1.263-4.085c2.586-1.613,5.812-2.419,9.602-2.419,7.307,0,10.996,3.854,10.996,11.568v10.299c0,2.822.125,5.01.403,6.676l-5.605-.006h0ZM481.852,65.719c-6.903,0-10.367,1.672-10.367,5.639,0,2.935,1.785,4.37,4.264,4.37,3.161,0,6.103-2.413,6.103-5.692v-4.316ZM518.089,79.646l-.291-4.488h-.172c-1.785,3.391-4.786,5.123-8.979,5.123-6.743,0-11.737-5.929-11.737-14.271,0-8.745,5.178-14.906,12.247-14.906,3.742,0,6.393,1.263,7.888,3.801h.125v-16.05h6.221v33.257c0,2.704.065,5.235.231,7.536h-5.533ZM517.17,63.193c0-3.913-2.592-7.251-6.547-7.251-4.608,0-7.425,4.085-7.425,9.836,0,5.639,2.924,9.498,7.301,9.498,3.908,0,6.672-3.397,6.672-7.423v-4.66h0ZM562.836,80.281c-8.167,0-13.463-6.101-13.463-14.384,0-8.633,5.409-14.787,13.925-14.787,8.06,0,13.469,5.811,13.469,14.331.006,8.74-5.575,14.841-13.931,14.841h0ZM563.067,55.651c-4.484,0-7.36,4.198-7.36,10.068,0,5.757,2.936,9.955,7.301,9.955s7.307-4.488,7.307-10.074c.012-5.692-2.865-9.949-7.247-9.949h0ZM610.193,79.646h-6.221v-16.056c0-4.945-1.898-7.423-5.64-7.423-3.683,0-6.209,3.166-6.209,6.848v16.631h-6.221v-19.969c0-2.472-.059-5.123-.231-7.998h5.468l.291,4.316h.172c1.667-2.988,5.065-4.892,8.86-4.892,5.871,0,9.732,4.488,9.732,11.793v16.75ZM652.01,56.345h-6.838v13.578c0,3.457,1.198,5.182,3.618,5.182,1.097,0,2.016-.119,2.758-.291l.172,4.72c-1.204.462-2.817.694-4.822.694-4.899,0-7.829-2.704-7.829-9.783v-14.099h-4.08v-4.66h4.08v-5.123l6.103-1.844v6.961h6.838v4.666h0ZM684.914,79.646h-6.209v-15.938c0-5.004-1.892-7.536-5.64-7.536-3.22,0-6.221,2.188-6.221,6.617v16.857h-6.209v-40.792h6.209v16.797h.125c1.957-3.048,4.792-4.548,8.41-4.548,5.919,0,9.537,4.601,9.537,11.912v16.631h0ZM718.624,67.159h-18.652c.119,5.295,3.624,8.283,8.813,8.283,2.758,0,5.296-.462,7.538-1.322l.967,4.316c-2.645,1.15-5.759,1.725-9.382,1.725-8.748,0-13.925-5.526-13.925-14.094s5.302-15.019,13.225-15.019c7.147,0,11.63,5.295,11.63,13.293.04.944-.031,1.889-.214,2.816h0ZM712.924,62.73c0-4.316-2.177-7.364-6.15-7.364-3.57,0-6.393,3.107-6.797,7.364h12.947Z" style="fill: #fff;"/>
    </g>
  </g>
</svg>