<?xml version="1.0" encoding="UTF-8"?>
<svg id="Layer_2" data-name="Layer 2" xmlns="http://www.w3.org/2000/svg" viewBox="0 0 400 400">
  <g id="DAZNLogo">
    <path d="M179.795,90.735c-3.754-7.618-8.868-13.246-15.349-16.885-6.488-3.652-14.656-5.471-24.513-5.471h-32.948c-2.786,0-4.637.406-5.546,1.204-.908.812-1.367,2.448-1.367,4.908v102.291c0,2.474.458,4.097,1.367,4.908.909.798,2.76,1.204,5.546,1.204h36.964c17.468,0,29.417-7.448,35.846-22.356,1.498-3.429,2.544-6.885,3.132-10.38.589-3.482.883-7.906.883-13.259v-21.715c0-6.112-.294-10.942-.883-14.476-.588-3.547-1.635-6.859-3.132-9.974ZM156.807,137.214c0,4.398-.295,8.076-.883,11.021-.589,2.945-1.55,5.34-2.891,7.16-1.34,1.819-3.107,3.102-5.303,3.861-2.197.746-4.905,1.125-8.116,1.125h-13.178v-69.49h13.178c6.109,0,10.497,1.806,13.178,5.393,2.675,3.586,4.016,9.516,4.016,17.775v23.155ZM177.838,307.811h-45.183l47.579-66.898c.748-1.073,1.234-1.937,1.451-2.579.216-.641.321-1.387.321-2.251v-12.867c0-2.461-.46-4.097-1.371-4.908-.913-.799-2.77-1.204-5.565-1.204h-68.699c-2.474,0-4.082.458-4.836,1.361-.754.916-1.13,2.814-1.13,5.72v9.647c0,2.893.375,4.804,1.13,5.707.754.916,2.362,1.374,4.836,1.374h42.409l-46.929,66.898c-1.189,1.505-1.779,3.011-1.779,4.503v13.194c0,2.474.46,4.097,1.371,4.908.912.798,2.77,1.204,5.565,1.204h70.83c2.474,0,4.089-.458,4.843-1.361.748-.916,1.129-2.814,1.129-5.72v-9.646c0-2.893-.38-4.791-1.129-5.707-.754-.916-2.369-1.374-4.843-1.374ZM400,0H0s0,176.889,0,176.889l23.111,23.111L0,223.111v176.889h400v-176.889l-23.111-23.111,23.111-23.111V0ZM347.177,207.418l27.751,27.751v139.759H25.073v-139.782l27.724-27.723c4.099-4.099,4.099-10.744,0-14.843l-27.724-27.723V25.073s349.854,0,349.854,0v139.751s-27.751,27.751-27.751,27.751c-4.099,4.099-4.099,10.744,0,14.843ZM293.793,217.104h-10.772c-2.786,0-4.637.406-5.545,1.204-.909.812-1.36,2.448-1.36,4.908v60.629l-31.824-60.786c-1.288-2.579-2.551-4.215-3.78-4.908-1.235-.694-3.4-1.047-6.507-1.047h-9.968c-2.786,0-4.637.406-5.545,1.204-.909.812-1.367,2.448-1.367,4.908v102.291c0,2.474.426,4.097,1.288,4.908.857.798,2.675,1.204,5.462,1.204h10.935c2.779,0,4.63-.406,5.539-1.204.909-.812,1.366-2.435,1.366-4.908v-60.799l31.824,60.956c1.288,2.579,2.544,4.215,3.78,4.908,1.23.707,3.4,1.047,6.507,1.047h9.967c2.786,0,4.63-.406,5.546-1.204.908-.812,1.367-2.435,1.367-4.908v-102.291c0-2.461-.458-4.097-1.367-4.908-.916-.799-2.76-1.204-5.546-1.204ZM310.366,175.984l-33.754-102.134c-.752-2.251-1.608-3.73-2.569-4.424-.968-.694-2.525-1.047-4.663-1.047h-18.646c-2.145,0-3.721.379-4.741,1.126-1.02.746-1.851,2.199-2.492,4.345l-34.073,102.134c-.432.537-.641,1.597-.641,3.207,0,2.474,1.499,3.704,4.5,3.704h13.983c1.288,0,2.329-.052,3.132-.157.805-.105,1.446-.38,1.93-.812.484-.419.908-1.073,1.288-1.924.373-.864.771-1.99,1.203-3.377l5.304-17.854h38.416l5.461,17.526c.432,1.505.856,2.683,1.288,3.547.425.851.909,1.518,1.446,2.003.536.484,1.177.785,1.928.89.746.105,1.714.157,2.891.157h14.951c2.995,0,4.499-1.23,4.499-3.704,0-.746-.025-1.257-.078-1.518-.059-.275-.242-.838-.562-1.688ZM246.234,138.183l12.858-43.273,13.178,43.273h-26.036Z" style="fill: #f9fafa; stroke-width: 0px;"/>
  </g>
</svg>