<svg width="249" height="114" viewBox="0 0 249 114" fill="none" xmlns="http://www.w3.org/2000/svg">
<path d="M245.763 1.03625C247.091 0.953543 248.087 1.94827 247.963 3.27454L238.169 110.642C238.044 112.01 236.84 113.005 235.512 112.922L29.3825 99.6564C28.0545 99.5735 25.979 99.947 24.734 100.444L6.05924 108.196C4.81426 108.735 4.10814 108.113 4.52311 106.828L8.00943 95.5529C8.38289 94.2679 8.59088 92.1538 8.46646 90.8273L1.03775 19.8986C0.913254 18.572 1.86796 17.4112 3.19596 17.3282L245.763 1.03625ZM66.109 39.838V64.006C66.1091 67.5295 67.1884 70.4314 69.2633 72.587C71.0477 74.4109 73.4132 75.4887 76.318 75.8204H76.8161V70.7218H76.443C75.032 70.5145 73.9112 69.934 73.0397 68.9806C71.9192 67.737 71.3385 66.0782 71.3385 63.964V54.8029H76.7751V49.5792H71.2555V39.838H66.109ZM105.576 39.838V63.923C105.576 67.4466 106.655 70.3484 108.73 72.504C110.805 74.6596 113.628 75.7784 117.238 75.7784C120.848 75.7784 123.711 74.6595 125.828 72.504C127.903 70.3484 128.982 67.4466 128.982 63.923V61.0206C128.982 52.9789 125.04 48.9163 117.238 48.9161C114.499 48.9161 112.341 49.7454 110.722 51.4034V39.838H105.576ZM188.742 39.838V63.923C188.742 67.4466 189.821 70.3484 191.896 72.504C193.971 74.6596 196.794 75.7784 200.404 75.7784C204.014 75.7783 206.877 74.6595 208.994 72.504C211.069 70.3484 212.148 67.4466 212.148 63.923V61.0206C212.148 52.9789 208.206 48.9163 200.404 48.9161C197.665 48.9161 195.507 49.7454 193.888 51.4034V39.838H188.742ZM80.9254 49.5382V63.5909C80.9254 67.9022 81.7137 71.0116 83.2907 72.8771C84.8262 74.701 87.275 75.6545 90.6364 75.7374H91.8395C95.1595 75.6545 97.6492 74.7006 99.1432 72.9181C100.72 71.0941 101.509 67.944 101.509 63.6329V49.5382H96.446V63.5909C96.446 66.244 96.0723 68.1513 95.2838 69.1876C94.5368 70.2239 93.2089 70.7218 91.3415 70.7218H91.0924C89.225 70.6803 87.8971 70.1825 87.1501 69.1876C86.3616 68.1513 85.9879 66.244 85.9879 63.5909V49.5382H80.9254ZM164.091 49.5382V63.5909C164.091 67.9022 164.88 71.0116 166.457 72.8771C167.992 74.701 170.441 75.6545 173.802 75.7374H175.006C178.326 75.6545 180.815 74.7006 182.309 72.9181C183.886 71.0941 184.675 67.944 184.675 63.6329V49.5382H179.612V63.5909C179.612 66.244 179.238 68.1513 178.45 69.1876C177.703 70.2239 176.375 70.7218 174.507 70.7218H174.258C172.391 70.6803 171.063 70.1825 170.316 69.1876C169.528 68.1513 169.154 66.2855 169.154 63.5909V49.5382H164.091ZM47.7253 38.9259C39.4253 39.0088 35.2331 42.2836 35.2331 48.6261V49.4552C35.2331 51.2376 35.8144 52.8127 36.8932 54.0978C37.9722 55.3828 39.5493 56.3783 41.5827 57.0001L53.8258 61.1036C55.9007 61.8084 56.9381 62.9695 56.9381 64.6691V65.4152C56.9381 66.9075 56.1909 68.11 54.6969 68.9806C53.12 69.8925 50.9206 70.3487 48.1403 70.3488C45.3598 70.3488 43.1597 69.8926 41.6657 68.9806C40.2133 68.1101 39.5085 66.9489 39.5085 65.4152V64.8761H34.196V65.4152C34.196 68.5243 35.4413 71.0531 37.9313 72.8771C40.3383 74.7009 43.6995 75.6134 48.0983 75.6134C52.4972 75.6134 55.9418 74.701 58.3903 72.8771C60.8803 71.0531 62.1256 68.5243 62.1256 65.4152L62.1667 65.3741V64.6281C62.1667 62.5556 61.5447 60.7312 60.3415 59.2804C59.138 57.8295 57.5185 56.7513 55.485 56.088L43.0768 51.9835C42.2885 51.6934 41.6245 51.3207 41.1266 50.8234C40.6701 50.3674 40.4626 49.9112 40.4626 49.4552V48.6261C40.4626 45.6828 42.8698 44.2315 47.8083 44.1486H48.2643C53.2443 44.1486 55.7761 45.4759 56.1081 48.129V48.5431H61.3786V48.087C61.1295 41.9933 56.6887 38.9259 48.2643 38.9259H47.7253ZM133.007 39.755V75.4884H138.361V59.8605H154.671V75.4884H160.024V39.755H154.671V54.6788H138.361V39.755H133.007ZM117.238 53.8907C119.396 53.8908 121.014 54.4713 122.134 55.549C123.255 56.6267 123.795 58.4921 123.795 61.0206V63.923C123.795 66.037 123.213 67.695 122.051 68.9386C120.89 70.1407 119.313 70.7627 117.238 70.7628C115.163 70.7628 113.544 70.1822 112.423 68.9386C111.303 67.695 110.722 66.037 110.722 63.923V61.0206C110.722 58.4921 111.304 56.6267 112.382 55.549C113.461 54.4299 115.122 53.8907 117.238 53.8907ZM200.404 53.8907C202.562 53.8908 204.18 54.4713 205.3 55.549C206.421 56.6267 206.961 58.4921 206.961 61.0206V63.923C206.961 65.9956 206.379 67.695 205.217 68.9386C204.056 70.1407 202.479 70.7627 200.404 70.7628C198.329 70.7628 196.71 70.1822 195.59 68.9386C194.469 67.695 193.888 66.037 193.888 63.923V61.0206C193.888 58.4921 194.47 56.6267 195.548 55.549C196.628 54.4299 198.288 53.8907 200.404 53.8907ZM76.7751 54.8439L76.8581 54.8029H76.7751V54.8439Z" fill="white"/>
</svg>
