<svg width="234" height="50" viewBox="0 0 234 50" fill="none" xmlns="http://www.w3.org/2000/svg">
<g clip-path="url(#clip0_49_248)">
<path d="M49.2 28.9C48.9 30.6 48.4 32.3 47.8 33.9C46.7 34.4 45.3 34.8 43.3 34.8C40.4 34.8 38.8 33.9 37.6 33.3C36.5 32.7 35.6 32.2 33.7 32.2C31.8 32.2 30.9 32.7 29.8 33.2C28.5 33.9 27 34.7 24.1 34.7H24C21.1 34.7 19.5 33.8 18.3 33.2C17.2 32.6 16.3 32.1 14.4 32.1H14.3C12.4 32.1 11.6 32.6 10.5 33.1C9.2 33.8 7.7 34.6 4.8 34.6C3.7 34.6 2.7 34.5 1.9 34.3C1.9 34.2 1.8 34.1 1.8 34C1.8 33.9 1.8 33.9 1.7 33.8C1.7 33.7 1.6 33.6 1.6 33.5C1.6 33.4 1.5 33.3 1.5 33.2C1.1 32 0.700001 30.7 0.500001 29.4C0.700001 29.5 0.900001 29.6 1 29.6C2.1 30.2 3 30.7 4.9 30.7C6.8 30.7 7.7 30.2 8.8 29.7C10.1 29 11.6 28.2 14.5 28.2H14.6C17.5 28.2 19.1 29.1 20.3 29.7C21.4 30.3 22.3 30.8 24.2 30.8C26.1 30.8 27 30.3 28.1 29.8C29.4 29.1 31 28.3 33.8 28.3C36.7 28.3 38.3 29.2 39.5 29.8C40.6 30.4 41.5 30.9 43.4 30.9C45.3 30.9 46.2 30.4 47.3 29.9C47.8 29.5 48.4 29.1 49.2 28.9ZM45.8 37.8C45.8 37.9 45.8 37.9 45.8 37.8C45.5 38.2 45.3 38.6 45.1 38.9C45 39.1 44.8 39.3 44.7 39.4C44.6 39.5 44.5 39.6 44.4 39.8C44.3 39.9 44.3 40 44.2 40.1L42.7 41.8L42.6 41.9C40.4 41.7 39.1 41 38.1 40.4C37 39.8 36.1 39.3 34.2 39.3H34.1C32.2 39.3 31.4 39.8 30.3 40.3C29 41 27.4 41.8 24.6 41.8C21.7 41.8 20.1 40.9 18.9 40.3C17.8 39.7 16.9 39.2 15 39.2C13.1 39.2 12.2 39.7 11.1 40.2C10.1 40.7 8.7 41.4 6.9 41.6C5.8 40.4 4.7 39.1 3.9 37.7C4.3 37.8 4.9 37.8 5.4 37.8C7.3 37.8 8.2 37.3 9.3 36.8C10.6 36.1 12.1 35.3 15 35.3C17.9 35.3 19.5 36.2 20.7 36.8C21.8 37.4 22.7 37.9 24.6 37.9H24.7C26.6 37.9 27.4 37.4 28.5 36.9C29.8 36.2 31.4 35.4 34.2 35.4C37.1 35.4 38.7 36.3 39.9 36.9C41 37.5 41.9 38 43.8 38H43.9C44.7 38.1 45.3 38 45.8 37.8ZM49.6 24.7V24.9V25.3C48.6 25.6 47.9 26 47.3 26.3C46.2 26.9 45.3 27.3 43.4 27.3C41.5 27.3 40.6 26.8 39.5 26.2C38.2 25.5 36.7 24.7 33.8 24.7C30.9 24.7 29.3 25.5 28.1 26.2C27 26.8 26.1 27.2 24.2 27.2C22.3 27.2 21.4 26.7 20.3 26.1C19 25.4 17.5 24.6 14.6 24.6H14.5C11.6 24.6 10.1 25.4 8.8 26.1C7.7 26.7 6.8 27.1 4.9 27.1C3 27.1 2.1 26.6 1 26C0.700001 25.9 0.400001 25.7 0.100001 25.6V24.7C1.3106e-06 11.1 11.1 0 24.8 0C38.5 0 49.6 11.1 49.6 24.7ZM40 44.3C35.8 47.5 30.5 49.5 24.8 49.5C19 49.5 13.7 47.5 9.5 44.3C10.8 43.6 12.3 42.8 15.2 42.9C18.1 42.9 19.7 43.8 20.9 44.4C23.2 45.7 26.3 45.7 28.7 44.4C30 43.7 31.5 42.9 34.4 42.9H34.5C37.2 42.9 38.7 43.6 40 44.3Z" fill="#F7F7FF"/>
<path d="M224.1 46.4V42.2H232.8V39.5H224.1V31.5H233.9V28.8H220.9V49.2H234.4V46.4H224.1ZM59.2 28.8H56.1V49.2H68.7V46.4H59.2V28.8ZM103.3 41.8C103.3 45.1 101.6 46.6 98.7 46.6C95.7 46.6 94.1 45.1 94.1 41.8V28.8H90.9V42C90.9 47 94.2 49.5 98.7 49.5C103.1 49.5 106.5 47 106.5 42V28.8H103.3V41.8ZM116.8 46.4H114.6V31.5H116.8C122.1 31.5 124.6 34.6 124.6 38.9C124.6 43.3 122.1 46.4 116.8 46.4ZM117 28.8H111.4V49.2H117C123.6 49.2 127.9 45.1 127.9 39C127.9 32.8 123.5 28.8 117 28.8ZM135 42.2H143.6V39.5H135V31.5H144.8V28.8H131.8V49.2H145.2V46.4H135V42.2ZM153.9 41.2H152.1V31.5H153.9C157.9 31.5 159.6 33.3 159.6 36.3C159.6 39.4 157.9 41.2 153.9 41.2ZM162.8 36.4C162.8 31.7 159.6 28.8 154 28.8H148.9V49.2H152.1V43.9H154C154.6 43.9 155.1 43.8 155.7 43.8L159.4 49.2H163.1L158.8 42.9C161.4 41.7 162.8 39.5 162.8 36.4ZM172.4 46.4H170.2V31.5H172.4C177.7 31.5 180.2 34.6 180.2 38.9C180.2 43.3 177.7 46.4 172.4 46.4ZM172.6 28.8H167V49.2H172.6C179.2 49.2 183.5 45.1 183.5 39C183.5 32.8 179.1 28.8 172.6 28.8ZM195.9 42.8C195.2 43.2 194.6 43.5 193.5 43.5C192.3 43.5 191.7 43.2 191 42.8C190.7 42.7 190.5 42.5 190.1 42.4L193.3 34.3L196.6 42.6C196.3 42.7 196.1 42.8 195.9 42.8ZM199.2 41.9L193.4 28.5H193L187.4 41.8L186.3 44.4L184.3 49.2H187.4L189.1 44.7L189.7 45C190.5 45.4 191.5 46 193.4 46C195.2 46 196.3 45.5 197.1 45C197.2 44.9 197.3 44.9 197.4 44.8L199.1 49.1H202.4L200.3 44.4L199.2 41.9ZM82.8 42.8C82.1 43.2 81.5 43.5 80.4 43.5C79.2 43.5 78.6 43.2 77.9 42.8C77.6 42.7 77.4 42.5 77 42.4L80.2 34.3L83.5 42.6C83.2 42.7 83 42.8 82.8 42.8ZM86.1 41.9L80.3 28.5H80L74.4 41.8L73.3 44.4L71.3 49.2H74.4L76.1 44.7L76.7 45C77.5 45.4 78.5 46 80.4 46C82.2 46 83.3 45.5 84.1 45C84.2 44.9 84.3 44.9 84.4 44.8L86.1 49.1H89.4L87.3 44.4L86.1 41.9ZM208.5 28.8H205.3V49.2H217.9V46.4H208.5V28.8ZM64.8 25.2L73.3 5.09998H70.3L65.9 15.8C65.3 17.1 64.7 19.3 64.7 19.3C64.7 19.3 64.1 17.1 63.5 15.8L59.1 5.19998H55.8L64.5 25.3L64.8 25.2Z" fill="#F7F7FF"/>
<path d="M76.1 5.20002H79.2V25.1H76.1V5.20002ZM95.9 19.8C95.9 16.6 94.1 15 90.7 13.6L89.4 13C87.4 12.1 86.5 11.5 86.5 10C86.5 8.70002 87.5 7.70002 89.1 7.70002C90.6 7.70002 91.5 8.30002 92.3 9.60002L94.7 8.00002C93.5 5.90002 91.7 4.90002 89.1 4.90002C85.8 4.90002 83.5 7.00002 83.5 10C83.5 13.1 85.3 14.5 88.1 15.8L89.4 16.4C91.6 17.4 92.7 18.1 92.7 19.8C92.7 21.4 91.3 22.5 89.3 22.5C86.9 22.5 85.7 21.3 84.7 19.7L82.2 21.1C83.3 23.3 85.6 25.2 89.4 25.2C93.1 25.3 95.9 23.3 95.9 19.8ZM99.5 5.20002H102.6V25.1H99.5V5.20002ZM114.3 25V7.90002H120.2V5.20002H105.4V7.90002H111.3V25H114.3Z" fill="#F7F7FF"/>
</g>
<defs>
<clipPath id="clip0_49_248">
<rect width="234" height="50" fill="white"/>
</clipPath>
</defs>
</svg>
