<?xml version="1.0" encoding="UTF-8"?>
<svg id="W7F_Horizontal_Stack" xmlns="http://www.w3.org/2000/svg" xmlns:xlink="http://www.w3.org/1999/xlink" version="1.1" viewBox="0 0 1146.5 436.9">
  <!-- Generator: Adobe Illustrator 29.2.1, SVG Export Plug-In . SVG Version: 2.1.0 Build 116)  -->
  <defs>
    <style>
      .st0 {
        fill: url(#linear-gradient);
      }

      .st1 {
        fill: #00b870;
      }
    </style>
    <linearGradient id="linear-gradient" x1="67.5" y1="369.1" x2="381.7" y2="54.8" gradientUnits="userSpaceOnUse">
      <stop offset="0" stop-color="#00b870"/>
      <stop offset=".3" stop-color="#00c983"/>
      <stop offset=".9" stop-color="#00f6b5"/>
      <stop offset="1" stop-color="#00ffbe"/>
    </linearGradient>
  </defs>
  <path class="st0" d="M337,127.6c-16.5,136-81.5,232.9-146.8,307.6-17.5-2.3-32.2-6.1-48.4-12,98.8-98.7,131.7-193.4,143.2-258.2-35.4-2.1-74.5-2.1-109.4,0-3-14.9-5-26.3-6.8-40.4,55.3-4.2,110.7-2.6,168.2,3ZM204.8,309.2c-51.6-102.8-69.9-195.6-54.2-298.4-16.8,5.5-32.7,12.9-47.4,22.1-12,106.5,10.6,179.4,44.4,253.8l-25.2-5.3c-35.3-78.9-49.8-147.1-42.6-231.6-14.7,12-29.1,27.3-39.9,43,2.2,91.2,17.5,163.2,62.5,240l-25.2-5.4c-38.8-67.5-51.9-125.5-57.6-199.2-47.2,103.7-7,231.9,101.5,286,34.2-33,61.2-68.3,83.8-104.9ZM218.7,436.9c133.2,0,253.8-128.6,208.5-282.9-11.3,62.9-27.2,115.1-53.7,172.7l-27.2,6c44.6-92.9,64-169.4,69-262.9-73.4-13.4-150-16.2-215.4-13.7l14-21.5c32.8-2.5,81.5-.5,128.9,4.4C275.9-7.2,207.4-2.9,172.8,4.8c-5.8,32.7-7.8,63.4-6,96.4,63.1-4.5,129.2-1.9,196.6,5.6-14,146-66.3,237.8-144.7,330Z"/>
  <g>
    <g>
      <g>
        <path class="st1" d="M713,258.3l-3.2,19.1h-81.9v-80.5h84.5l-3.2,19.1h-52.4v12.4h52.8l-3.2,17.3h-49.6v12.6h56.3Z"/>
        <path class="st1" d="M925.1,258.3l-3.2,19.1h-81.9v-80.5h84.5l-3.2,19.1h-52.4v12.4h52.8l-3.2,17.3h-49.6v12.6h56.3Z"/>
        <path class="st1" d="M935,196.9h22.3l52.1,45.9v-45.9h27.2v80.5h-22.1l-52.3-44.9v44.9h-27.2v-80.5Z"/>
      </g>
      <path class="st1" d="M777.4,252.2l27-55.3h29l-40.6,80.5h-31.6l-42.3-80.5h29.7l28.7,55.3Z"/>
      <path class="st1" d="M519,267.7l9.1-18c32.6,15.4,59.6,13,60.8,5.3,1.8-12-70.9-3.8-68.5-34.1,2.5-32.5,62-30.6,96-17.7l-9.2,17.9c-31.3-12.2-56.2-8.5-57.7-1-2.1,11,70.6,2.4,68.6,34.1-2.1,34.3-69.3,30.3-99,13.6Z"/>
      <path class="st1" d="M1047.4,267.7l9.1-18c32.6,15.4,59.6,13,60.8,5.3,1.8-12-70.9-3.8-68.5-34.1,2.5-32.5,62-30.6,96-17.7l-9.2,17.9c-31.3-12.2-56.2-8.5-57.7-1-2.1,11,70.6,2.4,68.6,34.1-2.1,34.3-69.3,30.3-99,13.6Z"/>
    </g>
    <g>
      <g>
        <path class="st1" d="M875.6,175.4h-31.1l-34.8-36.2h20.5c4.7,0,8.2-1,10.5-2.9,4.4-2.9,4.8-15.1.3-18.2-2.1-1.7-5.8-2.5-10.9-2.5h-22.6v59.8h-28.8v-80.5h59.9c12.2,0,21.1,2.2,26.6,6.6,5.5,4.4,7.5,11.6,7.5,21.7,0,14.9-6.6,24.8-22.1,27.1l25,25.2Z"/>
        <path class="st1" d="M971.7,154l-4.6,21.4h-81.6v-80.5h28.8v59.2h57.3Z"/>
        <path class="st1" d="M980.6,175.4v-80.5h50.9c15.4.4,31,.2,41.3,11.6,6.2,7.9,7.7,17.6,7.8,28.8-.2,13.4-1.8,24.2-11.8,31.9-11,7.6-22.4,8-37.3,8.3,0,0-50.9,0-50.9,0ZM1026.2,156c9.7,0,16.4-1.3,20-3.9,6.8-4.4,7.1-25.4,1.8-32.9-1.1-1.5-2.8-2.6-5.1-3.4-6-1.8-9.4-1.6-16.6-1.7,0,0-16.8,0-16.8,0v41.8h16.8Z"/>
      </g>
      <polygon class="st1" points="568.7 94.8 540.3 94.8 564.4 141.4 559.2 151.6 529.7 94.8 501.4 94.8 543.1 175.4 573.2 175.4 591.8 139.4 568.7 94.8"/>
      <path class="st1" d="M708.9,178c-20,0-45.2-.5-54.1-22-4-10.3-4-31.7.2-42,9-21.2,33.7-21.7,53.9-21.7s45,.5,54,21.7c4.2,10.2,4.3,31.7.2,42-9.1,21.5-34.2,22-54.2,22ZM708.9,157.4c12.5,0,28.3-.4,28.3-22.2s-15.7-22.5-28.3-22.5-28.3.9-28.3,22.2,15.8,22.4,28.3,22.4Z"/>
    </g>
    <polygon class="st1" points="615.5 114.2 583.8 175.4 612.2 175.4 653.9 94.8 579.3 94.8 589.3 114.2 615.5 114.2"/>
    <g>
      <path class="st1" d="M763.3,298.9l-2.8,12.2h-18.8v32.1h-15.9v-32.1h-18.8l-2.8-12.2h59Z"/>
      <path class="st1" d="M809.2,320.1v.6c7.2.9,10.8,4.3,10.8,10.2s-1.4,7.3-4.1,9.3c-2.7,2-6.9,3-12.6,3h-35.9v-44.3h34.7c5.8,0,9.9.9,12.5,2.7,2.5,1.8,3.8,4.8,3.8,9.1s-.8,4.6-2.5,6.2c-1.6,1.6-3.9,2.6-6.8,3.2ZM796.7,309h-13.4v7.9h13.6c2,0,3.5-.3,4.5-.9,1-.6,1.4-1.7,1.4-3.1s-.4-2.5-1.3-3.1c-.9-.5-2.5-.8-4.8-.8ZM798,324.9h-14.6v8.3h14.8c2.1,0,3.7-.3,4.8-1,1-.6,1.5-1.7,1.5-3.3s-.5-2.6-1.4-3.2c-.9-.6-2.6-.9-5.1-.9Z"/>
      <path class="st1" d="M820.6,343.2l23.9-44.3h15.2l23.8,44.3h-17.8l-2.8-6h-22.6l-2.8,6h-16.9ZM851.7,313.1l-7.1,14.9h13.9l-6.9-14.9Z"/>
      <path class="st1" d="M934.6,331.5l-2.7,11.7h-44.6v-44.3h15.9v32.5h31.4Z"/>
      <path class="st1" d="M986.9,331.5l-2.7,11.7h-44.6v-44.3h15.9v32.5h31.4Z"/>
      <path class="st1" d="M604.6,344.7c-11,0-24.9-.3-29.8-12.1-2.2-5.6-2.2-17.5.1-23.1,4.9-11.6,18.5-11.9,29.6-11.9s24.8.3,29.7,11.9c2.3,5.6,2.3,17.4,0,23.1-5,11.8-18.8,12.1-29.8,12.1ZM604.6,333.4c6.9,0,15.6-.2,15.6-12.2s-8.6-12.4-15.6-12.4-15.6.5-15.6,12.2,8.7,12.3,15.6,12.3Z"/>
      <path class="st1" d="M672.2,344.7c-11,0-24.9-.3-29.8-12.1-2.2-5.6-2.2-17.5.1-23.1,4.9-11.6,18.5-11.9,29.6-11.9s24.8.3,29.7,11.9c2.3,5.6,2.3,17.4,0,23.1-5,11.8-18.8,12.1-29.8,12.1ZM672.2,333.3c6.9,0,15.6-.2,15.6-12.1s-8.6-12.3-15.6-12.3-15.6.5-15.6,12.2,8.7,12.2,15.6,12.2Z"/>
      <path class="st1" d="M568.2,316.8l-2.4,10.5h-26.4v16h-15.9v-44.3h49l-2.5,10.8h-30.7v7h28.8Z"/>
    </g>
  </g>
</svg>