<?xml version="1.0" encoding="UTF-8"?>
<svg id="Layer_2" data-name="Layer 2" xmlns="http://www.w3.org/2000/svg" viewBox="0 0 1146.461 436.925">
  <g id="logo-horizontal-primary-white.svg">
    <g>
      <path d="M337.014,127.557c-16.463,136.01-81.511,232.854-146.831,307.584-17.536-2.338-32.216-6.084-48.408-12.016,98.781-98.732,131.654-193.41,143.198-258.223-35.39-2.082-74.513-2.072-109.356.098-2.99-14.937-5.049-26.283-6.844-40.423,55.326-4.19,110.749-2.561,168.24,2.979ZM204.78,309.191c-51.559-102.751-69.927-195.649-54.173-298.416-16.795,5.489-32.696,12.927-47.427,22.092-12.043,106.477,10.646,179.405,44.384,253.798l-25.25-5.339c-35.291-78.947-49.763-147.126-42.556-231.644-14.694,12.032-29.083,27.319-39.93,42.967,2.24,91.169,17.542,163.234,62.536,239.975l-25.232-5.355c-38.806-67.524-51.86-125.536-57.625-199.24-47.194,103.709-6.98,231.886,101.463,286.036,34.212-33.001,61.218-68.319,83.811-104.873ZM218.696,436.925c133.18,0,253.833-128.603,208.515-282.937-11.255,62.876-27.217,115.146-53.679,172.659l-27.241,5.967c44.597-92.891,64.033-169.396,68.979-262.92-73.351-13.414-149.999-16.231-215.415-13.7l14.025-21.537c32.816-2.512,81.541-.544,128.936,4.428C275.925-7.181,207.413-2.854,172.801,4.811c-5.757,32.74-7.828,63.441-6.02,96.438,63.14-4.459,129.201-1.92,196.636,5.634-14.043,145.96-66.266,237.768-144.721,330.041Z" style="fill: #fff;"/>
      <g>
        <g>
          <g>
            <path d="M712.999,258.293l-3.194,19.144h-81.901v-80.542h84.47l-3.194,19.144h-52.444v12.373h52.825l-3.194,17.276h-49.632v12.606h56.263Z" style="fill: #fff;"/>
            <path d="M925.089,258.293l-3.194,19.144h-81.901v-80.542h84.47l-3.194,19.144h-52.444v12.373h52.825l-3.194,17.276h-49.632v12.606h56.263Z" style="fill: #fff;"/>
            <path d="M935.045,196.895h22.295l52.061,45.874v-45.874h27.197v80.542h-22.062l-52.294-44.94v44.94h-27.197v-80.542Z" style="fill: #fff;"/>
          </g>
          <path d="M777.41,252.178l27.021-55.283h29.03l-40.617,80.542h-31.628l-42.265-80.542h29.729l28.73,55.283Z" style="fill: #fff;"/>
          <path d="M519.043,267.735l9.102-18.013c32.646,15.445,59.626,13.021,60.768,5.294,1.773-11.995-70.897-3.784-68.546-34.056,2.525-32.511,62.014-30.634,95.959-17.696l-9.184,17.856c-31.347-12.173-56.248-8.512-57.688-1.047-2.122,10.994,70.555,2.435,68.582,34.074-2.143,34.349-69.266,30.262-98.992,13.588Z" style="fill: #fff;"/>
          <path d="M1047.43,267.735l9.102-18.013c32.646,15.445,59.626,13.021,60.768,5.294,1.773-11.995-70.897-3.784-68.546-34.056,2.525-32.511,62.014-30.634,95.959-17.696l-9.184,17.856c-31.347-12.173-56.248-8.512-57.688-1.047-2.122,10.994,70.555,2.435,68.582,34.074-2.143,34.349-69.266,30.262-98.992,13.588Z" style="fill: #fff;"/>
        </g>
        <g>
          <g>
            <path d="M875.64,175.38h-31.06l-34.791-36.186h20.525c4.669,0,8.171-.952,10.505-2.86,4.401-2.942,4.836-15.138.292-18.209-2.142-1.673-5.778-2.51-10.915-2.51h-22.644v59.765h-28.832v-80.542h59.881c12.216,0,21.087,2.199,26.614,6.594,5.525,4.398,7.507,11.615,7.507,21.654-.094,14.867-6.644,24.83-22.098,27.08l25.016,25.214Z" style="fill: #fff;"/>
            <path d="M971.706,154.019l-4.56,21.361h-81.586v-80.542h28.833v59.181h57.313Z" style="fill: #fff;"/>
            <path d="M980.577,175.38v-80.542h50.893c15.37.383,31.016.218,41.322,11.555,6.167,7.895,7.743,17.627,7.82,28.832-.24,13.42-1.844,24.228-11.848,31.867-10.951,7.56-22.381,8-37.294,8.288,0,0-50.893,0-50.893,0ZM1026.217,156.002c9.726,0,16.381-1.284,19.96-3.852,6.81-4.427,7.067-25.405,1.751-32.858-1.09-1.518-2.784-2.645-5.077-3.386-5.983-1.832-9.437-1.574-16.634-1.693,0,0-16.809,0-16.809,0v41.788h16.809Z" style="fill: #fff;"/>
          </g>
          <polygon points="568.725 94.838 540.326 94.838 564.445 141.392 559.155 151.605 529.748 94.838 501.401 94.838 543.124 175.38 573.15 175.38 591.799 139.381 568.725 94.838" style="fill: #fff;"/>
          <path d="M708.867,177.963c-20.014,0-45.183-.497-54.142-22.021-3.999-10.271-3.957-31.746.237-41.961,8.958-21.177,33.689-21.725,53.904-21.725s45.029.512,54.025,21.724c4.193,10.221,4.258,31.699.176,41.961-9.126,21.525-34.187,22.022-54.2,22.022ZM708.867,157.444c12.481,0,28.327-.38,28.327-22.213s-15.694-22.455-28.327-22.455-28.327.882-28.327,22.248,15.846,22.42,28.327,22.42Z" style="fill: #fff;"/>
        </g>
        <polygon points="615.479 114.214 583.797 175.38 612.151 175.38 653.874 94.838 579.308 94.838 589.346 114.214 615.479 114.214" style="fill: #fff;"/>
        <g>
          <path d="M763.337,298.949l-2.763,12.198h-18.792v32.1h-15.857v-32.1h-18.792l-2.763-12.198h58.967Z" style="fill: #fff;"/>
          <path d="M809.19,320.136v.642c7.233.898,10.85,4.301,10.85,10.208,0,4.195-1.37,7.286-4.108,9.277-2.739,1.99-6.934,2.985-12.584,2.985h-35.888v-44.298h34.668c5.778,0,9.94.91,12.487,2.729,2.547,1.819,3.82,4.847,3.82,9.084,0,2.568-.824,4.634-2.471,6.195-1.648,1.563-3.906,2.622-6.773,3.178ZM796.736,309.029h-13.418v7.897h13.611c2.011,0,3.5-.31,4.462-.931.963-.62,1.445-1.657,1.445-3.113,0-1.498-.44-2.515-1.317-3.05-.878-.535-2.471-.802-4.783-.802ZM797.955,324.886h-14.638v8.283h14.83c2.14,0,3.724-.321,4.751-.963,1.027-.642,1.541-1.734,1.541-3.274s-.472-2.6-1.413-3.178c-.942-.578-2.632-.867-5.071-.867Z" style="fill: #fff;"/>
          <path d="M820.551,343.248l23.946-44.298h15.152l23.819,44.298h-17.848l-2.761-6.035h-22.599l-2.825,6.035h-16.884ZM851.688,313.074l-7.062,14.894h13.931l-6.869-14.894Z" style="fill: #fff;"/>
          <path d="M934.597,331.499l-2.662,11.749h-44.616v-44.298h15.857v32.549h31.421Z" style="fill: #fff;"/>
          <path d="M986.855,331.499l-2.662,11.749h-44.616v-44.298h15.857v32.549h31.421Z" style="fill: #fff;"/>
          <path d="M604.643,344.668c-11.007,0-24.85-.273-29.778-12.112-2.2-5.649-2.176-17.46.131-23.079,4.927-11.648,18.529-11.949,29.647-11.949s24.766.282,29.713,11.948c2.306,5.622,2.342,17.435.097,23.079-5.019,11.839-18.803,12.112-29.81,12.112ZM604.643,333.383c6.865,0,15.58-.209,15.58-12.217s-8.631-12.35-15.58-12.35-15.58.485-15.58,12.237,8.715,12.331,15.58,12.331Z" style="fill: #fff;"/>
          <path d="M672.182,344.668c-11.007,0-24.85-.273-29.778-12.112-2.2-5.649-2.176-17.46.131-23.079,4.927-11.648,18.529-11.949,29.647-11.949s24.766.282,29.713,11.948c2.306,5.622,2.342,17.435.097,23.079-5.019,11.839-18.803,12.112-29.81,12.112ZM672.182,333.298c6.865,0,15.58-.208,15.58-12.133s-8.631-12.265-15.58-12.265-15.58.482-15.58,12.152,8.715,12.246,15.58,12.246Z" style="fill: #fff;"/>
          <path d="M568.229,316.797l-2.397,10.464h-26.389v15.986h-15.857v-44.298h49.012l-2.487,10.85h-30.668v6.998h28.786Z" style="fill: #fff;"/>
        </g>
      </g>
    </g>
  </g>
</svg>